<svg xmlns="http://www.w3.org/2000/svg" version="1.1" xmlns:xlink="http://www.w3.org/1999/xlink" width="1000" height="1000"><g clip-path="url(#SvgjsClipPath1054)"><rect width="1000" height="1000" fill="#ffffff"></rect><g transform="matrix(2.2573363431151243,0,0,2.2573363431151243,20.316027088036094,-5.684341886080802e-14)"><svg xmlns="http://www.w3.org/2000/svg" version="1.1" xmlns:xlink="http://www.w3.org/1999/xlink" width="425px" height="443px"><svg version="1.0" xmlns="http://www.w3.org/2000/svg" width="425px" height="443px" viewBox="0 0 425 443" preserveAspectRatio="xMidYMid meet">
 <g fill="#142e46">
  <path d="M172.90 403.62 c-4.22 -1.32 -12.14 -3.70 -17.16 -5.28 -9.24 -2.64 -15.05 -5.02 -28.25 -10.82 -15.57 -6.86 -37.22 -23.23 -52.27 -39.60 -27.98 -29.57 -40.12 -51.48 -50.42 -91.34 -4.22 -15.57 -5.02 -71.80 -1.32 -83.94 1.32 -4.22 3.96 -12.93 5.81 -19.53 5.28 -17.95 19.27 -44.35 32.47 -61.24 30.62 -38.80 74.44 -62.83 127.76 -70.75 24.81 -3.70 49.63 -1.06 79.72 8.18 50.68 15.84 90.54 51.21 113.77 100.84 12.93 27.98 16.37 44.61 16.37 82.36 0.26 30.36 -0.53 36.96 -7.13 57.28 -7.92 25.34 -26.66 58.60 -42.50 75.50 -20.33 22.17 -56.49 45.14 -83.15 53.06 -6.60 1.85 -15.31 4.49 -19.53 5.81 -10.03 3.17 -64.15 2.64 -74.18 -0.53z m92.39 -32.47 c41.97 -15.31 76.82 -47.25 96.09 -88.70 18.21 -39.33 17.69 -100.57 -1.06 -141.23 -30.36 -65.47 -98.99 -102.95 -171.32 -93.45 -21.12 2.64 -28.51 4.75 -54.91 16.37 -4.22 1.85 -7.39 3.96 -7.39 5.02 0 1.32 -1.58 2.11 -3.43 2.11 -5.81 0 -38.54 31.68 -48.84 47.25 -12.41 18.48 -14.78 23.49 -22.17 46.46 -8.45 26.66 -8.45 74.44 0.53 98.99 22.17 61.51 72.33 105.59 129.35 113.77 24.29 3.43 64.41 0.26 83.15 -6.60z"></path>
  <path d="M206.43 353.20 c-3.70 -3.70 -4.22 -30.62 -0.79 -36.16 1.32 -2.11 4.22 -2.90 6.60 -2.11 3.70 1.58 4.22 5.02 3.70 20.85 -0.79 18.74 -3.43 23.49 -9.50 17.42z"></path>
  <path d="M198.77 233.62 c-3.17 -2.11 -6.34 -7.39 -7.39 -11.88 -1.06 -5.28 -6.07 -10.82 -15.31 -17.69 -7.66 -5.28 -14.25 -10.56 -15.05 -11.35 -0.79 -0.79 -5.54 -4.49 -10.56 -7.92 -13.99 -9.50 -23.76 -20.59 -22.17 -24.81 3.43 -8.98 12.67 -7.13 26.93 5.28 2.38 2.11 13.99 10.82 25.61 19.53 25.87 19.27 34.84 20.59 49.10 7.39 5.02 -4.75 17.42 -15.57 27.45 -24.29 10.30 -8.45 23.23 -19.80 29.04 -25.08 19.80 -18.21 25.61 -21.65 29.30 -18.48 9.77 7.92 1.85 16.37 -72.07 79.19 -8.45 7.13 -13.73 13.73 -13.73 17.42 -0.26 6.86 -11.88 16.63 -19.80 16.63 -3.17 0 -8.18 -1.85 -11.35 -3.96z"></path>
  <path d="M73.12 215.67 c-2.38 -6.34 3.70 -9.77 18.21 -9.77 13.46 0 21.12 3.96 17.42 9.50 -2.90 4.49 -33.79 4.75 -35.64 0.26z"></path>
  <path d="M206.16 112.45 c-1.85 -2.38 -2.90 -10.30 -2.38 -20.59 0.79 -15.05 1.32 -16.63 6.86 -17.42 5.54 -0.79 5.81 0 5.81 17.42 0 19.80 -4.22 27.98 -10.30 20.59z"></path>
 </g>
 <g fill="#0a1c2a">
  <path d="M234.94 403.88 c0 -1.32 1.85 -2.64 3.96 -2.64 2.11 0 3.96 1.32 3.96 2.64 0 1.58 -1.85 2.64 -3.96 2.64 -2.11 0 -3.96 -1.06 -3.96 -2.64z"></path>
  <path d="M227.81 378.28 c1.06 -0.79 2.64 -0.79 3.70 0 0.79 1.06 0 1.85 -1.85 1.85 -1.85 0 -2.64 -0.79 -1.85 -1.85z"></path>
  <path d="M205.90 234.94 c0 -1.32 2.38 -2.64 5.28 -2.64 2.90 0 5.28 1.32 5.28 2.64 0 1.58 -2.38 2.64 -5.28 2.64 -2.90 0 -5.28 -1.06 -5.28 -2.64z"></path>
  <path d="M187.42 44.88 c0 -1.32 2.90 -2.64 6.60 -2.64 3.70 0 6.60 1.32 6.60 2.64 0 1.58 -2.90 2.64 -6.60 2.64 -3.70 0 -6.60 -1.06 -6.60 -2.64z"></path>
 </g>
</svg></svg></g></g><defs><clipPath id="SvgjsClipPath1054"><rect width="1000" height="1000" x="0" y="0" rx="150" ry="150"></rect></clipPath></defs></svg>