<?xml version="1.0" encoding="utf-8"?>
<!DOCTYPE svg PUBLIC "-//W3C//DTD SVG 1.0//EN" "http://www.w3.org/TR/2001/REC-SVG-20010904/DTD/svg10.dtd">
<svg version="1.0" xmlns="http://www.w3.org/2000/svg" width="917px" height="388px" viewBox="0 0 917 388" preserveAspectRatio="xMidYMid meet">
 <g fill="#fbf8f5">
  <path d="M0 194 l0 -194 458.5 0 458.5 0 0 194 0 194 -458.5 0 -458.5 0 0 -194z m211 154 c40.7 -5 77.6 -26.6 103 -60.5 6.5 -8.7 17.6 -30.1 21.1 -40.5 7.7 -23.5 9.8 -47.9 5.9 -70.4 -10.6 -62.6 -56.4 -109.7 -118.7 -122.3 -13.1 -2.6 -39.4 -2.4 -52.6 0.5 -34.1 7.5 -64.3 25.7 -84.5 50.9 -37.7 46.9 -44.7 107.3 -18.4 159.8 12.3 24.8 30 44.7 52.7 59.5 27 17.6 62.5 26.5 91.5 23z m261 -76.7 c11.4 -3.3 17.3 -6.6 24.6 -13.8 6.9 -6.8 9.7 -11.7 12 -20.8 4.8 -18.5 -4.4 -36.7 -22.9 -45.2 -4.2 -2 -17.1 -5.9 -31 -9.4 -33.2 -8.4 -35.7 -10.3 -35.7 -27.7 0 -8.4 0.2 -9.4 2.9 -13.1 1.6 -2.3 5 -5 7.7 -6.4 4.5 -2.2 6.1 -2.4 19.9 -2.4 13.7 0 15.5 0.2 20.3 2.4 5.8 2.6 11.5 8.5 13.2 13.7 l1.2 3.4 10.4 0 c10.2 0 10.4 -0.1 10.4 -2.3 0 -1.2 -1.6 -5.5 -3.5 -9.6 -8.3 -17.2 -28.5 -28.4 -51.5 -28.4 -15.9 0 -31.7 6.1 -41.9 16.1 -6.6 6.5 -10.5 13.8 -12.5 23.5 -2.6 12.3 1.5 24.1 11.3 32.9 8.1 7.3 16.1 10.5 41.8 16.9 33.3 8.2 36.5 10.5 37.2 26.2 0.1 4.8 0 9.9 -0.3 11.3 -1 3.9 -7.2 10 -12.9 12.5 -4.8 2.2 -6.5 2.4 -21.7 2.4 -16.1 0 -16.7 -0.1 -22.2 -2.8 -6.9 -3.4 -12.1 -9.2 -14.3 -15.8 l-1.7 -4.9 -11.3 0 -11.4 0 1.5 5.3 c2.9 9.8 9.5 19.3 17.9 25.6 17.5 13.2 39.9 17 62.5 10.4z m153.6 -0.4 c17.3 -4.3 31.8 -15.3 41.2 -30.9 5.5 -9.2 10.2 -29.4 10.2 -43.6 l0 -6.4 -31.2 0.2 -31.3 0.3 -0.3 8.8 -0.3 8.7 20.1 0 20 0 0 3.3 c0 5.2 -2.7 16.1 -5 20.6 -4.6 9.1 -13.3 15.8 -24.4 18.7 -2.8 0.8 -10 1.4 -16.1 1.4 -17.4 0 -27.5 -3.8 -36.6 -13.8 -5.3 -5.8 -8 -10.3 -11.2 -19.2 -2.8 -7.7 -3.6 -36.1 -1.3 -46.7 3.4 -16.2 11.7 -27.8 24.4 -34 l7.6 -3.8 17.5 0 c17.3 0 17.7 0.1 23.3 2.8 6.9 3.4 13.2 10.2 15.5 16.9 l1.8 4.8 11.9 0 11.9 0 -0.7 -3.2 c-0.3 -1.8 -1.9 -6 -3.6 -9.3 -15.5 -31.4 -58.7 -43.3 -94.3 -25.9 -33.3 16.2 -48.8 55.4 -38.2 97 6.3 24.8 23.9 43.9 47.7 51.8 14.2 4.8 26.8 5.2 41.4 1.5z m104.4 -34.4 l0 -34.5 40.5 0 40.5 0 0 34.5 0 34.5 11.5 0 11.5 0 0 -77.5 0 -77.5 -12.1 0 -12.1 0 0.4 32 0.3 32 -39.7 0 -39.8 0 0 -32 0 -32 -12 0 -12 0 0 77.5 0 77.5 11.5 0 11.5 0 0 -34.5z"/>
  <path d="M177.5 330.6 c-43.1 -6.4 -79.2 -33.2 -97.9 -72.7 -7.6 -16 -11.1 -30.4 -12.2 -50.4 -4.2 -72.8 47.3 -133.2 118.1 -138.5 40.1 -3 74.5 8.7 101.3 34.4 19.9 19.1 32.5 42.1 37.9 69.4 2.1 10.8 2.4 40.1 0.5 51.2 -3.5 19.9 -12.4 41.1 -23.7 56.1 -19.3 25.8 -47.2 43.5 -77.7 49.4 -11.4 2.2 -35.1 2.8 -46.3 1.1z m20.9 -23.2 c2.3 -2.2 2.3 -23.6 0.1 -25.4 -1.2 -1 -1.8 -1 -3 0 -2.7 2.2 -1.8 27 1 27 0.2 0 1.1 -0.7 1.9 -1.6z m4.3 -92.4 c4 -2.4 6.2 -5.7 7.1 -10.8 0.7 -3.7 2.6 -5.7 29.7 -29.4 39.5 -34.6 40.9 -35.9 40.1 -38.3 -0.3 -1.1 -1.4 -2.5 -2.5 -3.2 -1.6 -1 -5.8 2.3 -36 28.7 l-34.1 29.8 -9.8 0 -9.7 -0.1 -23.9 -17.8 c-22.2 -16.6 -24.1 -17.8 -26 -16.5 -1.2 0.7 -2.2 2.2 -2.4 3.4 -0.3 2.1 0.3 2.7 30.7 25.6 13.2 10 17.1 13.5 17.1 15.2 0 3.5 1.9 7.6 4.8 10.8 4.7 5 9.6 5.9 14.9 2.6z m-88.6 -13 c2.4 -2 2.4 -2 0.5 -3.5 -2.8 -2.1 -18.4 -2.1 -21.2 0 -1.9 1.5 -1.9 1.5 0.5 3.5 3.4 2.9 16.8 2.9 20.2 0z m84.7 -82.2 c1.9 -1.9 1.6 -23.2 -0.3 -24.8 -1.2 -1 -1.8 -1 -3 0 -1.2 1 -1.5 3.7 -1.5 12.4 0 10.3 0.7 13.6 3 13.6 0.3 0 1.1 -0.5 1.8 -1.2z"/>
 </g>
 <g fill="#142f45">
  <path d="M184 351.3 c-65.3 -6.4 -117.3 -52.4 -132.7 -117.3 -3 -12.8 -4.2 -38.4 -2.4 -53.1 2.4 -20.3 9.6 -41.7 20.2 -59.3 21.8 -36.6 55.2 -60.4 97.6 -69.8 13.3 -3 45.2 -3.2 58.6 -0.5 46.7 9.5 85.2 38.8 105.3 80.2 6.9 14.4 10.7 26.2 13.4 42.1 1.9 11.2 2.2 15.3 1.7 30.9 -0.8 26.2 -4.6 41.7 -16.2 65 -22.2 44.7 -65.9 75.5 -115.5 81.5 -7.9 0.9 -22.2 1.1 -30 0.3z m36.8 -24.8 c30.3 -5.8 58.4 -23.6 77.7 -49.4 11.3 -15 20.3 -36.3 23.6 -56.1 1.9 -10.8 1.6 -34.6 -0.4 -45.2 -9.8 -50.1 -47.6 -89.9 -95.7 -100.9 -15 -3.5 -36.9 -4 -50.9 -1.4 -49.7 9.5 -88.4 45.8 -100.6 94.5 -11.2 44.3 1 90 32.3 121.9 30.8 31.2 72.2 44.5 114 36.6z"/>
  <path d="M195 312.3 c-3.5 -1.2 -4 -3.5 -4 -17.8 0 -12.5 0.2 -14.4 1.8 -15.8 2.4 -2.2 6.5 -2.1 8.5 0.1 1.4 1.5 1.7 4.2 1.7 15.8 0 7.6 -0.4 14.4 -0.8 15 -0.7 1 -4.7 3.5 -5.4 3.3 -0.2 0 -1 -0.3 -1.8 -0.6z"/>
  <path d="M191.5 219.8 c-6 -2.1 -11.5 -9.3 -11.5 -15 0 -2.6 1.2 -1.6 -26.8 -22.8 -11.2 -8.4 -20.7 -16.1 -21.2 -17.1 -2.9 -5.3 1.2 -11.9 7.3 -11.9 2.8 0 7.3 2.9 27.2 17.9 22.9 17.1 23.9 17.8 27.2 17.1 1.9 -0.5 4.9 -0.4 6.6 0.1 1.8 0.5 3.2 0.9 3.3 0.9 0.1 0 15.6 -13.5 34.5 -30 29 -25.4 34.8 -30 37.4 -30 5.3 0.1 9.1 4.9 8 10 -0.7 3.3 -5.2 7.5 -44 41.4 -24.5 21.5 -26 23 -26.7 26.9 -1 5.5 -3.5 8.7 -8.8 11.5 -4.8 2.4 -7.8 2.6 -12.5 1z"/>
  <path d="M90.6 204.9 c-3.1 -2.5 -3.4 -6.1 -0.6 -8.9 1.8 -1.8 3.3 -2 14 -2 10.7 0 12.2 0.2 14 2 2.8 2.8 2.5 6.4 -0.6 8.9 -2.3 1.8 -4.1 2.1 -13.4 2.1 -9.3 0 -11.1 -0.3 -13.4 -2.1z"/>
  <path d="M192.7 123.2 c-1.4 -1.5 -1.7 -4.2 -1.7 -15.9 0 -12.3 0.2 -14.2 1.8 -15.6 2.4 -2.2 6.5 -2.1 8.5 0.1 1.4 1.5 1.7 4.2 1.7 15.9 0 12.3 -0.2 14.2 -1.8 15.6 -2.4 2.2 -6.5 2.1 -8.5 -0.1z"/>
  <path d="M436.4 276.6 c-20.8 -4 -34.7 -13.1 -43.6 -28.6 -3.1 -5.2 -5.8 -14 -5.8 -18.4 l0 -3.1 14.4 0 14.4 0 1.6 5.1 c2.1 6.7 7.4 12.7 14.4 16.1 5.4 2.6 6.4 2.8 19.2 2.8 12.1 0 14.1 -0.3 18.7 -2.4 5.8 -2.6 11.9 -8.6 12.9 -12.6 1.2 -4.9 -0.1 -14 -2.5 -17.3 -4 -5.7 -9.7 -8 -34.4 -14.1 -26.1 -6.5 -33.9 -9.7 -42.3 -17.4 -16.7 -15.2 -15.8 -44.6 1.7 -61.9 11 -10.8 26 -16.2 44.9 -16.2 26.1 0.1 46 10.5 54.5 28.6 1.9 4 3.7 9.7 4.1 12.6 l0.7 5.2 -14.1 0 -14 0 -1.2 -3.4 c-1.7 -5.2 -7.4 -11.1 -13.2 -13.7 -4.6 -2.1 -6.8 -2.4 -17.3 -2.4 -10.7 0 -12.5 0.3 -16.9 2.4 -2.7 1.4 -6.1 4.1 -7.7 6.4 -2.4 3.4 -2.9 5 -2.9 10.1 0 3.8 0.7 7.4 1.8 9.6 3.2 6.4 8.1 8.6 33.9 15.1 28.1 7.1 36 10.4 43.8 18.3 7.8 7.7 10.7 14.5 11.3 26 0.8 16.3 -2.9 26.9 -13 36.9 -7.5 7.4 -13.4 10.7 -25.2 14.1 -11.1 3.3 -27.8 4.2 -38.2 2.2z"/>
  <path d="M595.7 275.9 c-16.9 -2.3 -32 -9.9 -43.7 -21.9 -9.3 -9.5 -15.1 -20 -18.6 -33.7 -3.1 -12.1 -4.2 -31.1 -2.5 -43.4 4.4 -32.7 25 -56.7 56 -65.1 11.4 -3.1 32.5 -3.1 44.1 0 23.9 6.5 40.5 22.5 45.4 44 l1.4 6.2 -15.7 0 -15.6 0 -1.8 -4.8 c-2.3 -6.7 -8.6 -13.5 -15.5 -16.9 -5.5 -2.7 -6.3 -2.8 -20.3 -2.8 l-14.5 0 -7.6 3.8 c-12.7 6.2 -21 17.8 -24.4 34 -2.2 10.2 -1.4 33 1.4 40.7 6.1 17 16.7 27.6 31.6 31.6 6.5 1.8 19.6 1.8 26.1 0 16.8 -4.4 25.5 -14.5 28.9 -33.3 l0.6 -3.3 -20.1 0 -20 0 0.3 -11.7 0.3 -11.8 34.3 -0.3 34.2 -0.2 0 9.4 c0 12.9 -1.6 23.4 -5.1 34.1 -6.1 18.2 -16.4 30.2 -33.2 38.7 -12 6 -31.1 8.8 -46 6.7z"/>
  <path d="M704 193.5 l0 -80.5 15 0 15 0 0 32 0 32 36.8 0 36.7 0 -0.3 -32 -0.3 -32 15.1 0 15 0 0 80.5 0 80.5 -14.7 0 -14.8 0 0.3 -34.5 0.3 -34.5 -37.3 0 -37.3 0 0 34.5 0 34.5 -14.7 0 -14.8 0 0 -80.5z"/>
 </g>
</svg>