<?xml version="1.0" encoding="utf-8"?>
<!DOCTYPE svg PUBLIC "-//W3C//DTD SVG 1.0//EN" "http://www.w3.org/TR/2001/REC-SVG-20010904/DTD/svg10.dtd">
<svg version="1.0" xmlns="http://www.w3.org/2000/svg" width="503px" height="336px" viewBox="0 0 503 336" preserveAspectRatio="xMidYMid meet">
 <g fill="#000304">
  <path d="M73.5 308.1 c-0.1 -0.3 -0.2 -8.7 -0.1 -18.6 l0.1 -18 4.5 0 4.5 0 0.3 17.4 c0.1 10.5 -0.1 17.8 -0.7 18.4 -1.1 1.1 -8 1.7 -8.6 0.8z"/>
  <path d="M95.4 308.2 c-1.9 -1.2 -2.6 -9.8 -1.9 -23.5 l0.7 -13.2 3.8 0 c3.6 0 7 1.8 7 3.7 0 1.5 9 14.8 10 14.8 1.4 0 2 -3 2 -10.9 0 -7.2 0.1 -7.7 2.3 -7.9 1.2 -0.1 3.2 0 4.5 0.3 2.2 0.5 2.2 0.7 2.2 17.8 0 9.4 -0.4 17.7 -0.8 18.3 -1.3 2 -8.3 0.9 -10.3 -1.7 -1 -1.3 -1.9 -2.7 -1.9 -3.2 0 -2 -7.5 -11.7 -9 -11.7 -1.4 0 -1.6 1.1 -1.6 7.9 0.1 4.4 -0.2 8.2 -0.5 8.6 -1.1 1 -5.3 1.5 -6.5 0.7z"/>
  <path d="M177.2 306.8 c-8.5 -4.3 -11.8 -17.2 -6.9 -26.8 3.4 -6.8 6.5 -8.5 15.2 -8.5 7.2 0 7.5 0.1 11.4 3.9 2.5 2.5 4.3 5.3 4.9 8 1.3 5.3 0 14.6 -2.7 19 -3.8 6.1 -14.4 8.3 -21.9 4.4z m12.4 -6.6 c3.2 -2.1 4.6 -12 2.4 -17.6 -1.6 -4.3 -9 -5.2 -12.2 -1.4 -2.7 3.1 -2.5 14.7 0.2 17.6 2.1 2.2 7.3 3 9.6 1.4z"/>
  <path d="M266.7 307.6 c-1.3 -1 -3.5 -8.6 -5.2 -17.3 -0.4 -1.9 -1.3 -3.3 -2.1 -3.3 -1.7 0 -1.7 0.4 -1.5 9.7 0.3 9.9 -0.2 11.3 -4.5 11.3 l-3.4 0 0 -17.5 c0 -19 0.2 -19.6 6 -19 1.4 0.1 3.5 0.3 4.6 0.4 2.2 0.1 3 1.8 4.1 8.6 0.8 4.7 3.1 9.5 4.6 9.5 1.3 0 2.5 -3.5 4.6 -13.3 0.5 -2.1 1.1 -4 1.3 -4.2 0.3 -0.3 3.2 -0.8 6.6 -1.1 l6.2 -0.7 0 18.7 0 18.6 -3.4 0 c-1.9 0 -3.6 -0.6 -3.9 -1.4 -0.3 -0.7 -0.5 -5.1 -0.5 -9.8 0.1 -12.5 -2.1 -14.5 -4.2 -4.1 -2.3 10.7 -3.9 15 -6 15.6 -1 0.3 -2.5 0 -3.3 -0.7z"/>
  <path d="M320.8 307.3 c-0.8 -1 -1.8 -2.6 -2.1 -3.5 -0.5 -1.5 -1.8 -1.8 -6.8 -1.8 -5.8 0 -6.1 0.1 -7.2 3 -1 2.7 -1.6 3 -5.4 3 -2.4 0 -4.3 -0.2 -4.3 -0.5 0 -0.8 9 -27.7 10.2 -30.5 2.1 -5 2.6 -5.5 5.4 -5.7 4.3 -0.4 7.4 0.5 7.4 2.2 0 0.9 0.8 3.4 1.9 5.8 3 6.7 8.5 22.2 9.8 27.5 0.5 2 0.2 2.2 -3.4 2.2 -2.6 0 -4.5 -0.6 -5.5 -1.7z m-5.2 -14.8 c0 -3.4 -2.2 -9 -3.7 -9 -1.5 0 -4.3 9.1 -3.3 10.7 0.3 0.5 2 0.8 3.7 0.6 2.4 -0.2 3.2 -0.8 3.3 -2.3z"/>
  <path d="M341.9 308.7 c0 -0.1 -0.1 -6.5 -0.3 -14.2 l-0.3 -14 -4.9 -0.5 -4.9 -0.5 -0.3 -4.2 -0.3 -4.3 15.5 0 c16.7 0 15.8 -0.3 15.8 5 0 4.1 -0.1 4.2 -4.7 3.7 -2.7 -0.2 -4.8 0 -5.2 0.7 -0.4 0.6 -0.6 7 -0.4 14.3 0.1 7.3 -0.1 13.3 -0.6 13.4 -0.4 0 -2.7 0.2 -5 0.5 -2.4 0.2 -4.3 0.3 -4.4 0.1z"/>
  <path d="M370.1 290.3 l0.1 -18.9 3 -0.2 c7 -0.6 6.9 -0.9 6.8 18.4 -0.1 9.5 -0.5 17.6 -0.9 17.9 -0.4 0.2 -2.7 0.7 -4.9 1.1 l-4.2 0.6 0.1 -18.9z"/>
  <path d="M399 307.7 c-5.5 -1.9 -9.2 -8.1 -9.8 -16.5 -0.4 -6.2 -0.2 -7.5 2.3 -12.1 2.3 -4.1 3.6 -5.4 7.2 -6.7 8.3 -3.2 18.9 0 21.1 6.5 0.9 2.7 0.8 2.9 -2.4 3.9 -3.1 0.9 -3.7 0.8 -5.9 -1.4 -3 -3 -8.4 -3.2 -10.8 -0.6 -2 2.2 -2.4 14.1 -0.6 17.3 2.3 4.4 9.6 4 11.7 -0.6 1.2 -2.6 2.2 -2.9 6 -1.9 4.7 1.3 1.2 10 -5 12.2 -3.6 1.3 -10 1.3 -13.8 -0.1z"/>
  <path d="M427 307.8 c0 -0.7 0.9 -3.7 1.9 -6.6 1.1 -2.9 2 -5.5 2 -5.7 0.3 -2.1 1.5 -6.2 2.2 -7 0.4 -0.5 0.8 -1.4 0.9 -2 0.4 -1.5 1 -3.6 2.5 -7.5 0.7 -1.9 1.4 -3.9 1.5 -4.5 0.8 -3.1 1.5 -3.5 6.6 -3.5 3 0 5.5 0.5 5.5 1 0.3 1.9 0.4 2.5 1.6 5.5 0.6 1.7 2.5 7.5 4.3 13 1.7 5.5 3.9 11.5 4.7 13.3 0.9 1.8 1.3 3.5 0.9 3.9 -0.3 0.3 -2.6 0.8 -5.1 1 -4.2 0.5 -4.5 0.3 -4.5 -1.9 0 -3.7 -1.9 -4.8 -8.2 -4.8 -5.6 0 -5.8 0.1 -7.1 3.3 -1.2 2.8 -1.9 3.2 -5.5 3.5 -2.9 0.2 -4.2 -0.2 -4.2 -1z m20.5 -14 c0.8 -2.1 -2 -10.3 -3.5 -10.3 -1.5 0 -4.3 8.2 -3.5 10.3 0.2 0.6 1.8 1.2 3.5 1.2 1.7 0 3.3 -0.6 3.5 -1.2z"/>
  <path d="M135.6 307.2 c-0.3 -0.4 -0.4 -8.7 -0.3 -18.3 l0.2 -17.4 12.5 0 12.5 0 0 3.5 0 3.5 -6 0.1 c-10.3 0.3 -9.7 0.1 -9.3 3.7 0.3 3.2 0.3 3.2 6.8 3.7 6.4 0.5 6.5 0.5 6.5 3.5 0 3 -0.1 3 -6.5 3.5 l-6.5 0.5 0 7 0 7 -4.7 0.3 c-2.5 0.2 -4.9 -0.1 -5.2 -0.6z"/>
  <path d="M211.5 305.8 c-0.3 -1.3 -0.4 -9.5 -0.3 -18.3 l0.3 -16 11.9 0.1 11.9 0.1 3 3.3 c2.6 2.9 2.9 3.8 2.3 7.7 -0.4 3.1 -1.4 5.1 -3.3 6.8 l-2.8 2.3 2.3 3.1 c1.2 1.6 2.2 3.4 2.2 3.8 0 0.5 0.9 2.5 1.9 4.5 1.1 1.9 1.7 3.9 1.4 4.2 -0.4 0.3 -2.6 0.6 -5 0.6 l-4.3 0 -3.1 -6.5 c-3 -6.3 -6.2 -9.6 -8 -7.8 -0.4 0.4 -0.9 3.7 -1.1 7.3 l-0.3 6.5 -4.2 0.3 c-3.7 0.3 -4.3 0 -4.8 -2z m18.7 -20.5 c4 -3.6 1.3 -7.6 -4.9 -7.1 -3.3 0.3 -3.8 0.6 -4.1 3.1 -0.2 1.6 -0.1 3.5 0.2 4.3 0.7 1.9 6.5 1.8 8.8 -0.3z"/>
  <path d="M207.8 248.8 c-0.5 -6.4 -3 -11.8 -7.5 -16.5 -3.4 -3.7 -4.4 -7 -1.8 -6 0.8 0.4 1.7 0.2 2 -0.3 0.5 -0.7 0.9 -21.7 0.6 -26.7 -0.2 -2.5 -2.8 -1.2 -4.4 2.2 -1.4 3 -2.2 3.5 -5.1 3.5 l-3.4 0 0.1 -14.7 c0.2 -28.7 -7.9 -51.8 -24 -68.3 -5.8 -5.9 -7.3 -8.1 -7.3 -10.5 0 -2.4 0.7 -3.4 3.8 -5 5.3 -2.9 10.2 -10.5 10.2 -16.2 0 -10.2 -10.1 -20.4 -18.6 -18.8 -1.7 0.3 -4.8 2 -6.9 3.8 -3.2 2.8 -3.7 3.7 -3.1 6 0.5 2.2 1.2 2.7 3.7 2.7 l3.1 0 -0.3 7.9 c-0.4 8.4 -2.3 12.1 -6.1 12.1 -1 0 -1.8 0.5 -1.8 1.1 0 1.5 -14.8 0.6 -17.9 -1.1 -3.1 -1.6 -4.1 -5 -4.1 -14.4 0 -10.1 1.1 -12 6.3 -11.4 3.4 0.4 3.6 0.2 3.1 -1.7 -2.2 -6.8 -8.4 -14.4 -13.3 -16 -1.1 -0.3 -3.3 0.1 -4.8 0.9 -9.5 4.9 -15.8 20.2 -13.3 32.3 1.3 6.3 4.9 14.2 7.4 16.2 0.9 0.8 1.6 2.9 1.6 5 0 2.9 -0.7 4.4 -3.6 7.2 -15.4 14.8 -25.5 46 -23.7 73.1 0.5 8.4 0.4 9.8 -0.9 9.8 -1.2 0 -1.5 0.9 -1 4.5 0.3 2.9 0.1 4.5 -0.6 4.5 -1.2 0 -7.6 -12.8 -8.8 -17.4 -0.3 -1.5 -1.2 -3 -2 -3.3 -0.7 -0.2 -12.4 -0.5 -26.1 -0.6 -24.4 -0.2 -33.3 -1.4 -17.1 -2.4 8.2 -0.4 10.8 -1.4 10.8 -3.8 0 -1.6 -7.7 -2.8 -14.6 -2.4 -2.9 0.2 -4.9 -0.1 -5.1 -0.8 -0.4 -1.1 10.6 -2.2 21.6 -2.2 5 0 10.3 -2.8 8 -4.2 -0.8 -0.5 -7.7 -0.9 -15.5 -0.9 l-14 0 0 -19.7 0.1 -19.8 22.5 -0.2 22.5 -0.2 3.3 -3.7 c3.6 -4.2 8.4 -13.8 10.2 -20.3 1.4 -5.4 4 -21.1 3.7 -23.1 -0.5 -3.8 1.5 -18.4 3.2 -23.8 6.2 -19.4 18.6 -34.4 33.8 -40.9 8.7 -3.8 10.3 -4 10.3 -1.3 0 1.5 -0.7 2 -2.5 2 -1.4 0 -2.5 0.3 -2.5 0.8 0 0.4 -2 2 -4.5 3.5 -5.2 3.3 -11.9 10.6 -14.6 15.9 -2.1 4.1 -1.7 4.5 2.1 2.3 4 -2.3 19.1 -2 23.9 0.5 3.6 1.8 12.1 10.3 12.1 12.1 0 0.5 1.6 -0.2 3.6 -1.6 6.8 -4.6 21.9 -4.7 29.8 -0.1 l4.4 2.6 -1.2 -5.3 c-2.1 -8.7 -10 -22 -13.8 -23 -1.7 -0.5 -2.7 -5.7 -1.2 -5.7 0.4 0 3.1 1.6 6 3.5 9.3 6.2 16.5 16.4 23.3 33.1 2 4.9 3.4 16.2 4.5 35.6 0.2 4.8 0.9 9.5 1.4 10.5 0.5 1 1.2 3.4 1.6 5.4 0.4 2.1 1.4 4.3 2.2 5 1.4 1.1 1.9 1 3.1 -0.6 1.1 -1.4 1.7 -1.6 2 -0.7 0.3 0.6 2.5 3.9 4.9 7.2 l4.4 6 12.5 0 c10.2 0 12.3 0.2 11.9 1.4 -0.3 0.8 0 1.7 0.6 2.1 0.7 0.5 0.8 1.1 0.1 1.9 -0.6 0.7 -0.8 2.2 -0.4 3.4 0.5 2.3 2.7 2.7 7 1.6 2.4 -0.7 4.1 -3.6 2.4 -4.2 -1.9 -0.6 -0.1 -2.2 2.6 -2.2 1.6 0 2.7 -0.7 3 -2 0.5 -1.9 1.4 -2 17.7 -2 l17.2 0 0 5.3 c-0.1 5.1 -0.1 5.2 2.9 5.2 2.7 0 3 -0.3 3 -3.2 0 -1.7 0.3 -3.4 0.7 -3.8 0.4 -0.4 0.4 -1.3 0.1 -2.1 -0.5 -1.2 1.2 -1.4 10.3 -1.2 l10.9 0.3 0.3 2.9 c0.2 1.6 1 3.5 1.8 4.3 0.8 0.8 1.4 2.6 1.4 3.9 0 1.4 0.7 3.2 1.5 4 0.8 0.9 1.5 2.6 1.5 3.8 0 1.3 0.7 2.9 1.5 3.6 0.8 0.7 1.5 2.3 1.5 3.7 0 1.3 0.7 3.1 1.5 3.9 0.8 0.9 1.5 2.7 1.5 4 0 1.4 0.7 3.2 1.5 4 0.8 0.9 1.5 2.8 1.5 4.3 0 1.6 0.7 3.4 1.5 4.1 0.8 0.7 1.5 2.3 1.5 3.7 0 1.9 -0.4 2.3 -1.9 1.8 -4.5 -1.4 -7.3 4 -3.3 6.5 1.2 0.8 1.3 1.3 0.5 1.6 -1 0.4 -1.3 7.4 -1.3 29.9 l0 29.2 -11.7 0.6 c-6.5 0.4 -14 0.5 -16.8 0.4 l-5 -0.2 -0.5 -30 -0.5 -30 -28 0.3 c-15.4 0.2 -28.2 0.5 -28.4 0.7 -0.2 0.2 -0.2 13.8 -0.2 30.1 l0.2 29.7 -12.6 -0.7 c-8.7 -0.5 -13 -0.4 -13.9 0.3 -1.1 0.9 -1.4 0.1 -1.8 -4.1z m85.2 -59.9 c0.9 -1.5 0.8 -2.4 -0.1 -3.5 -0.9 -1.2 -0.9 -2 0.2 -4 1.2 -2.3 1.1 -2.8 -0.5 -4 -1.9 -1.3 -17.1 -1.9 -20.1 -0.7 -2.2 0.8 -1.8 4 0.7 5.7 2.2 1.6 2.1 1.6 -1.9 1.6 -6 0 -10.4 1.1 -11 2.8 -1.3 3.2 2.5 4.1 17.3 4.1 13.5 0.1 14.4 0 15.4 -2z m-3.1 -15.5 c2.5 -0.5 3.1 -1.1 2.9 -2.8 -0.3 -1.9 -1.1 -2.1 -7 -2.4 -5.9 -0.3 -6.8 0 -7.8 1.8 -0.6 1.1 -0.8 2.5 -0.5 3 0.7 1.1 7.6 1.3 12.4 0.4z m1.5 -8 c0.9 -0.3 1.6 -1.4 1.6 -2.4 0 -2.1 -1.9 -3 -6.6 -3 -3.6 0 -5.1 1.7 -4 4.5 0.6 1.5 6 2.1 9 0.9z m1.4 -10 c0.2 -1.6 -0.4 -2.3 -2.2 -2.8 -3.7 -0.9 -7.6 0.3 -7.6 2.3 0 2.7 1.1 3.2 5.5 2.9 3.2 -0.2 4.1 -0.7 4.3 -2.4z m-1.7 -5.4 c1 -0.6 1.9 -1.9 1.9 -2.9 0 -3.2 -5.8 -4.3 -8 -1.6 -1 1.3 -1 1.9 0.5 3.5 2.1 2.3 2.9 2.4 5.6 1z m-161.1 -69.5 c0 -0.3 -0.2 -0.5 -0.5 -0.5 -0.3 0 -0.5 0.2 -0.5 0.5 0 0.3 0.2 0.5 0.5 0.5 0.3 0 0.5 -0.2 0.5 -0.5z"/>
  <path d="M277.3 184.3 c0.4 -0.3 1 -0.3 1.4 0 0.3 0.4 0 0.7 -0.7 0.7 -0.7 0 -1 -0.3 -0.7 -0.7z"/>
  <path d="M279.5 183 c-0.4 -0.6 1.2 -1 3.9 -1 2.5 0 4.6 0.5 4.6 1 0 0.6 -1.8 1 -3.9 1 -2.2 0 -4.3 -0.4 -4.6 -1z"/>
  <path d="M289.3 183.3 c0.4 -0.3 1 -0.3 1.4 0 0.3 0.4 0 0.7 -0.7 0.7 -0.7 0 -1 -0.3 -0.7 -0.7z"/>
  <path d="M421.8 253.3 l-19.8 -0.3 0 -31.5 0 -31.5 24 0 c20.7 0 24 0.2 24 1.5 0 0.8 -0.7 1.5 -1.5 1.5 -1.3 0 -1.5 4.3 -1.7 30.3 l-0.3 30.2 -2.5 0 c-1.4 0.1 -11.4 -0.1 -22.2 -0.2z"/>
  <path d="M357.3 251.8 c-0.6 -0.7 -2.4 -5.3 -4.1 -10.3 -3.7 -10.8 -11.2 -31.1 -15.4 -41.5 -1.6 -4.1 -3.2 -8.3 -3.5 -9.2 -0.5 -1.7 1.4 -1.8 30 -1.8 l30.5 0 0.6 3.1 c0.3 1.7 0.6 15.9 0.6 31.4 l0 28.2 -7.7 0.7 c-13.1 1.1 -29.9 0.7 -31 -0.6z"/>
  <path d="M77 221.5 c0.7 -0.8 1 -2.4 0.7 -3.5 -0.4 -1.6 0 -2 1.9 -2 2.1 0 2.4 0.5 2.4 3.5 0 3.3 -0.2 3.5 -3.1 3.5 -2.7 0 -3 -0.2 -1.9 -1.5z"/>
  <path d="M185 219.5 c0 -3 0.3 -3.5 2.4 -3.5 2 0 2.2 0.4 1.8 2.6 -0.3 1.6 0.1 3 0.9 3.5 1 0.6 0.4 0.9 -1.8 0.9 -3.1 0 -3.3 -0.2 -3.3 -3.5z"/>
  <path d="M239 136.5 c0 -0.3 0.2 -0.5 0.5 -0.5 0.3 0 0.5 0.2 0.5 0.5 0 0.3 -0.2 0.5 -0.5 0.5 -0.3 0 -0.5 -0.2 -0.5 -0.5z"/>
  <path d="M242.3 136.3 c0.4 -0.3 1 -0.3 1.4 0 0.3 0.4 0 0.7 -0.7 0.7 -0.7 0 -1 -0.3 -0.7 -0.7z"/>
 </g>
 <g fill="#026688">
  <path d="M71 202.5 c0 -1.4 -0.9 -3.4 -2 -4.5 -1.1 -1.1 -2 -2.6 -2 -3.4 0 -0.8 2.1 0.6 4.6 3.2 l4.6 4.7 -0.7 -6.2 c-0.6 -5.9 -0.5 -6.3 1.5 -6.3 2.2 0 2.4 1.1 1.4 9.8 -0.7 5.1 -0.7 5.2 -4 5.2 -3 0 -3.4 -0.3 -3.4 -2.5z"/>
  <path d="M189 201.6 c0 -1.9 0.5 -3.8 1 -4.1 0.6 -0.4 1 0.6 1 2.1 l0 2.8 4.5 -4.4 c5 -4.9 5.5 -4.8 2.5 0.7 -1.1 2.1 -2 4.3 -2 5 0 0.8 -1.3 1.3 -3.5 1.3 -3.3 0 -3.5 -0.2 -3.5 -3.4z"/>
  <path d="M202.8 194.9 c-0.7 -0.5 5.8 -0.9 15.5 -0.9 11.5 0 16.6 0.3 16.2 1.1 -0.8 1.2 -29.6 1.1 -31.7 -0.2z"/>
  <path d="M293 195 c0 -0.6 6.3 -1 17 -1 10.7 0 17 0.4 17 1 0 0.6 -6.3 1 -17 1 -10.7 0 -17 -0.4 -17 -1z"/>
  <path d="M334.5 192 c-0.1 -0.3 -0.5 -1.8 -0.9 -3.3 -0.4 -1.6 -1.9 -3.9 -3.4 -5.3 -2.6 -2.3 -3.2 -2.3 -19.3 -2.4 -15.8 0 -16.7 -0.1 -17.2 -2 -0.5 -1.9 0 -2 16.5 -2 15.1 0 16.9 -0.2 16.4 -1.6 -0.3 -0.9 -0.6 -1.8 -0.6 -2 0 -0.2 -7.4 -0.4 -16.5 -0.4 -15.8 0 -16.5 -0.1 -16.5 -2 0 -1.9 0.7 -2 15.6 -2 13.8 0 15.5 -0.2 15 -1.6 -0.3 -0.9 -0.6 -1.8 -0.6 -2 0 -0.2 -6.7 -0.4 -15 -0.4 -14.3 0 -15 -0.1 -15 -2 0 -1.9 0.7 -2 14 -2 7.7 0 14 -0.4 14 -0.8 0 -2.6 -3 -3.2 -15.2 -3.2 -12.1 0 -12.8 -0.1 -12.8 -2 0 -1.9 0.7 -2 12.5 -2 10.6 0 12.4 -0.2 11.9 -1.5 -0.5 -1.2 -2.9 -1.5 -12.9 -1.5 -11.8 0 -12.3 -0.1 -11.8 -2 0.5 -1.8 1.4 -2 11.5 -2 9.6 0 10.9 -0.2 10.4 -1.6 -0.3 -0.9 -0.6 -1.8 -0.6 -2 0 -0.2 -4.7 -0.4 -10.5 -0.4 -9.8 0 -10.5 -0.1 -10.5 -2 0 -1.9 0.7 -2 9.6 -2 7.2 0 9.5 -0.3 9.2 -1.2 -0.3 -0.9 -3.5 -1.5 -9.4 -1.8 -7.5 -0.4 -8.9 -0.8 -9.2 -2.3 -0.3 -1.6 1.3 -1.7 26.9 -1.5 l27.2 0.3 5.2 15.5 c4.3 12.8 5.5 15.5 7.1 15.5 1.8 0 1.9 -0.8 1.5 -15.7 l-0.3 -15.8 31.6 0.1 31.6 0 6.7 -4 c3.8 -2.2 8.2 -4.9 9.8 -6 3.5 -2.4 10.5 -2.9 10.5 -0.7 0 0.7 -0.9 1.6 -1.9 1.9 -1.8 0.4 -2 1.6 -2.3 12 -0.2 6.3 -0.2 12.2 0 13.1 0.3 1.3 2.7 1.6 17.5 1.8 l17.2 0.3 0.3 21.8 0.2 21.7 -40 0 -40 0 0 -28.9 c0 -24.3 -0.2 -29 -1.5 -30.1 -0.8 -0.7 -2.2 -1 -3 -0.6 -1.3 0.5 -1.5 4.2 -1.5 25.8 0 13.9 -0.3 27 -0.6 29 l-0.7 3.7 -29.9 0.3 c-16.5 0.2 -30.1 0.1 -30.3 -0.2z"/>
  <path d="M32.2 188 c1.2 -1.9 2.3 -2 16.6 -2 14.1 0 15.3 0.1 15 1.8 -0.3 1.5 -2 1.7 -16.6 2 -16.1 0.2 -16.2 0.2 -15 -1.8z"/>
  <path d="M203.5 189 c-1.6 -2.7 1.6 -3 28.4 -3 27 0 27.9 0.1 28.4 2 0.5 2 0 2 -27.8 2 -17.9 0 -28.6 -0.4 -29 -1z"/>
  <path d="M293.4 188.4 c0.3 -0.9 0.6 -1.8 0.6 -2 0 -0.2 7.2 -0.4 16 -0.4 15.3 0 16 0.1 16 2 0 1.9 -0.7 2 -16.6 2 -14.7 0 -16.5 -0.2 -16 -1.6z"/>
  <path d="M75 182.8 c0 -3.9 1.2 -6.8 2.6 -6.8 1 0 1.4 1.3 1.4 4.5 0 3.8 -0.3 4.5 -2 4.5 -1.4 0 -2 -0.7 -2 -2.2z"/>
  <path d="M188 179 c0 -4.5 2.3 -5.7 3.4 -1.7 1.1 4.1 0.7 5.7 -1.4 5.7 -1.7 0 -2 -0.7 -2 -4z"/>
  <path d="M42.5 179 c1.7 -1.8 2.9 -2 10.4 -1.8 7.2 0.3 8.6 0.6 8.9 2.1 0.3 1.5 -0.7 1.7 -10.4 1.7 l-10.7 0 1.8 -2z"/>
  <path d="M205.2 179.3 c0.3 -1.7 2.8 -1.8 33.1 -2.1 32.2 -0.2 32.7 -0.2 32.7 1.8 0 2 -0.6 2 -33.1 2 -30.9 0 -33 -0.1 -32.7 -1.7z"/>
  <path d="M36.6 174.8 c1.1 -2.7 20 -14.8 23.1 -14.8 0.9 0 1.3 0.8 1.1 2.3 -0.2 1.7 -1.1 2.3 -4.3 2.7 -2.2 0.3 -5.2 1.3 -6.5 2.3 -2.4 1.7 -2.4 1.7 4.3 1.7 6 0 6.7 0.2 6.7 2 0 1.9 -0.7 2 -9.8 2 -7.1 0 -10.4 0.4 -11.8 1.5 -2.4 1.8 -3.5 1.9 -2.8 0.3z"/>
  <path d="M228 174.5 c-1.7 -1 -5.7 -1.4 -12.2 -1.5 -9 0 -9.8 -0.2 -9.8 -2 0 -1.7 0.8 -1.9 6.8 -2.2 l6.7 -0.3 -3.2 -1.7 c-1.8 -1 -4.8 -1.8 -6.8 -1.8 -3.1 0 -3.5 -0.3 -3.5 -2.5 0 -1.4 0.6 -2.5 1.4 -2.5 3.2 0 21.9 11.9 23 14.8 0.6 1.5 0.7 1.5 -2.4 -0.3z"/>
  <path d="M31.2 172.4 c-0.6 -1 -1.2 -1.3 -1.2 -0.6 0 0.8 -2.3 1.2 -8 1.2 -7.3 0 -8 -0.2 -8 -2 0 -1.8 0.7 -2 8.8 -2 l8.7 0 3 -5.8 c3.1 -6 26.7 -31.2 29.1 -31.2 3.3 0 0.1 4.6 -22.1 30.9 -2.2 2.6 -5.2 6.2 -6.6 8.1 -2.4 3.2 -2.6 3.3 -3.7 1.4z"/>
  <path d="M76.5 169.8 c1.8 -11.9 6.5 -26.8 8.4 -26.8 2.1 0 0.4 11.3 -1.9 13 -0.3 0.3 -1.2 4.4 -2 9.3 -1.1 7.5 -1.6 8.7 -3.2 8.7 -1.8 0 -1.9 -0.5 -1.3 -4.2z"/>
  <path d="M232.9 171.4 c-0.8 -1.5 -2.5 -3.9 -3.9 -5.3 -10.9 -11.5 -24 -27.8 -26.1 -32.7 -2.7 -6.1 -3.4 -13.3 -1.3 -14.1 1.5 -0.6 3.2 1.1 5.6 5.7 3 5.7 3.9 6 16.8 6 11.3 0 12 0.1 12 2 0 1.9 -0.7 2 -13.4 2 l-13.4 0 -3.3 -4.2 c-4 -5.2 -5.5 -6.9 -4.4 -4.8 1.3 2.5 7.6 10.2 11.9 14.8 2.4 2.5 3.4 4.2 2.6 4.2 -0.8 0 -0.4 0.6 1 1.3 1.3 0.7 2.7 2.3 3.1 3.7 0.5 1.9 0.7 2 0.8 0.6 0.1 -1.9 0.1 -1.9 2.2 0 3.4 3 10.5 13.6 12 17.6 1.7 4.8 0 7.2 -2.2 3.2z"/>
  <path d="M187 169.5 c0 -4 2.4 -4.9 3.4 -1.2 1 3.7 0.7 4.7 -1.4 4.7 -1.6 0 -2 -0.7 -2 -3.5z"/>
  <path d="M237 171 c0 -1.9 0.7 -2 20.5 -2 11.3 0 20.5 0.2 20.5 0.4 0 0.2 -0.3 1.1 -0.6 2 -0.5 1.4 -3.3 1.6 -20.5 1.6 -19.2 0 -19.9 -0.1 -19.9 -2z"/>
  <path d="M13.2 163.3 c0.3 -1.6 1.7 -1.8 10.7 -2.1 9.2 -0.2 10.3 -0.1 9.7 1.3 -0.3 0.9 -0.6 1.9 -0.6 2.1 0 0.2 -4.5 0.4 -10.1 0.4 -9 0 -10 -0.2 -9.7 -1.7z"/>
  <path d="M234.2 163.8 c-0.7 -0.7 -1.2 -1.6 -1.2 -2 0 -0.4 11 -0.8 24.5 -0.8 23.8 0 24.5 0.1 24.5 2 0 1.9 -0.7 2 -23.3 2 -16.8 0 -23.6 -0.3 -24.5 -1.2z"/>
  <path d="M184.4 158.3 c-0.4 -2.7 -1.1 -5.1 -1.6 -5.4 -0.6 -0.4 -1.3 -2.8 -1.6 -5.4 -0.4 -3.8 -0.2 -4.7 0.9 -4.3 1.5 0.5 5.3 10.1 6.4 16.2 0.6 3.2 0.5 3.6 -1.3 3.6 -1.7 0 -2.2 -0.9 -2.8 -4.7z"/>
  <path d="M13 155 c0 -1.9 0.6 -2 13.1 -2 11.9 0 13 0.2 12.7 1.8 -0.3 1.5 -1.9 1.7 -13.1 2 -12.2 0.2 -12.7 0.2 -12.7 -1.8z"/>
  <path d="M228.7 156.3 c-0.4 -0.3 -0.7 -1.2 -0.7 -2 0 -1 5.3 -1.3 27.5 -1.3 26.8 0 27.5 0 27.5 2 0 2 -0.7 2 -26.8 2 -14.8 0 -27.2 -0.3 -27.5 -0.7z"/>
  <path d="M13 148 c0 -1.9 0.7 -2 16.5 -2 9.9 0 16.5 0.4 16.5 1 0 2.2 -4.7 3 -18.4 3 -13.9 0 -14.6 -0.1 -14.6 -2z"/>
  <path d="M222.5 148 c-1.8 -2 -1.7 -2 29.6 -2 30.3 0 31.5 0.1 32.7 2 1.2 2 1 2 -29.6 2 -29.6 0 -31 -0.1 -32.7 -2z"/>
  <path d="M13.2 140.3 c0.3 -1.6 2.2 -1.8 20.6 -2.1 19.7 -0.2 23 0.3 18.3 2.8 -1.2 0.6 -9.7 1 -20.6 1 -17.2 0 -18.6 -0.1 -18.3 -1.7z"/>
  <path d="M214.4 140.3 c-1.7 -1.7 -1.2 -1.8 9.6 -2.1 11 -0.3 12.9 0.2 13 3.1 0 0.4 -4.7 0.7 -10.4 0.7 -8.6 0 -10.8 -0.3 -12.2 -1.7z"/>
  <path d="M246.4 140.4 c0.3 -0.9 0.6 -1.8 0.6 -2 0 -0.2 8.8 -0.4 19.5 -0.4 18.8 0 19.5 0.1 19.5 2 0 1.9 -0.7 2 -20.1 2 -17.9 0 -20 -0.2 -19.5 -1.6z"/>
  <path d="M86 138.6 c1.3 -3.4 3.3 -6.6 4.2 -6.6 0.9 0 1.1 5.2 0.2 7.4 -0.3 0.9 -1.7 1.6 -3 1.6 -2.1 0 -2.2 -0.3 -1.4 -2.4z"/>
  <path d="M251.7 133 c-0.5 -1.9 0 -2 17.4 -2 9.8 0 17.9 0.2 17.9 0.4 0 0.2 -0.3 1.1 -0.6 2 -0.5 1.4 -3 1.6 -17.4 1.6 -15.9 0 -16.8 -0.1 -17.3 -2z"/>
  <path d="M172 130 c0 -1.1 -0.7 -2 -1.5 -2 -1 0 -1.5 -1.1 -1.5 -3.5 0 -1.9 0.2 -3.5 0.5 -3.5 0.7 0 7.5 9.2 7.5 10.1 0 0.5 -1.1 0.9 -2.5 0.9 -1.8 0 -2.5 -0.5 -2.5 -2z"/>
  <path d="M158 112 c0 -4.3 0.3 -5 2 -5 1.1 0 2 -0.4 2 -1 0 -0.5 0.9 -1 2 -1 1.3 0 2 -0.7 2 -2 0 -1.3 0.7 -2 1.9 -2 1.5 0 1.9 -1 2.5 -5.6 0.8 -7.3 -0.2 -15.4 -2 -15.4 -0.9 0 -1.4 -1.1 -1.4 -3 0 -2.7 -0.3 -3 -3 -3 -1.6 0 -3 -0.4 -3 -1 0 -0.5 -1.1 -1 -2.5 -1 -1.8 0 -2.5 -0.5 -2.5 -2 0 -2.4 1.5 -2.5 6.1 -0.6 7.6 3.2 12.3 11.1 12.3 20.7 0 5.7 -0.4 7.4 -3 11.5 -2.6 4.3 -7.3 8.5 -10.7 9.7 -0.7 0.2 0 1.4 1.8 3 l3 2.6 -3.7 0.1 -3.8 0 0 -5z"/>
  <path d="M100.1 111.4 c-2.7 -3.5 -2.6 -4.4 0.4 -4.4 2.2 0 2.5 0.4 2.5 3.5 0 1.9 -0.2 3.5 -0.4 3.5 -0.3 0 -1.4 -1.2 -2.5 -2.6z"/>
  <path d="M96 104.1 c-1.6 -3.1 -1.2 -5.1 1 -5.1 1.6 0 2 0.7 2 3.5 0 3.9 -1.4 4.6 -3 1.6z"/>
  <path d="M123 102.1 c0 -0.5 -0.9 -1.3 -2 -1.6 -1.5 -0.5 -2 -1.5 -2 -4.1 0 -4.3 2.6 -4.6 3.5 -0.4 0.4 1.6 1.6 3.7 2.8 4.5 1.9 1.3 2.3 1.3 3.9 -0.2 3.8 -3.4 5 -15.4 1.4 -14 -1 0.4 -1.3 -1 -1.4 -5.9 -0.1 -4.9 0.2 -6.4 1.3 -6.4 0.9 0 1.6 1.5 2 3.8 0.3 2 0.9 4.8 1.2 6.2 l0.6 2.5 0.7 -2.5 c1.1 -3.8 3.7 -8.5 5.6 -10.1 1.5 -1.2 1.6 -1 1.3 2.9 -0.4 4.2 -0.4 4.2 2.8 4.2 3.1 0 3.3 0.2 3.2 3.3 0 1.7 -0.4 4.1 -0.9 5.2 -0.8 1.9 -0.9 1.9 -0.9 -0.3 -0.1 -1.9 -0.5 -2.1 -2.6 -1.6 -2.1 0.5 -2.7 0.1 -3.8 -2.5 -1.8 -4.4 -3 -2.7 -5.8 7.9 -1.2 4.7 -2.7 8.8 -3.3 9.2 -1.6 1.1 -7.6 1 -7.6 -0.1z"/>
  <path d="M136.6 99.6 c-1.8 -3.7 -2.1 -6 -0.6 -3.6 0.8 1.2 1 1.2 1 0.1 0 -1.1 0.5 -1 2 0.4 1.1 1 2 2.3 2 2.8 0 0.6 -1 0.2 -2.1 -0.9 -1.5 -1.3 -2 -1.4 -1.7 -0.5 0.2 0.8 1.2 1.9 2.1 2.5 2.1 1.3 5.3 -1.5 6.2 -5.5 0.9 -4.2 3.5 -3.8 3.5 0.6 0 1.9 -0.4 3.5 -1 3.5 -0.5 0 -1 0.9 -1 2 0 1.7 -0.7 2 -4.4 2 -4 0 -4.5 -0.3 -6 -3.4z"/>
  <path d="M125 98.5 c-2 -2.4 -0.6 -2.8 1.5 -0.5 1 1.1 1.3 2 0.8 2 -0.6 0 -1.6 -0.7 -2.3 -1.5z"/>
  <path d="M93.6 94.8 c-1 -3.8 -0.7 -4.8 1.4 -4.8 1.6 0 2 0.7 2 3.5 0 4 -2.4 4.9 -3.4 1.3z"/>
  <path d="M93 84.8 c0 -3 1.3 -5.8 2.6 -5.8 0.9 0 1.4 1.2 1.4 3.5 0 2.8 -0.4 3.5 -2 3.5 -1.1 0 -2 -0.6 -2 -1.2z"/>
  <path d="M121 80.5 c0 -3.3 0.2 -3.5 3.5 -3.5 3.3 0 3.5 0.2 3.5 3.5 0 3.7 -1.3 4.7 -2.5 1.8 -0.6 -1.7 -0.7 -1.7 -1.9 0 -1.9 2.5 -2.6 2.1 -2.6 -1.8z"/>
  <path d="M95 75.4 c0 -2.1 1.8 -5.4 3 -5.4 0.6 0 1 1.6 1 3.5 0 2.8 -0.4 3.5 -2 3.5 -1.1 0 -2 -0.7 -2 -1.6z"/>
  <path d="M143 72.1 c0 -1.1 6.2 -4.1 8.4 -4.1 2.5 0 1.9 3.7 -0.6 4.4 -3.4 0.9 -7.8 0.7 -7.8 -0.3z"/>
  <path d="M174.2 66.9 c-5.4 -6.7 -16.3 -10.3 -24.8 -8 -2.3 0.6 -6.2 2.7 -8.7 4.6 l-4.6 3.5 -1.6 -3.1 c-0.9 -1.7 -3.5 -5.1 -5.7 -7.5 -3.6 -3.9 -3.8 -4.4 -2 -4.4 1.2 0 2.9 1.1 3.8 2.5 0.9 1.4 2.5 2.5 3.5 2.5 1.4 0 1.9 0.8 2 2.8 0 1.5 0.3 2.1 0.6 1.5 0.2 -0.7 1.5 -1.3 2.8 -1.3 3.3 0 7.5 -2 7.5 -3.7 0 -0.8 1.2 -1.3 3.5 -1.3 1.9 0 3.5 0.5 3.5 1 0 0.6 0.7 1 1.5 1 0.8 0 1.5 -0.4 1.5 -1 0 -0.5 1.6 -1 3.5 -1 2.3 0 3.5 0.5 3.5 1.4 0 1.4 2.9 2.6 6.6 2.6 1.7 0 2.3 0.8 2.8 3.5 0.5 2.6 1.2 3.5 2.6 3.5 1.3 0 2 0.7 2 2 0 2.7 -1.1 2.4 -3.8 -1.1z"/>
  <path d="M124 66 c0 -3.4 -2.3 -5 -6.9 -5 -2.4 0 -3.1 -0.4 -3.1 -2 0 -4 6.6 -1.4 11.9 4.5 3.8 4.3 3.9 5.5 0.6 5.5 -2.1 0 -2.5 -0.5 -2.5 -3z"/>
  <path d="M143.3 64.6 c6.4 -5.9 18.8 -5.9 25.4 -0.1 3.3 2.9 1.9 3.2 -4.8 1.2 -4.3 -1.3 -16.5 -0.9 -21.4 0.8 -1.6 0.5 -1.4 0.1 0.8 -1.9z"/>
  <path d="M96.6 58.5 c2.8 -4.3 10.1 -7.9 15.9 -7.9 7.1 0 16.5 5.6 16.5 9.9 0 0.4 -1.5 -0.2 -3.3 -1.2 -1.8 -1.1 -5.2 -2.6 -7.7 -3.5 -5.2 -1.7 -11.5 -0.7 -18.8 3.1 l-4.3 2.2 1.7 -2.6z"/>
  <path d="M104 60.3 c0 -0.6 6 -3.3 7.5 -3.3 0.8 0 1.5 0.9 1.5 2 0 1.8 -0.6 2.1 -4.5 1.9 -2.5 -0.2 -4.5 -0.4 -4.5 -0.6z"/>
  <path d="M174 57.5 c0 -4 2.4 -4.9 3.4 -1.2 1 3.7 0.7 4.7 -1.4 4.7 -1.6 0 -2 -0.7 -2 -3.5z"/>
  <path d="M91.5 57.9 c-0.7 -2.9 2.4 -13.1 4.3 -13.7 0.8 -0.2 1.2 0.8 1.2 3.2 0 2.5 0.4 3.6 1.5 3.6 0.8 0 1.5 -0.9 1.5 -2 0 -1.6 0.7 -2 3.5 -2 1.9 0 3.5 -0.4 3.5 -1 0 -0.5 2.5 -1 5.5 -1 4.2 0 5.5 0.3 5.5 1.5 0 0.8 0.9 1.5 2 1.5 1.1 0 2 0.7 2 1.5 0 1.2 -0.4 1.3 -1.9 0.5 -3 -1.5 -12.8 -1.2 -16.4 0.6 -1.8 0.9 -5.1 3.4 -7.4 5.7 -4.2 4 -4.2 4 -4.8 1.6z"/>
  <path d="M172 48.5 c0 -3.9 1.4 -4.6 3 -1.6 1.6 3.1 1.2 5.1 -1 5.1 -1.6 0 -2 -0.7 -2 -3.5z"/>
  <path d="M96 42.1 c0 -0.6 1.1 -2.3 2.5 -3.8 l2.4 -2.8 0.1 3.8 c0 3.3 -0.3 3.7 -2.5 3.7 -1.4 0 -2.5 -0.4 -2.5 -0.9z"/>
  <path d="M167 40 c0 -1.1 -0.7 -2 -1.5 -2 -1 0 -1.5 -1.1 -1.5 -3.5 0 -1.9 0.2 -3.5 0.5 -3.5 0.7 0 7.5 9.2 7.5 10.1 0 0.5 -1.1 0.9 -2.5 0.9 -1.8 0 -2.5 -0.5 -2.5 -2z"/>
 </g>
 <g fill="#c29803">
  <path d="M90 256.1 c0 -1.5 0.9 -2 4.3 -2.5 5.4 -0.7 14.4 -2.3 18 -3.2 5.3 -1.3 7.3 -7.5 4 -12.4 -3.2 -4.9 -7.9 -9.2 -12.3 -11.4 -5.6 -2.9 -19.7 -5.3 -21.3 -3.7 -0.6 0.6 -2.7 1.1 -4.6 1.1 l-3.4 0 2.1 -2.3 c2 -2.1 2 -2.5 0.7 -4.4 -1.5 -2.1 -1.4 -2.1 6.2 -2.8 4.2 -0.4 11.2 -0.5 15.5 -0.2 17.7 1.4 31 12.9 33.2 28.8 0.6 4.2 0.5 4.6 -1.8 5.7 -1.4 0.6 -3.2 2.4 -4 4 -2.2 4.3 -6.1 5.2 -22.2 5.2 -13.5 0 -14.4 -0.1 -14.4 -1.9z"/>
  <path d="M144.3 256.4 c-1.8 -0.9 -3.3 -2 -3.3 -2.4 0 -0.5 -1.4 -2.3 -3.2 -4 l-3.2 -3.2 1.1 -6.5 c1.3 -7.6 4.7 -13 11.6 -18.4 7 -5.5 13.9 -7.4 27.7 -7.4 13.3 0 15.6 0.5 14 3.4 -0.7 1.5 -0.6 2.3 0.5 3.5 2.3 2.3 1.8 2.9 -2.2 2.2 -2.1 -0.3 -5.7 -0.8 -8 -1.2 -9.2 -1.3 -23.5 6.8 -27.8 15.9 -1.4 2.8 -2.5 5.6 -2.5 6.2 0 2.1 8.3 7.5 11.5 7.5 1.7 0 5.7 0.5 8.8 1.1 4.5 0.9 5.7 1.6 5.7 3 0 1.8 -1 1.9 -13.7 1.9 -10.6 0 -14.6 -0.4 -17 -1.6z"/>
  <path d="M206.3 251 c0.7 -6.6 -0.7 -11.2 -5.2 -16.8 -1.7 -2.2 -3.1 -4.9 -3.1 -6 0 -5.3 8.7 3 11.7 11.1 0.6 1.8 1.2 5.3 1.2 7.8 0.1 3.7 -0.4 5 -2.5 7 l-2.7 2.4 0.6 -5.5z"/>
  <path d="M127.9 141.8 c-0.9 -0.7 -5.1 -6.2 -9.4 -12.2 -7.7 -10.8 -7.7 -10.8 -7.1 -15.7 0.9 -6.9 1.5 -7.9 4.2 -7.9 1.3 0 2.4 -0.6 2.4 -1.2 0.1 -1.8 6.6 -4.7 8.2 -3.7 0.8 0.5 2.1 0 3.5 -1.3 l2.3 -2.1 0 2.6 c0 2.4 0.4 2.7 3.1 2.7 2.1 0 3 -0.4 2.6 -1.3 -0.3 -0.9 0.5 -1.3 2.9 -1.3 3.2 0 3.4 0.2 3.4 3.3 l0 3.3 -5.5 0 c-8 0 -16.9 2.8 -18.3 5.8 -1 2.1 -0.4 3.3 5.9 11.8 3.9 5.2 7.3 9.4 7.7 9.4 0.4 -0.1 2.5 -2.6 4.7 -5.7 2.2 -3.1 5.3 -7 6.9 -8.7 2 -2.1 3.1 -4.4 3.4 -7.3 0.4 -4.1 0.6 -4.3 3.8 -4.3 2.8 0 3.5 0.5 4 2.6 0.8 3.3 -0.2 9.6 -1.8 10.9 -0.7 0.5 -1.9 2.2 -2.6 3.6 -0.8 1.4 -3.9 5.9 -7.1 10 -5.6 7.3 -5.7 7.4 -10.6 7.7 -3 0.2 -5.7 -0.2 -6.6 -1z"/>
 </g>
 <g fill="#c8ac01">
  <path d="M62 256.2 c-5.5 -2.7 -6.2 -10.4 -1.8 -19.8 2.3 -5 6.7 -9.3 13.3 -12.9 2.8 -1.5 5.5 -3 6 -3.5 1.6 -1.1 10.4 -2.1 10.9 -1.1 0.3 0.5 3.2 1.2 6.3 1.6 7.6 0.9 14.1 4.4 19.2 10.1 6.1 6.9 7.5 13.5 4.2 19 -2.2 3.7 -2 3.6 -23.1 7.3 -3 0.5 -11.3 1 -18.5 1 -10.5 0.1 -13.7 -0.2 -16.5 -1.7z m29.4 -8.4 c9.8 -1.9 12.1 -2.6 13.3 -4.5 1.4 -2 1.3 -2.7 -0.7 -6.8 -2.5 -5.2 -10.3 -10.5 -15.6 -10.5 -4.7 0 -12.8 4.6 -15.9 9 -3.2 4.6 -4.6 12 -2.3 12 0.9 0 2.1 0.7 2.8 1.5 1.7 2 4.4 1.9 18.4 -0.7z"/>
  <path d="M169.5 256.9 c-2.9 -0.8 -9.1 -1.7 -13.1 -1.8 -1.1 -0.1 -3.9 -1.5 -6.2 -3.3 -3.7 -2.9 -4.2 -3.7 -4.2 -7.3 0 -13.2 15.2 -25.5 31.5 -25.5 5.6 0 7.4 0.5 15.4 4.6 12.2 6.3 16.9 12.7 17.1 23.2 0.1 9.7 -3.1 11.2 -22.7 11.1 -8.1 0 -16.1 -0.5 -17.8 -1z m28.7 -8.6 c4.1 -5 3.9 -8.8 -0.7 -14.9 -2.7 -3.6 -10.1 -7.4 -14.2 -7.4 -4 0.1 -10.3 3.2 -13.8 6.9 -2.4 2.6 -3 4.1 -3 7.5 0 5.6 1.7 7.6 6.9 7.7 2.2 0.1 5.5 0.5 7.1 0.9 1.7 0.4 6 0.8 9.6 0.9 5.2 0.1 6.9 -0.3 8.1 -1.6z"/>
  <path d="M77.6 217.3 c-0.4 -0.9 0.6 -1.3 3.4 -1.3 5.2 0 6 1.7 1 2.2 -2.6 0.2 -4.1 -0.1 -4.4 -0.9z"/>
  <path d="M184 218 c-2.4 -0.8 -2.4 -0.8 0.7 -0.9 1.7 -0.1 3.5 0.4 3.8 0.9 0.7 1.1 -0.9 1.1 -4.5 0z"/>
  <path d="M167 217.5 c0 -0.3 0.2 -0.5 0.5 -0.5 0.3 0 0.5 0.2 0.5 0.5 0 0.3 -0.2 0.5 -0.5 0.5 -0.3 0 -0.5 -0.2 -0.5 -0.5z"/>
  <path d="M171.8 216.3 c1.8 -0.2 4.5 -0.2 6 0 1.5 0.2 0 0.4 -3.3 0.4 -3.3 0 -4.5 -0.2 -2.7 -0.4z"/>
  <path d="M127.8 139.9 c-1 -0.5 -1.8 -1.9 -1.8 -2.9 0 -1.1 -0.7 -2 -1.5 -2 -0.8 0 -1.5 -0.9 -1.5 -2 0 -1.1 -0.7 -2 -1.5 -2 -1 0 -1.5 -1 -1.5 -3.1 0 -2.1 0.4 -2.8 1.3 -2.3 0.9 0.6 0.9 0.5 -0.1 -0.8 -0.7 -0.9 -2.2 -1.3 -3.7 -1 -1.8 0.3 -2.5 0 -2.5 -1.2 0 -0.9 -0.4 -1.6 -1 -1.6 -0.5 0 -1 -2.5 -1 -5.5 0 -4.2 0.4 -5.5 1.5 -5.5 0.9 0 1.2 0.6 0.8 1.8 -0.5 1.5 -0.4 1.5 0.9 -0.2 0.8 -1 1.3 -2.9 1 -4.1 -0.3 -1.9 0.3 -2.5 4.1 -4 4.6 -1.7 8.3 -1.2 5.6 0.7 -1.1 0.7 -0.9 0.8 0.4 0.4 1 -0.3 4.6 -0.7 8 -0.7 3.4 -0.1 5.4 -0.3 4.5 -0.6 -3.3 -0.8 -1.8 -2.3 2.3 -2.3 4.7 0 11.5 3.6 12.3 6.5 0.3 1.1 0.6 4.4 0.6 7.3 0 5.1 -0.3 5.8 -7.1 14.5 -3.9 5.1 -8.2 9.7 -9.7 10.4 -3.3 1.5 -8.1 1.6 -10.4 0.2z m12.3 -5.1 c5.1 -6.5 11.1 -15.5 7.7 -11.6 -1.3 1.4 -4.3 5.4 -6.8 8.7 -5.5 7.5 -8.4 8.1 -12.7 2.5 -5.3 -6.8 -6.4 -7.9 -3.2 -3 6.8 10.4 9 10.9 15 3.4z m-5.1 -8 c1.9 -1.3 4.2 -2.7 5 -3 0.8 -0.3 3 -2.6 4.8 -5.2 l3.3 -4.6 -3.3 -2 c-5.2 -3.2 -10.3 -4.4 -14 -3.4 -3.1 0.9 -3.3 1.3 -4.1 7.2 -0.7 5.1 -1.2 6.2 -2.8 6.2 -1 0 -1.9 0.5 -1.9 1 0 0.6 1.1 1 2.5 1 1.8 0 2.5 0.5 2.5 2 0 1.1 0.7 2 1.5 2 0.9 0 1.5 0.9 1.6 2.3 0 1.7 0.2 1.9 0.7 0.5 0.4 -0.9 2.3 -2.7 4.2 -4z m-16 -5.2 c0 -0.2 -0.8 -1 -1.7 -1.7 -1.6 -1.3 -1.7 -1.2 -0.4 0.4 1.3 1.6 2.1 2.1 2.1 1.3z m34 -5.2 c0.6 -1.5 0.7 -3.2 0.1 -4.1 -0.6 -1.2 -1 -0.5 -1.3 2.5 -0.4 4.9 -0.1 5.2 1.2 1.6z m-37 0.6 c0 -0.5 -0.5 -1 -1.1 -1 -0.5 0 -0.7 0.5 -0.4 1 0.3 0.6 0.8 1 1.1 1 0.2 0 0.4 -0.4 0.4 -1z m6 -10.5 c0 -0.3 -0.2 -0.5 -0.5 -0.5 -0.3 0 -0.5 0.2 -0.5 0.5 0 0.3 0.2 0.5 0.5 0.5 0.3 0 0.5 -0.2 0.5 -0.5z m3 -1 c0 -0.3 -0.2 -0.5 -0.5 -0.5 -0.3 0 -0.5 0.2 -0.5 0.5 0 0.3 0.2 0.5 0.5 0.5 0.3 0 0.5 -0.2 0.5 -0.5z"/>
  <path d="M128.3 101.3 c0.4 -0.3 1 -0.3 1.4 0 0.3 0.4 0 0.7 -0.7 0.7 -0.7 0 -1 -0.3 -0.7 -0.7z"/>
  <path d="M131 101.5 c0 -0.3 0.2 -0.5 0.5 -0.5 0.3 0 0.5 0.2 0.5 0.5 0 0.3 -0.2 0.5 -0.5 0.5 -0.3 0 -0.5 -0.2 -0.5 -0.5z"/>
 </g>
 <g fill="#caa212">
  <path d="M62.1 256.4 c-1.9 -0.8 -3.1 -1.7 -2.8 -2 0.3 -0.3 1.4 -0.1 2.5 0.5 2.3 1.2 3.3 1.3 21.7 1.1 11.4 -0.1 15.4 -0.6 21.5 -2.4 8.3 -2.5 10.8 -3.4 13 -4.5 2.3 -1.2 2.1 -8 -0.3 -13.2 -1.9 -4 -4 -6.1 -12.2 -12.4 -1.2 -1 -0.4 -0.8 2.1 0.4 7.6 3.7 14.4 13.4 14.4 20.6 0 3.3 -3.6 8.2 -6.7 8.9 -2.7 0.7 -5.6 1.3 -18.3 3.5 -8.9 1.6 -30.9 1.3 -34.9 -0.5z"/>
  <path d="M169.5 256.9 c-2.9 -0.8 -9.1 -1.7 -13.1 -1.8 -1.1 -0.1 -3.9 -1.5 -6.2 -3.3 -3.7 -2.9 -4.2 -3.7 -4.2 -7.3 0 -10.7 10.3 -21.4 24 -24.9 1.4 -0.4 -0.2 0.7 -3.5 2.3 -8.7 4.4 -14.4 9 -17.1 13.9 -4.6 8.2 -2.2 14.5 6.1 15.8 2.2 0.3 4.4 0.9 5 1.2 2.3 1.4 11 2.5 23.7 2.9 12.3 0.4 14 0.2 18.1 -1.7 2.5 -1.2 4.7 -3 5 -4.1 0.6 -2.3 2.7 -2.6 2.7 -0.3 0 2.6 -1.9 5.3 -5 6.9 -2.2 1.2 -6.3 1.5 -17.7 1.4 -8.1 0 -16.1 -0.5 -17.8 -1z"/>
  <path d="M73 253 c-2 -0.6 -2.1 -0.8 -0.5 -0.8 1.1 0 2.9 0.3 4 0.8 2.5 1.1 -0.1 1.1 -3.5 0z"/>
  <path d="M196 252.3 c2.5 -0.8 5.2 -2 6 -2.5 0.8 -0.6 0.2 0.1 -1.3 1.6 -1.9 1.7 -3.9 2.6 -6 2.6 -3.1 -0.1 -3 -0.2 1.3 -1.7z"/>
  <path d="M209 242.5 c0 -0.3 0.2 -0.5 0.5 -0.5 0.3 0 0.5 0.2 0.5 0.5 0 0.3 -0.2 0.5 -0.5 0.5 -0.3 0 -0.5 -0.2 -0.5 -0.5z"/>
  <path d="M208 238.5 c0 -0.3 0.2 -0.5 0.5 -0.5 0.3 0 0.5 0.2 0.5 0.5 0 0.3 -0.2 0.5 -0.5 0.5 -0.3 0 -0.5 -0.2 -0.5 -0.5z"/>
  <path d="M201.8 236.9 c-1 -0.5 -1.8 -2.1 -1.8 -3.3 0 -1.7 -0.7 -2.6 -2.5 -3 -1.4 -0.4 -2.5 -1.1 -2.5 -1.6 0 -0.6 -1.1 -1 -2.5 -1 -1.4 0 -2.5 -0.4 -2.5 -1 0 -0.5 -1 -1 -2.2 -1 -1.3 0 -3.2 -0.7 -4.2 -1.5 -1.9 -1.4 -1.8 -1.5 1.5 -1.5 3.2 -0.1 3.3 -0.1 1.5 -1.5 -1.1 -0.8 -3.8 -1.6 -6 -1.7 -4 -0.1 -4 -0.1 -0.7 -0.5 3.7 -0.5 11.4 2.4 10.5 3.8 -0.5 0.8 1 1.3 2 0.7 0.2 -0.2 1.3 0.5 2.4 1.5 1.2 1.1 2.6 1.6 3.2 1.2 0.6 -0.3 0.9 -0.3 0.8 0.2 -0.4 1.3 3.3 6.3 4.2 5.8 0.5 -0.3 1.2 0 1.6 0.6 0.4 0.8 0.3 0.9 -0.5 0.5 -0.8 -0.6 -1 0 -0.5 1.8 0.7 2.9 0.6 3 -1.8 1.5z"/>
  <path d="M206 234.5 c0 -0.3 0.2 -0.5 0.5 -0.5 0.3 0 0.5 0.2 0.5 0.5 0 0.3 -0.2 0.5 -0.5 0.5 -0.3 0 -0.5 -0.2 -0.5 -0.5z"/>
  <path d="M71 229.5 c0 -0.3 0.2 -0.5 0.5 -0.5 0.3 0 0.5 0.2 0.5 0.5 0 0.3 -0.2 0.5 -0.5 0.5 -0.3 0 -0.5 -0.2 -0.5 -0.5z"/>
  <path d="M200 227.5 c0 -0.3 0.2 -0.5 0.5 -0.5 0.3 0 0.5 0.2 0.5 0.5 0 0.3 -0.2 0.5 -0.5 0.5 -0.3 0 -0.5 -0.2 -0.5 -0.5z"/>
  <path d="M68 226.5 c0 -0.3 0.2 -0.5 0.5 -0.5 0.3 0 0.5 0.2 0.5 0.5 0 0.3 -0.2 0.5 -0.5 0.5 -0.3 0 -0.5 -0.2 -0.5 -0.5z"/>
  <path d="M88.5 224 l-7 -0.6 6.5 -0.2 c3.6 -0.1 7.2 0.3 8 0.8 0.8 0.5 1.1 0.9 0.5 0.8 -0.5 -0.1 -4.1 -0.4 -8 -0.8z"/>
  <path d="M99.3 221.3 c0.9 -0.2 2.3 -0.2 3 0 0.6 0.3 -0.1 0.5 -1.8 0.5 -1.6 0 -2.2 -0.2 -1.2 -0.5z"/>
  <path d="M79 220.4 c0 -0.9 10.5 -2.3 11.4 -1.5 0.6 0.5 2.5 1.1 4.1 1.3 1.7 0.2 -1.2 0.4 -6.2 0.4 -5.1 0 -9.3 -0.1 -9.3 -0.2z"/>
  <path d="M107 219.5 c0 -0.3 0.2 -0.5 0.5 -0.5 0.3 0 0.5 0.2 0.5 0.5 0 0.3 -0.2 0.5 -0.5 0.5 -0.3 0 -0.5 -0.2 -0.5 -0.5z"/>
  <path d="M162 218.3 c4.6 -2.3 26 -2.6 26.8 -0.4 0.4 1.1 -0.1 1.2 -1.9 0.7 -7.3 -2.2 -16.8 -1.9 -26.5 0.9 -1.1 0.3 -0.3 -0.3 1.6 -1.2z"/>
  <path d="M78.3 217.5 c0.4 -1.2 4.8 -2.2 10.4 -2.4 7.4 -0.2 5.5 1.5 -2.8 2.5 -5.3 0.6 -7.8 0.6 -7.6 -0.1z"/>
  <path d="M105 218.5 c0 -0.3 0.2 -0.5 0.5 -0.5 0.3 0 0.5 0.2 0.5 0.5 0 0.3 -0.2 0.5 -0.5 0.5 -0.3 0 -0.5 -0.2 -0.5 -0.5z"/>
  <path d="M99 217.5 c0 -0.3 0.2 -0.5 0.5 -0.5 0.3 0 0.5 0.2 0.5 0.5 0 0.3 -0.2 0.5 -0.5 0.5 -0.3 0 -0.5 -0.2 -0.5 -0.5z"/>
  <path d="M128 139.5 c0 -0.8 -0.7 -1.5 -1.6 -1.5 -0.9 0 -1.8 -0.9 -2.1 -2 -0.3 -1.1 -0.9 -2 -1.4 -2 -0.5 0 -0.9 -0.9 -0.9 -2 0 -1.1 -0.7 -2 -1.5 -2 -0.8 0 -1.5 -0.6 -1.5 -1.4 0 -0.8 -0.7 -1.6 -1.5 -2 -0.8 -0.3 -1.5 -1.2 -1.5 -2 0 -0.7 -0.7 -1.6 -1.5 -2 -0.8 -0.3 -1.5 -1.2 -1.5 -2.1 0 -0.8 -0.4 -1.5 -1 -1.5 -0.5 0 -1 -2.4 -1 -5.2 0 -4.2 0.5 -5.8 2.3 -7.4 3.2 -3 10.3 -6.5 12.1 -5.8 1.7 0.7 3 3.4 1.5 3.4 -0.6 0 -0.7 0.5 -0.3 1.1 0.4 0.6 0.9 0.7 1.3 0.2 1.2 -1.7 5.1 -1.3 5.1 0.6 0 1.2 -1.3 2.2 -4 3 -3.9 1.1 -4 1.3 -4 5.6 0 2.7 -0.5 4.5 -1.1 4.5 -0.8 0 -0.9 -1.3 -0.5 -3.9 0.4 -2.8 0.2 -4 -0.7 -4.4 -1 -0.4 -1.3 0.2 -0.9 2 0.3 1.5 -0.1 2.9 -0.9 3.5 -1.1 0.7 -1 1.2 0.9 2.5 1.2 0.8 2.2 2.2 2.2 2.9 0 0.8 0.5 1.4 1 1.4 0.6 0 1 0.9 1 2 0 1.1 0.7 2 1.5 2 0.8 0 1.5 0.6 1.5 1.4 0 0.8 0.7 1.6 1.5 2 0.8 0.3 1.5 1.3 1.5 2.1 0 0.9 0.5 1.3 1.1 1 0.6 -0.4 1.3 0.2 1.6 1.3 0.3 1.4 1 1.9 2.1 1.5 1 -0.4 1.3 -0.2 0.8 0.6 -1.7 2.7 -10.6 -1.3 -10.6 -4.8 0 -0.6 -0.4 -1.1 -0.9 -1.1 -0.5 0 -1.3 -0.9 -1.6 -2 -0.3 -1.1 -1.1 -2 -1.6 -2 -2 0 7.4 12 9.8 12.6 2.8 0.7 7.5 -3 7.1 -5.5 -0.2 -0.9 0.4 -1.6 1.2 -1.6 0.8 0 1.5 -0.8 1.5 -1.7 0 -0.9 0.4 -2 0.9 -2.5 0.5 -0.5 0.6 -0.2 0.2 0.7 -0.4 0.8 0.4 0.2 1.8 -1.5 l2.6 -3 0 3.2 c0 2.2 -0.7 3.7 -2 4.5 -1.1 0.7 -2 1.8 -2 2.5 0 0.7 -0.6 1.6 -1.3 2 -0.8 0.4 -1.6 1.6 -2 2.6 -0.9 2.3 -12.7 2.6 -12.7 0.2z m13 -6 c0 -0.3 -0.2 -0.5 -0.5 -0.5 -0.3 0 -0.5 0.2 -0.5 0.5 0 0.3 0.2 0.5 0.5 0.5 0.3 0 0.5 -0.2 0.5 -0.5z m-19 -7.9 c0 -0.2 -0.8 -1 -1.7 -1.7 -1.6 -1.3 -1.7 -1.2 -0.4 0.4 1.3 1.6 2.1 2.1 2.1 1.3z m-3 -4.5 c0 -0.5 -0.7 -1.2 -1.6 -1.5 -1.4 -0.5 -1.5 -0.4 -0.4 0.9 1.4 1.7 2 1.9 2 0.6z m-2.5 -4.1 c-0.3 -0.5 -1.1 -1 -1.6 -1 -0.6 0 -0.7 0.5 -0.4 1 0.3 0.6 1.1 1 1.6 1 0.6 0 0.7 -0.4 0.4 -1z m0.6 -3.9 c-1.2 -0.8 -1.2 -1.2 -0.2 -2.5 0.8 -0.9 0.9 -1.6 0.3 -1.6 -1.2 0 -2.4 2.9 -1.6 4.1 0.3 0.5 1.1 0.9 1.7 0.9 0.8 0 0.7 -0.4 -0.2 -0.9z m3.9 -4.6 c0 -0.3 -0.2 -0.5 -0.5 -0.5 -0.3 0 -0.5 0.2 -0.5 0.5 0 0.3 0.2 0.5 0.5 0.5 0.3 0 0.5 -0.2 0.5 -0.5z m2 -0.9 c0 -0.3 -0.5 -0.8 -1.2 -1.2 -0.7 -0.4 -0.8 -0.3 -0.4 0.4 0.7 1.2 1.6 1.6 1.6 0.8z m1.7 -2.3 c-0.4 -0.3 -0.7 0 -0.7 0.7 0 0.7 0.3 1 0.7 0.7 0.3 -0.4 0.3 -1 0 -1.4z"/>
  <path d="M137 129.8 c0.8 -0.7 2 -2.2 2.6 -3.3 0.6 -1.1 2.4 -2.2 3.9 -2.3 2.4 -0.3 2.7 -0.1 1.7 1.1 -0.6 0.7 -0.9 1.7 -0.5 2.1 0.4 0.4 -0.1 0.4 -1 0 -1 -0.4 -2.5 0 -3.5 0.8 -0.9 0.8 -2.4 1.8 -3.2 2.2 -1.3 0.7 -1.3 0.6 0 -0.6z"/>
  <path d="M148.9 122.6 c1.6 -1.9 0.1 -2.2 -1.8 -0.3 -1 1 -1.2 0.5 -0.9 -2.3 0.2 -2.7 0.8 -3.6 2.6 -3.8 2.5 -0.4 2.8 0.7 1 2.7 -1.1 1.1 -0.9 1.1 0.9 0.2 1.2 -0.6 2.4 -1.6 2.7 -2.3 0.3 -0.7 0.4 0.5 0.3 2.7 -0.2 3.6 -0.5 4 -3.1 4.3 -2.6 0.3 -2.8 0.2 -1.7 -1.2z"/>
  <path d="M148 111.4 c0 -2.7 1.4 -2.5 3 0.7 0.9 1.6 0.7 1.9 -1 1.9 -1.5 0 -2 -0.7 -2 -2.6z"/>
  <path d="M152.7 112 c-0.9 -1.1 -1.7 -2.3 -1.7 -2.7 0 -0.3 -0.8 -1.2 -1.7 -1.9 -1.6 -1.2 -1.4 -1.3 2 -1.4 3.7 0 3.7 0 3.7 4 0 2.2 -0.1 4 -0.3 4 -0.1 0 -1 -0.9 -2 -2z"/>
  <path d="M135 105.9 c0 -1.3 0.5 -1.9 1.3 -1.6 0.6 0.2 2.1 0.1 3.2 -0.4 1.7 -0.6 1.7 -0.8 0.3 -0.8 -3.4 -0.2 -1.8 -2.1 1.7 -2.1 2.9 0 3.5 0.4 3.5 2.1 0 1.1 -0.4 1.8 -0.9 1.5 -0.5 -0.4 -1.7 -0.3 -2.6 0 -1.4 0.6 -1.2 0.9 1.1 2 2.8 1.2 2.8 1.2 -2.3 1.3 -4.7 0.1 -5.3 -0.1 -5.3 -2z"/>
  <path d="M128.9 100.7 c0.7 -0.7 1.4 -0.8 2.1 -0.1 0.6 0.6 0.2 1 -1.2 1.1 -1.6 0.2 -1.8 -0.1 -0.9 -1z"/>
 </g>
 <g fill="#4d93a9">
  <path d="M334 190.5 c0 -0.3 0.2 -0.5 0.5 -0.5 0.3 0 0.5 0.2 0.5 0.5 0 0.3 -0.2 0.5 -0.5 0.5 -0.3 0 -0.5 -0.2 -0.5 -0.5z"/>
  <path d="M60 187.4 c0 -0.9 0.7 -1.4 1.7 -1.2 2.5 0.5 2.8 2.8 0.4 2.8 -1.2 0 -2.1 -0.6 -2.1 -1.6z"/>
  <path d="M204.2 187.8 c0.4 -1 7.1 -1.4 28.1 -1.6 24.2 -0.2 27.7 0 27.7 1.3 0 1.3 -3.7 1.5 -28.1 1.5 -22 0 -28 -0.3 -27.7 -1.2z"/>
  <path d="M293.6 187.5 c0.5 -1.2 3.3 -1.5 16.5 -1.5 13.5 0 15.9 0.2 15.9 1.5 0 1.3 -2.5 1.5 -16.5 1.5 -14.2 0 -16.4 -0.2 -15.9 -1.5z"/>
  <path d="M330 183.1 c-1 -2 -1.9 -2.1 -18.5 -2.1 -14.9 0 -17.5 -0.2 -17.5 -1.5 0 -1.3 2.6 -1.5 17.8 -1.5 l17.7 0 1.4 3.1 c1.5 3.5 0.8 5.1 -0.9 2z"/>
  <path d="M31.3 180.3 c0.4 -0.3 1 -0.3 1.4 0 0.3 0.4 0 0.7 -0.7 0.7 -0.7 0 -1 -0.3 -0.7 -0.7z"/>
  <path d="M205.7 180.3 c-0.4 -0.3 -0.7 -1 -0.7 -1.5 0 -0.4 14.9 -0.8 33 -0.8 28.7 0 33 0.2 33 1.5 0 1.3 -4.3 1.5 -32.3 1.5 -17.8 0 -32.7 -0.3 -33 -0.7z"/>
  <path d="M327.5 174.9 c-0.4 -0.6 -0.5 -1.2 -0.2 -1.5 0.2 -0.3 0.7 0.2 1 1.1 0.7 1.7 0.1 2 -0.8 0.4z"/>
  <path d="M227 173.5 c-1.7 -0.9 -5.6 -1.4 -11.8 -1.5 -7 0 -9.3 -0.3 -8.9 -1.2 0.4 -1.3 1 -1.4 9.5 -1.7 3.7 -0.1 4.3 -0.4 3 -1.2 -1 -0.5 -1.8 -1.5 -1.8 -2 0 -0.6 2.4 0.6 5.3 2.7 8 5.7 10.2 8.1 4.7 4.9z"/>
  <path d="M234.1 170.3 c0 -2.2 -0.6 -3.3 -1.6 -3.3 -0.9 0 -1.5 -0.9 -1.5 -2.5 0 -1.4 0.2 -2.5 0.5 -2.5 1.2 0 3.6 6.4 3.2 8.8 -0.4 2.4 -0.4 2.4 -0.6 -0.5z"/>
  <path d="M237 170.5 c0 -1.3 2.8 -1.5 20.6 -1.5 16 0 20.5 0.3 20.2 1.3 -0.4 0.9 -5.6 1.3 -20.6 1.5 -17.5 0.2 -20.2 0 -20.2 -1.3z"/>
  <path d="M293 170.5 c0 -1.3 2.2 -1.5 13.8 -1.5 13.9 0 18.2 0.5 18.2 2.1 0 0.5 -7.2 0.9 -16 0.9 -13.6 0 -16 -0.2 -16 -1.5z"/>
  <path d="M33.5 165.3 c0.5 -2.3 0.4 -2.6 -0.6 -1.5 -0.9 0.8 -4.5 1.2 -10.6 1.2 -7.7 0 -9.3 -0.3 -9.3 -1.5 0 -1.3 1.6 -1.5 10.8 -1.3 l10.7 0.3 0.3 2.8 c0.2 1.6 -0.2 2.7 -0.8 2.7 -0.8 0 -1 -0.9 -0.5 -2.7z"/>
  <path d="M323.7 165.5 c-0.5 -1.3 -3 -1.5 -15.7 -1.5 -9.3 0 -15 -0.4 -15 -1 0 -0.6 5.3 -1 13.9 -1 12.2 0 14.2 0.2 16.2 1.9 1.3 1.1 2.1 2.2 1.8 2.6 -0.4 0.3 -0.9 -0.1 -1.2 -1z"/>
  <path d="M214 165 c-0.8 -0.6 -2.7 -1 -4.2 -1 -2.1 0 -2.8 -0.5 -2.8 -1.9 0 -1.9 0.2 -1.9 3.8 -0.5 4 1.7 5.9 3.1 5.1 3.8 -0.2 0.3 -1.1 0.1 -1.9 -0.4z"/>
  <path d="M234 163 c0 -0.6 8.7 -1 24 -1 15.3 0 24 0.4 24 1 0 0.6 -8.7 1 -24 1 -15.3 0 -24 -0.4 -24 -1z"/>
  <path d="M226.2 158.8 c-0.7 -0.7 -1.2 -2.3 -1.2 -3.7 0 -2.4 0.1 -2.4 2.5 0.9 1.4 1.9 2.5 3.5 2.5 3.7 0 0.8 -2.7 0.2 -3.8 -0.9z"/>
  <path d="M321 158.5 c0 -0.3 0.2 -0.5 0.5 -0.5 0.3 0 0.5 0.2 0.5 0.5 0 0.3 -0.2 0.5 -0.5 0.5 -0.3 0 -0.5 -0.2 -0.5 -0.5z"/>
  <path d="M229 155.5 c-1.1 -1.3 1.9 -1.5 26.4 -1.5 23.9 0 27.6 0.2 27.6 1.5 0 2.3 -52.1 2.3 -54 0z"/>
  <path d="M293 155.5 c0 -1.3 1.7 -1.5 12.8 -1.3 16.7 0.4 16.5 2.2 -0.3 2.6 -10.8 0.2 -12.5 0 -12.5 -1.3z"/>
  <path d="M219 150.5 c-0.6 -0.8 -1 -2.1 -0.8 -3 0.2 -1.3 0.9 -1 3.2 1.4 2.7 2.9 2.8 3.1 0.9 3.1 -1.1 0 -2.6 -0.7 -3.3 -1.5z"/>
  <path d="M318 151 c0 -0.7 0.3 -1 0.7 -0.7 0.3 0.4 0.3 1 0 1.4 -0.4 0.3 -0.7 0 -0.7 -0.7z"/>
  <path d="M222 147.5 c-1.1 -1.3 -0.1 -1.5 8.4 -1.5 7.9 0 9.6 0.3 9.6 1.5 0 1.2 -1.6 1.5 -8.4 1.5 -6.2 0 -8.7 -0.4 -9.6 -1.5z"/>
  <path d="M245 147.5 c0 -1.3 2.8 -1.5 19.4 -1.5 16.3 0 19.5 0.2 20 1.5 0.5 1.3 -2.1 1.5 -19.4 1.5 -17.1 0 -20 -0.2 -20 -1.5z"/>
  <path d="M293 147.5 c0 -1.2 1.7 -1.5 9.3 -1.5 9.7 0 13.7 0.6 13.7 2.1 0 0.5 -5.2 0.9 -11.5 0.9 -9.6 0 -11.5 -0.3 -11.5 -1.5z"/>
  <path d="M211.4 142.5 c-1.2 -3 0.2 -3.5 2.5 -1.1 l2.4 2.6 -2.2 0 c-1.2 0 -2.4 -0.7 -2.7 -1.5z"/>
  <path d="M13.2 140 c0.3 -1.3 3.5 -1.5 20.7 -1.8 17.9 -0.2 20.2 -0.1 19.2 1.2 -1.9 2.3 -40.3 2.8 -39.9 0.6z"/>
  <path d="M54.5 140 c1 -1.1 2 -2 2.2 -2 0.1 0 0.3 0.9 0.3 2 0 1.4 -0.7 2 -2.2 2 -2 0 -2.1 -0.1 -0.3 -2z"/>
  <path d="M246.7 141.3 c-0.3 -0.5 -0.3 -1.3 0.1 -1.8 0.9 -1.3 39.2 -0.7 39.2 0.6 0 0.5 -7.4 0.9 -17.2 0.9 -9.5 0 -18.3 0.3 -19.4 0.6 -1.2 0.3 -2.4 0.2 -2.7 -0.3z"/>
  <path d="M214.5 140 c-0.4 -0.6 3.3 -1 10.4 -1 6.2 0 11.2 0.4 11.6 1 0.4 0.6 -3.3 1 -10.4 1 -6.2 0 -11.2 -0.4 -11.6 -1z"/>
  <path d="M293 140 c0 -0.6 4 -1 10 -1 6 0 10 0.4 10 1 0 0.6 -4 1 -10 1 -6 0 -10 -0.4 -10 -1z"/>
  <path d="M205 135.5 c0 -0.8 -0.4 -1.5 -0.9 -1.5 -0.7 0 -3.1 -5.1 -3.1 -6.7 0 -1 1.8 0.9 4.8 5.1 3.1 4.2 3.2 4.6 1.3 4.6 -1.2 0 -2.1 -0.7 -2.1 -1.5z"/>
  <path d="M312 135.5 c0 -0.3 0.2 -0.5 0.5 -0.5 0.3 0 0.5 0.2 0.5 0.5 0 0.3 -0.2 0.5 -0.5 0.5 -0.3 0 -0.5 -0.2 -0.5 -0.5z"/>
  <path d="M211 134.3 c-3.2 -0.5 -11.4 -12 -10.4 -14.6 0.9 -2.5 3.3 -2.1 4 0.8 0.3 1.4 1 2.5 1.5 2.5 0.5 0 0.9 0.6 0.9 1.4 0 0.8 0.7 1.6 1.5 2 0.8 0.3 1.5 1.2 1.5 2 0 1.7 2.1 2.6 6.1 2.6 3.5 0 4 2.5 0.7 3.4 -1.3 0.3 -2.5 0.5 -2.8 0.4 -0.3 0 -1.6 -0.3 -3 -0.5z"/>
  <path d="M231.8 134.3 c-3 -0.8 -2.1 -3.3 1 -3.3 3.4 0 4.3 0.7 3.5 2.6 -0.5 1.4 -1.4 1.5 -4.5 0.7z"/>
  <path d="M293.6 134.2 c-1.5 -1.4 -0.4 -3.2 1.9 -3.2 3 0 3.4 2.5 0.6 3.3 -1.1 0.3 -2.2 0.2 -2.5 -0.1z"/>
  <path d="M400.7 134.3 c-0.4 -0.3 -9.5 -0.5 -20.2 -0.4 -19.1 0.2 -19.5 0.2 -19.5 -1.8 0 -2 0.5 -2.1 17.4 -2.1 20.5 0 29.6 0.8 29.6 2.5 0 1.8 -5.9 3.3 -7.3 1.8z"/>
  <path d="M421.8 134.3 c-3.1 -0.8 -2.1 -3.3 1.2 -3.3 1.7 0 3 -0.4 3 -1 0 -0.5 0.6 -1 1.4 -1 0.8 0 1.6 -0.3 1.8 -0.8 0.4 -1.1 10.3 -7.2 11.6 -7.2 0.5 0 1.2 -0.6 1.4 -1.2 0.4 -1 6.1 -1.4 23.2 -1.5 l22.7 -0.2 -0.3 2.2 c-0.3 2.2 -0.4 2.2 -21.4 2.3 -19.6 0 -21.3 0.2 -24 2.1 -5.9 4.1 -16.6 10.3 -17.8 10.2 -0.6 -0.1 -1.9 -0.3 -2.8 -0.6z"/>
  <path d="M309 132 c0 -1.9 0.7 -2 19 -2 10.5 0 19 0.2 19 0.4 0 0.2 0.3 1.1 0.6 2 0.5 1.4 -1.5 1.6 -19 1.6 -18.9 0 -19.6 -0.1 -19.6 -2z"/>
 </g>
 <g fill="#579aad">
  <path d="M34 187.5 c0 -1.3 2.3 -1.5 14.4 -1.5 11.9 0 14.5 0.3 15 1.5 0.5 1.3 -1.5 1.5 -14.4 1.5 -12.7 0 -15 -0.2 -15 -1.5z"/>
  <path d="M204.8 187.3 c0.7 -0.3 1.6 -0.2 1.9 0.1 0.4 0.3 -0.2 0.6 -1.3 0.5 -1.1 0 -1.4 -0.3 -0.6 -0.6z"/>
  <path d="M217.3 187.3 c0.4 -0.3 1 -0.3 1.4 0 0.3 0.4 0 0.7 -0.7 0.7 -0.7 0 -1 -0.3 -0.7 -0.7z"/>
  <path d="M229.3 187.3 c0.4 -0.3 1 -0.3 1.4 0 0.3 0.4 0 0.7 -0.7 0.7 -0.7 0 -1 -0.3 -0.7 -0.7z"/>
  <path d="M234.3 187.3 c0.4 -0.3 1 -0.3 1.4 0 0.3 0.4 0 0.7 -0.7 0.7 -0.7 0 -1 -0.3 -0.7 -0.7z"/>
  <path d="M296.7 187.3 c1.8 -0.2 5 -0.2 7 0 2.1 0.2 0.7 0.4 -3.2 0.4 -3.8 0 -5.5 -0.2 -3.8 -0.4z"/>
  <path d="M309.3 187.3 c0.4 -0.3 1 -0.3 1.4 0 0.3 0.4 0 0.7 -0.7 0.7 -0.7 0 -1 -0.3 -0.7 -0.7z"/>
  <path d="M41.6 179.5 c2.8 -2.1 20.4 -2.1 20.4 0 0 1.2 -1.9 1.5 -11.2 1.5 -10 0 -11 -0.1 -9.2 -1.5z"/>
  <path d="M328.5 180 c-0.3 -0.5 -0.1 -1 0.4 -1 0.6 0 1.1 0.5 1.1 1 0 0.6 -0.2 1 -0.4 1 -0.3 0 -0.8 -0.4 -1.1 -1z"/>
  <path d="M304.8 179.3 c0.7 -0.3 1.6 -0.2 1.9 0.1 0.4 0.3 -0.2 0.6 -1.3 0.5 -1.1 0 -1.4 -0.3 -0.6 -0.6z"/>
  <path d="M320 179.5 c0 -0.3 0.2 -0.5 0.5 -0.5 0.3 0 0.5 0.2 0.5 0.5 0 0.3 -0.2 0.5 -0.5 0.5 -0.3 0 -0.5 -0.2 -0.5 -0.5z"/>
  <path d="M206 178.5 c0 -0.3 0.2 -0.5 0.5 -0.5 0.3 0 0.5 0.2 0.5 0.5 0 0.3 -0.2 0.5 -0.5 0.5 -0.3 0 -0.5 -0.2 -0.5 -0.5z"/>
  <path d="M32.2 170.5 c0 -1.6 0.2 -2.2 0.5 -1.2 0.2 0.9 0.2 2.3 0 3 -0.3 0.6 -0.5 -0.1 -0.5 -1.8z"/>
  <path d="M14 170.5 c0 -1.2 1.6 -1.5 8 -1.5 6.4 0 8 0.3 8 1.5 0 1.2 -1.6 1.5 -8 1.5 -6.4 0 -8 -0.3 -8 -1.5z"/>
  <path d="M56 170.5 c0 -0.9 0.9 -1.5 2.5 -1.5 1.6 0 2.5 0.6 2.5 1.5 0 0.9 -0.9 1.5 -2.5 1.5 -1.6 0 -2.5 -0.6 -2.5 -1.5z"/>
  <path d="M38 158 c0.6 -1.1 1.3 -2 1.5 -2 0.3 0 0.5 0.9 0.5 2 0 1.1 -0.7 2 -1.5 2 -1.3 0 -1.4 -0.4 -0.5 -2z"/>
  <path d="M14 155.5 c0 -1.3 2.1 -1.5 12.6 -1.5 11.1 0 12.5 0.2 11.4 1.5 -1 1.2 -3.7 1.5 -12.6 1.5 -9.5 0 -11.4 -0.3 -11.4 -1.5z"/>
  <path d="M294 155.5 c0 -0.3 0.2 -0.5 0.5 -0.5 0.3 0 0.5 0.2 0.5 0.5 0 0.3 -0.2 0.5 -0.5 0.5 -0.3 0 -0.5 -0.2 -0.5 -0.5z"/>
  <path d="M297 155.5 c0 -0.3 0.2 -0.5 0.5 -0.5 0.3 0 0.5 0.2 0.5 0.5 0 0.3 -0.2 0.5 -0.5 0.5 -0.3 0 -0.5 -0.2 -0.5 -0.5z"/>
  <path d="M299.3 155.3 c0.4 -0.3 1 -0.3 1.4 0 0.3 0.4 0 0.7 -0.7 0.7 -0.7 0 -1 -0.3 -0.7 -0.7z"/>
  <path d="M308 155.5 c0 -0.3 0.2 -0.5 0.5 -0.5 0.3 0 0.5 0.2 0.5 0.5 0 0.3 -0.2 0.5 -0.5 0.5 -0.3 0 -0.5 -0.2 -0.5 -0.5z"/>
  <path d="M310 155.5 c0 -0.3 0.2 -0.5 0.5 -0.5 0.3 0 0.5 0.2 0.5 0.5 0 0.3 -0.2 0.5 -0.5 0.5 -0.3 0 -0.5 -0.2 -0.5 -0.5z"/>
  <path d="M220 149.4 c0 -1.4 0.3 -1.4 1.5 -0.4 0.8 0.7 1.5 1.4 1.5 1.6 0 0.2 -0.7 0.4 -1.5 0.4 -0.8 0 -1.5 -0.7 -1.5 -1.6z"/>
  <path d="M46.5 148 c1 -1.1 2 -2 2.2 -2 0.1 0 0.3 0.9 0.3 2 0 1.4 -0.7 2 -2.2 2 -2 0 -2.1 -0.1 -0.3 -2z"/>
  <path d="M13 147.5 c0 -1.3 2.5 -1.5 16.6 -1.5 14.7 0 16.5 0.2 15.4 1.5 -1 1.2 -4.2 1.5 -16.6 1.5 -13 0 -15.4 -0.2 -15.4 -1.5z"/>
  <path d="M237 147.5 c0 -1.3 1 -1.5 5.5 -1.3 3 0.2 5.5 0.8 5.5 1.3 0 0.6 -2.5 1.1 -5.5 1.3 -4.5 0.2 -5.5 0 -5.5 -1.3z"/>
  <path d="M223 147.5 c0 -0.3 0.2 -0.5 0.5 -0.5 0.3 0 0.5 0.2 0.5 0.5 0 0.3 -0.2 0.5 -0.5 0.5 -0.3 0 -0.5 -0.2 -0.5 -0.5z"/>
  <path d="M294 147.5 c0 -0.3 0.2 -0.5 0.5 -0.5 0.3 0 0.5 0.2 0.5 0.5 0 0.3 -0.2 0.5 -0.5 0.5 -0.3 0 -0.5 -0.2 -0.5 -0.5z"/>
  <path d="M236 140.5 c0 -0.3 0.2 -0.5 0.5 -0.5 0.3 0 0.5 0.2 0.5 0.5 0 0.3 -0.2 0.5 -0.5 0.5 -0.3 0 -0.5 -0.2 -0.5 -0.5z"/>
  <path d="M202.5 131.4 c-2.2 -4.8 -1.4 -5.2 1.9 -1 3 4 3.1 4.6 1.2 4.6 -0.7 0 -2.1 -1.6 -3.1 -3.6z"/>
  <path d="M205.8 129.3 c-1.9 -2.7 -3.9 -5.6 -4.4 -6.5 -0.5 -0.9 -0.8 -11.4 -0.6 -23.3 l0.3 -21.6 25.7 0.3 c24.3 0.4 26 0.5 31.5 2.8 7.3 2.9 14.2 9.1 19.5 17.2 5.5 8.6 8.1 16.8 8.4 26.9 l0.3 8.4 -17.2 0.3 -17.1 0.2 -1.6 -5.3 c-0.9 -2.9 -2.4 -6.1 -3.4 -7 -2.5 -2.2 -9.1 -4.9 -10.3 -4.1 -0.6 0.3 -0.9 3.9 -0.8 8.2 l0.2 7.7 -13.5 0.3 -13.6 0.3 -3.4 -4.8z"/>
  <path d="M292.7 121.3 c-0.4 -7.1 -0.7 -19.7 -0.7 -28.1 l0 -15.2 17.6 0.2 c14.5 0.3 17.8 0.6 18.5 1.8 2.1 3.8 20.1 52.2 19.6 52.6 -0.1 0.1 -12.4 0.4 -27.3 0.8 l-27.1 0.6 -0.6 -12.7z"/>
  <path d="M380.9 133.3 l-19.7 -0.3 -0.7 -13.3 c-0.3 -7.2 -0.5 -19.5 -0.3 -27.2 l0.3 -14 63.1 -0.3 63.1 -0.2 0.7 3.1 c0.3 1.7 0.6 11.5 0.6 21.8 l0 18.6 -20.8 0.1 -20.8 0.1 -9.7 6.1 -9.8 6.2 -13.2 -0.2 c-7.3 -0.2 -22 -0.4 -32.8 -0.5z"/>
 </g>
 <g fill="#909090">
  <path d="M129.5 247.2 c-0.3 -0.8 -0.5 -2.4 -0.5 -3.6 0 -6.7 -10.8 -20 -18.6 -22.8 -4.4 -1.6 -4.5 -3.8 -0.1 -3.8 4.1 0 12.9 4.1 18.3 8.6 l4.3 3.4 6.5 -5 c6.8 -5.1 13.2 -7.6 22.4 -8.7 4.2 -0.5 5.2 -0.3 5.2 0.9 0 1 -2.1 2.1 -6 3.2 -11.1 3.1 -20.2 12.6 -22.2 23.2 l-1.1 6 -3.8 -0.1 c-2.3 0 -4.1 -0.6 -4.4 -1.3z"/>
  <path d="M75.1 213 c-1.7 -3.2 -4.3 -8.9 -5.6 -12.7 l-2.6 -6.8 4.1 4.3 c2.2 2.3 4.3 4.2 4.5 4.2 0.3 0 0.5 -1.2 0.6 -2.7 0 -1.6 0.3 -2.2 0.6 -1.5 0.2 0.6 1.1 1.2 1.8 1.2 0.9 0 1.5 1.9 1.8 5.8 0.3 3.1 0.9 7.3 1.2 9.3 0.6 3.1 0.4 3.7 -1.3 4.1 -1.7 0.5 -2.6 -0.5 -5.1 -5.2z"/>
  <path d="M185.4 217.6 c-0.3 -0.8 0 -3.1 0.6 -5.3 0.7 -2.1 1.4 -10.9 1.7 -19.5 0.4 -12.2 0.9 -15.8 1.9 -15.8 2 0 2.8 6.2 2.1 16.1 -0.4 4.9 -0.4 8.9 -0.1 8.9 0.4 0 2.4 -1.9 4.5 -4.2 l4 -4.3 -1.7 4 c-0.9 2.2 -2.2 5.7 -3 7.8 -2.1 6 -6.8 13.7 -8.2 13.7 -0.7 0 -1.5 -0.6 -1.8 -1.4z"/>
  <path d="M75.6 193.8 c-1.5 -5.8 -0.3 -14.8 2 -14.8 1.1 0 1.4 1.9 1.4 8.5 0 6.6 -0.3 8.5 -1.4 8.5 -0.7 0 -1.6 -1 -2 -2.2z"/>
  <path d="M60 188.1 c0 -1.8 1.8 -2.1 3 -0.6 1 1.3 0.9 1.5 -0.9 1.5 -1.1 0 -2.1 -0.4 -2.1 -0.9z"/>
  <path d="M40 180.5 c0 -0.3 0.2 -0.5 0.5 -0.5 0.3 0 0.5 0.2 0.5 0.5 0 0.3 -0.2 0.5 -0.5 0.5 -0.3 0 -0.5 -0.2 -0.5 -0.5z"/>
  <path d="M48.8 180.2 c-1 -0.2 -1.8 -0.8 -1.8 -1.3 0 -0.5 3.4 -0.9 7.5 -0.9 5.3 0 7.5 0.4 7.5 1.3 0 1.2 -9 1.8 -13.2 0.9z"/>
  <path d="M42.5 179 c0.3 -0.5 0.8 -1 1.1 -1 0.2 0 0.4 0.5 0.4 1 0 0.6 -0.5 1 -1.1 1 -0.5 0 -0.7 -0.4 -0.4 -1z"/>
  <path d="M76 175.1 c0 -6.8 5.6 -27.5 9.4 -34.9 3.6 -7 5.1 -0.8 1.6 7 -2.6 6 -7 22.5 -7 26.6 0 2.5 -0.4 3.2 -2 3.2 -1.3 0 -2 -0.7 -2 -1.9z"/>
  <path d="M187 173.3 c0 -1.6 -0.9 -6.5 -2 -11.1 -2.2 -9.2 -2.5 -13.2 -1 -13.2 1.9 0 5.2 10.9 6.6 21.8 0.6 4.9 0.5 5.2 -1.5 5.2 -1.6 0 -2.1 -0.6 -2.1 -2.7z"/>
  <path d="M37.4 174.1 c1.3 -2.1 17.4 -12.1 20.4 -12.7 2.8 -0.6 3.2 -0.4 3.2 1.5 0 1.8 -0.6 2.1 -4.4 2.1 -2.9 0 -5.2 0.7 -6.7 2 l-2.4 1.9 6 0.2 c3.3 0.1 6.3 0.1 6.8 0 0.4 0 0.7 0.6 0.7 1.4 0 1.2 -1.7 1.5 -9.3 1.5 -6.6 0 -9.9 0.4 -11.3 1.5 -2.1 1.6 -3.8 2 -3 0.6z"/>
  <path d="M228 174 c-0.8 -0.5 -1.2 -1.2 -0.9 -1.5 0.4 -0.3 1.2 0.1 1.9 1 1.4 1.7 1.1 1.9 -1 0.5z"/>
  <path d="M32.3 169.6 c0.9 -5.7 6.5 -13.5 19.6 -27.1 6.4 -6.6 12.4 -13.1 13.3 -14.5 1.7 -2.4 1.7 -2.3 0.2 2 -1.9 5.9 -2 5.9 -17.4 24.5 -17 20.6 -16.4 20 -15.7 15.1z"/>
  <path d="M227.3 164.4 c-4 -4.9 -11 -13.5 -15.6 -19.2 -7.1 -8.8 -11.6 -16.6 -10.3 -18 0.2 -0.2 1.4 1.2 2.7 3 1.3 1.8 7.3 8.5 13.4 14.9 12.1 12.7 17.8 21.1 17.3 25.5 -0.3 2.6 -0.8 2.2 -7.5 -6.2z"/>
  <path d="M215.8 166.2 c-1.5 -1 -3 -2.3 -3.3 -3.1 -0.5 -1.3 0.9 -0.6 7 3.6 2.9 1.9 -0.4 1.5 -3.7 -0.5z"/>
  <path d="M13.7 164.4 c-1.5 -1.5 -0.6 -2.4 2.3 -2.4 1.7 0 3 0.5 3 1 0 0.6 -0.4 1 -0.9 1 -0.5 0 -1.6 0.2 -2.3 0.5 -0.8 0.3 -1.7 0.2 -2.1 -0.1z"/>
  <path d="M30 163 c0 -0.5 0.9 -1 2.1 -1 1.1 0 1.7 0.5 1.4 1 -0.3 0.6 -1.3 1 -2.1 1 -0.8 0 -1.4 -0.4 -1.4 -1z"/>
  <path d="M35 155 c0 -0.5 0.9 -1 2.1 -1 1.1 0 1.7 0.5 1.4 1 -0.3 0.6 -1.3 1 -2.1 1 -0.8 0 -1.4 -0.4 -1.4 -1z"/>
  <path d="M178.2 142.7 c-1.2 -2.8 -2.2 -6 -2.2 -6.9 0 -1 -0.7 -1.8 -1.5 -1.8 -0.8 0 -1.5 -0.7 -1.5 -1.5 0 -0.8 -0.4 -1.5 -1 -1.5 -0.5 0 -1 -0.9 -1 -2 0 -1.1 -0.7 -2 -1.5 -2 -1 0 -1.5 -1.1 -1.5 -3.5 0 -3.3 -0.2 -3.5 -3.7 -3.7 -2.1 -0.1 -5.9 0 -8.5 0.1 l-4.7 0.3 1.5 -3.1 c1.5 -2.9 1.4 -3.4 -0.5 -6.6 l-2 -3.5 3.8 0 c2.6 0 5 -0.9 7.7 -2.8 5.2 -3.8 5.9 -4.8 7.4 -11.4 1.2 -5.2 1.1 -6.2 -0.5 -9.9 -4.4 -9.7 -15.1 -13.6 -21.3 -7.8 l-2.2 2 2 2.6 c2.5 3.1 2.8 10.3 0.5 10.3 -0.8 0 -1.5 -0.7 -1.5 -1.6 0 -1.2 -0.6 -1.5 -2.4 -1 -1.9 0.5 -2.6 0.1 -3.6 -2.4 -1.5 -3.6 -2.3 -3.7 -3.9 -0.7 -1.1 2 -1.1 2 -0.6 -0.8 0.9 -4.8 5.6 -10.8 10.5 -13.2 11.8 -6 25.1 1.1 28 15 1.9 9.5 -2.9 20.5 -10.5 24.2 -1.9 0.9 -3.5 1.8 -3.5 1.9 0 0.2 3.1 3.5 6.8 7.2 7 7.1 13.9 17.6 16.6 25.2 1.5 4.1 1.5 4.2 -0.7 4.2 -1.7 0 -2.7 -1.2 -4.5 -5.3z m-33.2 -58.2 c0 -0.3 -0.2 -0.5 -0.5 -0.5 -0.3 0 -0.5 0.2 -0.5 0.5 0 0.3 0.2 0.5 0.5 0.5 0.3 0 0.5 -0.2 0.5 -0.5z"/>
  <path d="M128.4 146 c-2.3 -0.9 -6.4 -5.4 -11.1 -12.2 -2.5 -3.7 -13.7 -12.8 -15.7 -12.8 -0.2 0 -0.6 1 -0.8 2.3 -0.2 1.2 -1.3 2.6 -2.5 3.2 -1.3 0.5 -2.3 1.8 -2.3 2.7 0 1 -0.4 1.8 -0.9 1.8 -0.5 0 -1.2 1.1 -1.5 2.5 -0.5 1.8 -1.3 2.5 -3.1 2.5 -1.4 0 -2.5 -0.4 -2.5 -0.8 0 -1.6 6.2 -10.4 10.6 -15.2 l4.5 -4.8 -3 -4.2 c-4.7 -6.5 -6.6 -13.2 -6.5 -23.5 0.3 -36.8 34.3 -41.6 39.4 -5.6 0.6 4.1 0.8 7.6 0.5 7.9 -0.3 0.3 -0.5 -0.5 -0.5 -1.7 0 -2 -0.4 -2.2 -2.8 -1.6 -2.5 0.5 -2.9 0.2 -4.1 -3.1 l-1.4 -3.7 -1.3 2.4 c-0.7 1.3 -1.3 5.2 -1.4 8.7 0 5.5 0.3 6.6 2.6 8.9 2.5 2.5 2.6 2.7 0.8 4 -2.5 1.8 -3.1 1.7 -5 -1.2 -1.8 -2.8 -3 -13.5 -2 -18.8 0.8 -4.3 3.7 -7.7 6.5 -7.7 1.1 0 2.1 -0.6 2.1 -1.4 0 -2.5 -6.4 -10 -10.3 -12.1 -3.4 -1.9 -3.8 -1.9 -6.4 -0.4 -7.9 4.7 -14.2 18.8 -13 28.9 1.2 10.4 7.9 21 14.3 22.6 1.3 0.3 2.4 1 2.4 1.5 0 0.5 3.7 6.1 8.2 12.5 11.3 15.8 11.9 15.8 21.9 1.8 2.9 -4.1 5.7 -7.4 6.2 -7.4 0.5 0 0.7 2.2 0.5 4.9 -0.6 5.9 -6.7 16.5 -10.8 18.6 -3.1 1.6 -8.3 1.9 -11.6 0.5z"/>
  <path d="M48.5 140 c0.3 -0.5 1.5 -1 2.6 -1 1.1 0 1.7 0.5 1.4 1 -0.3 0.6 -1.5 1 -2.6 1 -1.1 0 -1.7 -0.4 -1.4 -1z"/>
  <path d="M129.3 134.8 c-3.8 -4.2 -13.3 -18 -13.3 -19.4 0 -3 2 -1 9.5 9.6 4.3 6 8.2 10.7 8.7 10.4 0.4 -0.3 0.8 0 0.8 0.5 0 1.9 -3.6 1.2 -5.7 -1.1z"/>
  <path d="M208.5 133 c-0.3 -0.5 -0.1 -1 0.4 -1 0.6 0 1.1 0.5 1.1 1 0 0.6 -0.2 1 -0.4 1 -0.3 0 -0.8 -0.4 -1.1 -1z"/>
  <path d="M142.2 125 c2.6 -3.6 6 -4.4 3.6 -0.8 -0.8 1.1 -2.4 2.5 -3.6 2.9 l-2.2 0.8 2.2 -2.9z"/>
  <path d="M150.1 114.5 c0 -3.1 0.2 -3.6 0.9 -2.3 0.6 1 0.7 2.5 0.1 4 -0.9 2 -1 1.8 -1 -1.7z"/>
  <path d="M133 105 c-2.4 -0.8 -2.4 -0.8 0.5 -0.8 1.7 0 3.9 0.3 5 0.8 1.8 0.8 1.8 0.9 -0.5 0.8 -1.4 0 -3.6 -0.4 -5 -0.8z"/>
  <path d="M140 103.3 c-1.6 -0.7 -3.9 -3.3 -4 -4.6 0 -0.5 0.7 -0.1 1.6 0.7 2.9 2.9 6.8 1 8 -4 0.9 -3.7 3.4 -3 3.4 0.9 0 5.7 -4.1 8.9 -9 7z"/>
  <path d="M129.9 99.6 c1.1 -1.2 2.1 -2.8 2.1 -3.6 0 -0.7 0.2 -1.1 0.5 -0.8 0.3 0.3 0.2 1.8 -0.1 3.4 -0.4 2.1 -1.2 3 -2.6 3.1 -2 0.2 -2 0.2 0.1 -2.1z"/>
  <path d="M127 99.5 c0 -0.3 0.2 -0.5 0.5 -0.5 0.3 0 0.5 0.2 0.5 0.5 0 0.3 -0.2 0.5 -0.5 0.5 -0.3 0 -0.5 -0.2 -0.5 -0.5z"/>
  <path d="M125 98.5 c0 -0.3 0.2 -0.5 0.5 -0.5 0.3 0 0.5 0.2 0.5 0.5 0 0.3 -0.2 0.5 -0.5 0.5 -0.3 0 -0.5 -0.2 -0.5 -0.5z"/>
  <path d="M139.3 98.3 c0.4 -0.3 1 -0.3 1.4 0 0.3 0.4 0 0.7 -0.7 0.7 -0.7 0 -1 -0.3 -0.7 -0.7z"/>
  <path d="M173.4 65.9 c-9 -9.6 -23.7 -10.3 -34 -1.6 l-3 2.6 -1.9 -3.2 c-4.2 -7.5 -11.9 -13.6 -19.2 -15.1 -6.6 -1.5 -16.2 3.1 -21.7 10.2 l-2.8 3.7 0.5 -5 c2.1 -19.1 18.2 -35.6 37.3 -38.2 4 -0.5 4.4 -0.4 4.4 1.6 0 1.6 -0.6 2.1 -2.6 2.1 -2.9 0 -15.7 4.9 -16.2 6.2 -0.2 0.4 -1 0.8 -1.7 0.8 -0.7 0 -1.5 0.7 -1.9 1.5 -0.3 0.8 -1.7 1.5 -3.1 1.5 -2 0 -2.5 0.5 -2.5 2.5 0 1.4 -0.7 2.8 -1.5 3.1 -0.8 0.4 -1.5 1.2 -1.5 2 0 0.8 -0.4 1.4 -0.8 1.4 -0.4 0 -1.3 1.4 -1.9 3 -1 2.7 -0.9 3 0.7 3 1 0 2 -0.5 2.2 -1.2 0.3 -0.8 3.3 -1.4 8.2 -1.6 8.9 -0.5 14.8 1.3 20.1 5.9 l3.3 2.9 19.6 -0.2 19.5 -0.3 -2.7 -6 c-1.4 -3.3 -3 -6.1 -3.4 -6.3 -0.5 -0.2 -0.8 -1.1 -0.8 -2 0 -1 -1 -2.2 -2.2 -2.7 -1.3 -0.6 -2.7 -2 -3.3 -3.2 -0.5 -1.3 -1.8 -2.3 -2.7 -2.3 -1.3 0 -1.8 -0.8 -1.8 -3.1 l0 -3 4.6 3.3 c5.7 4 11.7 12.2 14.4 19.6 2.3 6 3.9 21.2 2.3 21.2 -0.5 0 -2.2 -1.4 -3.9 -3.1z"/>
  <path d="M142 65.6 c0 -1 7.4 -4.3 11.2 -5 4.5 -0.8 11.5 0.8 14.8 3.5 1.9 1.6 2 1.9 0.6 1.5 -2.6 -0.9 -22.7 -0.9 -24.9 0 -0.9 0.3 -1.7 0.3 -1.7 0z"/>
  <path d="M99 56.6 c3.5 -3.9 7.3 -5.7 12.4 -5.8 5.9 -0.1 10.7 1.7 14.1 5.2 3.4 3.5 2.4 3.8 -3.6 1 -2.6 -1.1 -6.5 -1.9 -9.4 -1.9 -4.5 0 -6.8 0.6 -14 3.4 -1.7 0.7 -1.7 0.5 0.5 -1.9z"/>
  <path d="M147 25.1 c0 -0.5 -2.7 -1.2 -6 -1.6 -5 -0.6 -6 -1 -6 -2.6 0 -2.6 3.7 -2.5 11.9 0.4 7.5 2.5 9.1 4.7 3.7 4.7 -2 0 -3.6 -0.4 -3.6 -0.9z"/>
 </g>
 <g fill="#e9cf06">
  <path d="M73.3 253.3 c-1.2 -0.2 -2.7 -1.1 -3.3 -1.9 -0.7 -0.8 -2 -1.4 -3 -1.4 -1 0 -2.3 -0.6 -2.9 -1.4 -1 -1.1 -0.8 -1.7 0.6 -2.5 1 -0.6 1.2 -1.1 0.6 -1.1 -1.8 0 -1.6 -4.5 0.2 -6 0.8 -0.7 1.5 -1.7 1.5 -2.3 0 -2.8 5.6 -8.8 10.3 -11.2 14.4 -7.1 31.7 1.5 31.7 15.7 0 6 -2.1 7.3 -15 9.6 -14.4 2.6 -17.9 3 -20.7 2.5z m21.3 -25 c-3.2 -1.7 -11.9 -1.4 -13.9 0.6 -0.8 0.8 1.1 1.1 7.9 1.1 8.7 -0.1 8.8 -0.1 6 -1.7z"/>
  <path d="M186 253 c-22.4 -2.5 -20.9 -1.9 -22.9 -8.2 -1.6 -4.7 0 -11.2 3.7 -15.2 5.2 -5.6 16.2 -8.8 16.2 -4.7 0 1.4 -1 2.1 -3.5 2.5 -6.7 1.3 -4.8 2.6 3.7 2.6 7.5 -0.1 8.1 -0.2 6.4 -1.5 -1.1 -0.8 -2.8 -1.5 -3.8 -1.5 -1.1 0 -1.8 -0.7 -1.8 -2 0 -2.7 3.7 -2.6 9.6 0.2 5.3 2.4 10 8.3 11 13.5 0.8 4.5 -1.3 10.9 -4.4 13.4 -2.6 2 -3.5 2 -14.2 0.9z"/>
  <path d="M129.3 134.8 c-3.8 -4.2 -13.3 -18 -13.3 -19.4 0 -2.2 1.7 -1.6 3.8 1.3 2.4 3.2 2.7 3.1 3.6 -1.8 0.5 -3.1 0.3 -3.7 -1.6 -4.6 -2.2 -1 -2.1 -1.2 2.5 -3.3 7.3 -3.3 10.5 -3.4 17.1 -0.9 7.4 2.7 11 6 10 9.2 -0.8 2.7 -7.3 11.7 -8.4 11.7 -0.4 0 -2.7 1.2 -4.9 2.7 -3.3 2.2 -4 3 -3.5 5 0.8 3.1 -2.5 3.2 -5.3 0.1z"/>
  <path d="M147.6 126.3 c0.7 -3.1 5 -9.3 6.4 -9.3 0.5 0 0.7 0.8 0.3 1.8 -0.7 1.8 -6.4 10.2 -7 10.2 -0.2 0 0 -1.2 0.3 -2.7z"/>
  <path d="M113.3 114.5 c0 -2.2 0.2 -3 0.4 -1.7 0.2 1.2 0.2 3 0 4 -0.3 0.9 -0.5 -0.1 -0.4 -2.3z"/>
  <path d="M151.5 109.5 c-0.6 -0.8 -3.7 -2.8 -7 -4.5 -3.4 -1.6 -5.1 -3 -4 -3 2.5 0 12 4.4 13 6 1.1 1.8 -0.9 3.2 -2 1.5z"/>
  <path d="M117 107 c0 -1.2 8.9 -5.5 9.7 -4.7 0.3 0.3 -1.8 1.7 -4.6 3.1 -2.8 1.5 -5.1 2.2 -5.1 1.6z"/>
 </g>
 <g fill="#5fa7bb">
  <path d="M32.6 187.5 c0.5 -1.1 1.7 -1.4 4.8 -1 2.2 0.2 4.7 0.4 5.4 0.4 0.6 0.1 1.2 0.6 1.2 1.1 0 0.6 -2.7 1 -6 1 -4.8 0 -5.8 -0.3 -5.4 -1.5z"/>
  <path d="M58 188 c0 -0.5 0.7 -1 1.5 -1 0.8 0 1.8 0 2.2 -0.1 0.4 0 0.9 0.4 1.1 1 0.2 0.6 -0.8 1.1 -2.2 1.1 -1.4 0 -2.6 -0.4 -2.6 -1z"/>
  <path d="M328 179.5 c0 -0.3 0.2 -0.5 0.5 -0.5 0.3 0 0.5 0.2 0.5 0.5 0 0.3 -0.2 0.5 -0.5 0.5 -0.3 0 -0.5 -0.2 -0.5 -0.5z"/>
  <path d="M25 171 c0 -0.5 0.7 -1 1.5 -1 0.8 0 1.8 0 2.2 -0.1 0.4 0 0.9 0.4 1.1 1 0.2 0.6 -0.8 1.1 -2.2 1.1 -1.4 0 -2.6 -0.4 -2.6 -1z"/>
  <path d="M13 147.6 c0 -0.9 0.7 -1.2 2 -0.9 1.1 0.3 2 0.9 2 1.4 0 0.5 -0.9 0.9 -2 0.9 -1.1 0 -2 -0.6 -2 -1.4z"/>
  <path d="M236.2 147.8 c0.6 -1.8 11.8 -2 11.8 -0.2 0 1 -1.6 1.4 -6.1 1.4 -4.3 0 -5.9 -0.4 -5.7 -1.2z"/>
  <path d="M247 140 c0 -0.5 0.9 -1 2 -1 1.1 0 2 0.5 2 1 0 0.6 -0.9 1 -2 1 -1.1 0 -2 -0.4 -2 -1z"/>
  <path d="M206 135.5 c-2 -2.4 -0.6 -2.8 1.5 -0.5 1 1.1 1.3 2 0.8 2 -0.6 0 -1.6 -0.7 -2.3 -1.5z"/>
  <path d="M208.5 133.1 c-0.3 -0.6 5 -1.1 13.6 -1.3 13.2 -0.3 15.8 0 14.2 1.6 -1 1 -27.1 0.7 -27.8 -0.3z"/>
  <path d="M252 133 c0 -0.6 6.3 -1 17 -1 10.7 0 17 0.4 17 1 0 0.6 -6.3 1 -17 1 -10.7 0 -17 -0.4 -17 -1z"/>
  <path d="M293 133 c0 -0.6 3.7 -1 9 -1 5.3 0 9 0.4 9 1 0 0.6 -3.7 1 -9 1 -5.3 0 -9 -0.4 -9 -1z"/>
  <path d="M398.8 133.3 c-1.7 -0.4 -1.8 -2.6 -1.8 -27.9 0 -26.7 0 -27.4 2 -27.4 2 0 2 0.7 2 28 0 15.4 -0.1 27.9 -0.2 27.9 -0.2 -0.1 -1.1 -0.3 -2 -0.6z"/>
  <path d="M487.4 102 c0 -11.3 0.2 -15.9 0.3 -10.2 0.2 5.6 0.2 14.8 0 20.5 -0.1 5.6 -0.3 1 -0.3 -10.3z"/>
 </g>
 <g fill="#989898">
  <path d="M126.4 229.1 c-5.9 -4.6 -10.9 -7.2 -18.6 -9.6 -3.7 -1.1 -5.8 -2.3 -5.8 -3.3 0 -1.2 1 -1.4 5.5 -0.8 7.6 0.9 14.7 3.7 20.8 8.4 l5.3 3.9 3.9 -3.4 c7.5 -6.4 18.2 -10.3 28.4 -10.3 7.4 0 7 2.5 -0.6 4 -11.4 2.2 -16.2 4.1 -22.1 8.4 -3.3 2.4 -6.3 4.9 -6.6 5.5 -1.4 2.1 -5.4 1 -10.2 -2.8z"/>
  <path d="M182.8 217.8 c-4.6 -1.2 -5.1 -3.8 -0.9 -3.8 2.4 0 3.1 -0.6 4 -3.1 0.6 -1.8 1.1 -5.4 1.1 -8 0 -4.3 0.2 -4.9 2.1 -4.9 2.1 0 2.1 0.3 1.5 6.8 -0.8 7.7 -2.4 14.2 -3.4 14.1 -0.4 -0.1 -2.4 -0.6 -4.4 -1.1z"/>
  <path d="M78.4 216.8 c-0.4 -0.7 -0.9 -2.1 -1 -3.3 -1.6 -15.2 -1.5 -15.5 0.4 -15.5 1.6 0 2 1 2.5 7 0.3 3.9 0.9 7.5 1.2 8 0.3 0.6 2.2 1 4.1 1 2.2 0 3.4 0.5 3.4 1.4 0 2.5 -9.2 3.7 -10.6 1.4z m0.6 -1.3 c0 -0.3 -0.2 -0.5 -0.5 -0.5 -0.3 0 -0.5 0.2 -0.5 0.5 0 0.3 0.2 0.5 0.5 0.5 0.3 0 0.5 -0.2 0.5 -0.5z"/>
  <path d="M76 176.8 c0 -3 1.3 -5.8 2.6 -5.8 0.9 0 1.4 1.2 1.4 3.5 0 2.8 -0.4 3.5 -2 3.5 -1.1 0 -2 -0.6 -2 -1.2z"/>
  <path d="M187 175.3 c0 -1 -0.3 -4.2 -0.6 -7 -0.6 -4.4 -0.4 -5.3 0.9 -5.3 1.5 0 2 1.2 3.2 9.8 0.6 3.8 0.5 4.2 -1.4 4.2 -1.3 0 -2.1 -0.6 -2.1 -1.7z"/>
  <path d="M49 171 c0 -1 1.1 -1.3 6 -1.3 4.9 0 6 0.3 6 1.3 0 0.6 -2.7 1 -6 1 -3.3 0 -6 -0.4 -6 -1z"/>
  <path d="M32 169.7 c0 -3.7 9.3 -16.2 19 -25.7 4.2 -4.1 9.1 -9.3 10.9 -11.5 1.7 -2.2 3.1 -3.4 3.1 -2.8 0 0.6 -3.5 5.3 -7.7 10.4 -4.3 5.1 -11.3 13.6 -15.6 18.8 -9.1 11.1 -9.7 11.8 -9.7 10.8z"/>
  <path d="M77 168.8 c0 -3 1.3 -5.8 2.6 -5.8 0.9 0 1.4 1.2 1.4 3.5 0 2.8 -0.4 3.5 -2 3.5 -1.1 0 -2 -0.6 -2 -1.2z"/>
  <path d="M228.3 162.2 c-3.4 -4.2 -10.7 -13.1 -16.2 -19.7 -5.5 -6.6 -10.1 -12.4 -10.1 -13 0 -0.5 1.7 1 3.7 3.5 2 2.5 7.2 7.9 11.5 12.1 4.3 4.2 7.8 8.4 7.8 9.3 0 0.9 0.6 1.6 1.3 1.6 0.7 0 2.7 2.4 4.4 5.3 3.2 5.1 4.9 8.7 4.2 8.7 -0.2 0 -3.2 -3.5 -6.6 -7.8z"/>
  <path d="M57 163.6 c0 -0.9 3 -1.4 3.5 -0.6 0.4 0.6 -0.3 1 -1.4 1 -1.2 0 -2.1 -0.2 -2.1 -0.4z"/>
  <path d="M13 155.5 c0 -1 1.1 -1.5 3.5 -1.5 3.9 0 4.7 1.4 1.3 2.4 -3.6 0.9 -4.8 0.7 -4.8 -0.9z"/>
  <path d="M182.2 153.1 c-1.5 -4.8 -1.5 -9.1 -0.1 -9.1 1.1 0 3.7 5.5 4.6 10.1 0.5 2.4 0.2 2.9 -1.4 2.9 -1.4 0 -2.3 -1.1 -3.1 -3.9z"/>
  <path d="M41 148 c2 -1.3 4.3 -1.3 3.5 0 -0.3 0.6 -1.6 1 -2.8 1 -1.8 0 -1.9 -0.2 -0.7 -1z"/>
  <path d="M123.8 143.2 c-1.9 -2.1 -4.9 -5.9 -6.6 -8.5 -3.2 -4.5 -15.2 -13.9 -15.2 -11.7 0 0.5 -1.4 1 -3 1 -3 0 -3 0 -1.4 -2.5 3.3 -5.1 4.9 -5.1 12.5 0 4.2 2.7 8.3 6.5 10.2 9.2 8.1 11.7 11.8 14.3 16.7 11.8 3.2 -1.7 9.7 -11.6 10.6 -16.5 1.4 -6.8 11.9 -13.3 16 -9.9 1.8 1.5 1.8 2.9 -0.1 2.9 -0.8 0 -3.2 0.7 -5.4 1.6 -3 1.2 -4.2 2.4 -5.6 5.7 -3.5 8.6 -8.1 16.9 -10.4 18.8 -1.8 1.4 -4 1.9 -8.6 1.9 -6 0 -6.4 -0.2 -9.7 -3.8z"/>
  <path d="M51 140.5 c0 -0.3 0.2 -0.5 0.5 -0.5 0.3 0 0.5 0.2 0.5 0.5 0 0.3 -0.2 0.5 -0.5 0.5 -0.3 0 -0.5 -0.2 -0.5 -0.5z"/>
  <path d="M167 122.4 c0 -3.9 0.9 -3.8 4 0.6 l2.1 3 -3 0 c-2.9 0 -3.1 -0.3 -3.1 -3.6z"/>
  <path d="M108.5 116.5 c-3.8 -1.4 -9.5 -6.4 -9.5 -8.5 0 -0.6 1 -1 2.3 -1 2.4 0 6.7 4 6.7 6.3 0 0.9 1 1.2 3 0.9 2.5 -0.4 3 -0.1 3 1.7 0 2.4 -0.2 2.5 -5.5 0.6z"/>
  <path d="M148.3 116.5 c0.9 -0.8 1.3 -2.5 1 -3.7 -0.4 -2 -0.3 -2.1 0.7 -0.6 1.2 1.9 -0.2 5.8 -2.1 5.8 -0.6 0 -0.4 -0.7 0.4 -1.5z"/>
  <path d="M150.8 108.8 c-1.7 -1.7 -1.7 -1.8 0.8 -1.8 3.5 0 10.4 -2.1 10.4 -3.2 0 -0.4 0.9 -0.8 1.9 -0.8 1.5 0 2.1 -1 2.6 -4.1 0.4 -2.3 1.4 -5.7 2.1 -7.5 0.8 -1.8 1.4 -4.5 1.4 -5.9 0 -3.4 2.7 -3.2 3.4 0.3 0.7 3.1 -2.3 15.2 -4.3 17.6 -4.8 5.8 -15 8.8 -18.3 5.4z"/>
  <path d="M140.2 103.1 c-1.1 -0.7 -1 -1 0.3 -1.5 2.3 -0.9 2.5 -0.8 2.5 0.9 0 1.7 -0.9 1.9 -2.8 0.6z"/>
  <path d="M94.6 96.8 c-1 -3.8 -0.7 -4.8 1.4 -4.8 1.6 0 2 0.7 2 3.5 0 4 -2.4 4.9 -3.4 1.3z"/>
  <path d="M118 94.5 c0 -4 2.4 -4.9 3.4 -1.2 1 3.7 0.7 4.7 -1.4 4.7 -1.6 0 -2 -0.7 -2 -3.5z"/>
  <path d="M146 91 c0 -3.3 0.3 -4 2 -4 1.7 0 2 0.7 2 4 0 3.3 -0.3 4 -2 4 -1.7 0 -2 -0.7 -2 -4z"/>
  <path d="M127.1 84.4 c-1.5 -3.3 -1.4 -4.4 0.4 -4.4 1.4 0 3.5 2.9 3.5 4.8 0 2.2 -2.8 1.9 -3.9 -0.4z"/>
  <path d="M94 82.8 c0 -3 1.3 -5.8 2.6 -5.8 0.9 0 1.4 1.2 1.4 3.5 0 2.8 -0.4 3.5 -2 3.5 -1.1 0 -2 -0.6 -2 -1.2z"/>
  <path d="M130.7 81.4 c-1 -1.3 -2.7 -2.4 -3.7 -2.4 -1.1 0 -2 -0.4 -2 -1 0 -0.5 1.5 -1 3.4 -1 3 0 3.4 0.4 4 3.2 0.8 4 0.5 4.2 -1.7 1.2z"/>
  <path d="M139 83 c0 -0.5 0.6 -1 1.4 -1 0.8 0 1.8 0.5 2.1 1 0.3 0.6 -0.3 1 -1.4 1 -1.2 0 -2.1 -0.4 -2.1 -1z"/>
  <path d="M136 82.5 c0 -0.3 0.2 -0.5 0.5 -0.5 0.3 0 0.5 0.2 0.5 0.5 0 0.3 -0.2 0.5 -0.5 0.5 -0.3 0 -0.5 -0.2 -0.5 -0.5z"/>
  <path d="M142.6 81.4 c-1.1 -0.8 -2.9 -1.1 -3.9 -0.8 -1.5 0.5 -1.7 0.3 -1.1 -0.9 2.9 -4.8 9.8 -10.7 12.7 -10.7 2 0 0.4 5.3 -2.2 7.6 -1.6 1.4 -3.1 3.3 -3.3 4.4 -0.3 1.7 -0.5 1.7 -2.2 0.4z"/>
  <path d="M166 77 c0 -2.8 -0.3 -3 -3.5 -3 -3 0 -3.5 -0.3 -3.5 -2.4 0 -3.3 3 -2.4 8.1 2.4 4.5 4.3 4.9 6 1.4 6 -2.1 0 -2.5 -0.5 -2.5 -3z"/>
  <path d="M96.7 72.3 c1.9 -5.4 10.4 -14.3 13.5 -14.3 1.1 0 1.8 0.8 1.8 2 0 1.6 -0.7 2 -3.5 2 -3.3 0 -3.5 0.2 -3.5 3.5 0 2.8 -0.4 3.5 -2 3.5 -1.5 0 -2 0.7 -2 2.5 0 2 -0.5 2.5 -2.5 2.5 -1.9 0 -2.3 -0.4 -1.8 -1.7z"/>
  <path d="M125.6 72.4 c-0.9 -2.2 -0.7 -7.4 0.2 -7.4 0.9 0 2.9 3.2 4.2 6.6 0.8 2.1 0.7 2.4 -1.4 2.4 -1.3 0 -2.7 -0.7 -3 -1.6z"/>
  <path d="M150 62 c0.8 -0.5 3.8 -1 6.5 -1 2.8 0 5.7 0.5 6.5 1 1 0.7 -1 1 -6.5 1 -5.5 0 -7.5 -0.3 -6.5 -1z"/>
  <path d="M92 56.2 c0 -3.8 1.1 -5.2 4.1 -5.2 2.2 0 2.9 -0.5 2.9 -1.9 0 -1.2 1.1 -2.3 3.1 -3 4.6 -1.6 8.9 -1.4 8.9 0.4 0 0.8 -0.6 1.5 -1.2 1.5 -2.1 0 -11 4.7 -14.5 7.6 -3.1 2.5 -3.3 2.5 -3.3 0.6z"/>
  <path d="M127.7 54.3 c-1.9 -1.7 -5.8 -4 -8.6 -5 -5.9 -2.1 -6.8 -4.3 -1.6 -4.3 1.9 0 3.5 0.5 3.5 1 0 0.6 1.1 1 2.5 1 1.9 0 2.5 0.5 2.5 2.3 l0 2.2 23 -0.3 c22.1 -0.3 23 -0.3 23 -2.2 0 -1.1 0.6 -2 1.4 -2 0.9 0 1.8 1.9 2.5 5 0.6 2.8 1.1 5.2 1.1 5.3 0 0.1 -10.3 0.2 -22.9 0.2 l-23 0 -3.4 -3.2z"/>
  <path d="M105.5 52.5 c4 -1.9 6.5 -1.8 6.5 0 0 1.1 -1.2 1.5 -4.7 1.4 l-4.8 -0.1 3 -1.3z"/>
  <path d="M113 52.4 c0 -1.3 0.7 -1.5 3.2 -1 5.2 1 5.8 2.6 1 2.6 -3.2 0 -4.2 -0.4 -4.2 -1.6z"/>
  <path d="M94.3 46.8 c1.9 -4.6 3.7 -4.8 3.7 -0.4 0 3.2 -0.3 3.6 -2.5 3.6 -2.4 0 -2.5 -0.1 -1.2 -3.2z"/>
  <path d="M102 34 c3.1 -4.4 4 -4.5 4 -0.6 0 3.3 -0.2 3.6 -3.1 3.6 l-3 0 2.1 -3z"/>
  <path d="M153 26.5 c0 -3.1 1.1 -3.2 4.7 0 l2.8 2.4 -3.7 0.1 c-3.4 0 -3.8 -0.3 -3.8 -2.5z"/>
  <path d="M121 22.7 c0 -1.5 1 -1.9 9.3 -3.3 5 -0.8 10.7 0.3 10.7 2.1 0 1.1 -1.3 1.5 -4.7 1.5 -2.7 0 -7.2 0.3 -10 0.6 -4.4 0.6 -5.3 0.4 -5.3 -0.9z"/>
 </g>
 <g fill="#a3a3a3">
  <path d="M125.7 227.1 c-3.7 -2.7 -8.9 -5.7 -11.5 -6.5 -7.7 -2.5 -19.2 -3.9 -27.3 -3.3 l-7.7 0.6 -1 -4.2 c-0.6 -2.3 -1.4 -7.5 -1.7 -11.4 -0.6 -6.9 -0.5 -7.3 1.4 -7.3 1.8 0 2.1 0.6 2.1 3.8 0 2 0.3 5.4 0.6 7.5 0.6 3.4 0.9 3.7 4 3.7 1.8 0 3.6 0.5 3.9 1 0.3 0.6 4.8 1 9.8 1 11.3 0 19.1 1.9 27.7 6.8 3.6 2 6.8 3.8 7.2 4 0.4 0.2 2.7 -1 5.1 -2.7 8.1 -5.9 13.7 -7.3 30.5 -8.1 8.4 -0.4 15.7 -1.1 16.3 -1.7 0.6 -0.6 1.3 -3.8 1.6 -7.2 0.5 -5.1 0.9 -6.1 2.5 -6.1 1.7 0 1.8 0.6 1.3 6.3 -0.8 9.9 -2.6 15.9 -4.4 15 -0.9 -0.4 -6.1 -0.9 -11.6 -1.1 -15.4 -0.6 -24 2.1 -34.3 10.5 -3 2.3 -5.9 4.3 -6.6 4.3 -0.6 0 -4.2 -2.2 -7.9 -4.9z"/>
  <path d="M76 178.3 c0 -3.4 1.2 -6.3 2.6 -6.3 1 0 1.4 1.3 1.4 4 0 3.3 -0.3 4 -2 4 -1.2 0 -2 -0.7 -2 -1.7z"/>
  <path d="M187 174.5 c0 -4 2.4 -4.9 3.4 -1.2 1 3.7 0.7 4.7 -1.4 4.7 -1.6 0 -2 -0.7 -2 -3.5z"/>
  <path d="M29 171 c0 -0.7 0.3 -1 0.7 -0.7 0.3 0.4 0.3 1 0 1.4 -0.4 0.3 -0.7 0 -0.7 -0.7z"/>
  <path d="M44.5 171 c0.3 -0.5 1.3 -1 2.1 -1 0.8 0 1.4 0.5 1.4 1 0 0.6 -0.9 1 -2.1 1 -1.1 0 -1.7 -0.4 -1.4 -1z"/>
  <path d="M77 169.8 c0 -3 1.3 -5.8 2.6 -5.8 0.9 0 1.4 1.2 1.4 3.5 0 2.8 -0.4 3.5 -2 3.5 -1.1 0 -2 -0.6 -2 -1.2z"/>
  <path d="M33.4 166.6 c2.3 -5.5 6.5 -10.9 16.4 -21.1 4.9 -4.9 10.2 -10.8 12 -13 1.8 -2.2 3.2 -3.5 3.2 -2.9 0 0.6 -4.6 6.5 -10.2 13 -5.6 6.5 -12.8 15.3 -16.1 19.4 -3.3 4.1 -6.2 7.7 -6.4 8 -0.3 0.3 0.2 -1.2 1.1 -3.4z"/>
  <path d="M234 169.4 c0 -0.6 -6.8 -9.1 -15.1 -19 -8.2 -9.8 -15.5 -18.8 -16.1 -19.9 -0.5 -1.1 0.5 -0.2 2.2 2 1.8 2.2 6.8 7.4 11 11.5 4.2 4.1 9.3 9.7 11.4 12.4 4.3 5.7 8 12.5 7.2 13.4 -0.3 0.3 -0.6 0.1 -0.6 -0.4z"/>
  <path d="M184.6 161.9 c-1 -5.1 -0.7 -7.9 0.8 -7.9 0.8 0 1.8 1.9 2.5 4.4 1.5 6 1.4 6.6 -0.8 6.6 -1.3 0 -2 -1 -2.5 -3.1z"/>
  <path d="M30.5 163 c0.3 -0.5 1 -1 1.6 -1 0.5 0 0.9 0.5 0.9 1 0 0.6 -0.7 1 -1.6 1 -0.8 0 -1.2 -0.4 -0.9 -1z"/>
  <path d="M58.8 163.3 c0.7 -0.3 1.6 -0.2 1.9 0.1 0.4 0.3 -0.2 0.6 -1.3 0.5 -1.1 0 -1.4 -0.3 -0.6 -0.6z"/>
  <path d="M80 156.7 c0 -4.1 9.3 -25.7 11.1 -25.7 1.3 0 1.1 5.4 -0.3 8.5 -0.6 1.4 -1.7 2.5 -2.3 2.5 -0.7 0 -1.5 2 -1.8 4.7 -0.3 2.6 -1 4.9 -1.6 5.1 -0.6 0.2 -1.1 1.7 -1.1 3.3 0 2.2 -0.5 2.9 -2 2.9 -1.1 0 -2 -0.6 -2 -1.3z"/>
  <path d="M13 155.4 c0 -0.8 0.9 -1.4 2 -1.4 1.1 0 2 0.4 2 0.9 0 0.5 -0.9 1.1 -2 1.4 -1.3 0.3 -2 0 -2 -0.9z"/>
  <path d="M41 148 c0 -0.5 0.9 -1 2.1 -1 1.1 0 1.7 0.5 1.4 1 -0.3 0.6 -1.3 1 -2.1 1 -0.8 0 -1.4 -0.4 -1.4 -1z"/>
  <path d="M124.9 146.7 c-1.3 -1.2 -4.5 -5.1 -7.2 -8.5 -4.3 -5.7 -16.7 -15.2 -19.7 -15.2 -0.6 0 -1 1.6 -1 3.5 0 3.2 -0.2 3.5 -3.1 3.5 -2.9 0 -3 -0.1 -1.5 -2.2 2.4 -3.3 9.7 -10.8 10.6 -10.8 0.5 0 1.2 0.5 1.5 1 0.3 0.6 3.3 2.8 6.5 5 3.3 2.2 7.4 6.1 9.2 8.7 6.1 8.9 9.7 12.3 13.3 12.3 1.8 0 4.3 -0.9 5.6 -1.9 2.3 -1.9 6.9 -10.2 10.4 -18.8 1.7 -4.2 3.3 -5.3 10.3 -7.3 3.1 -0.8 3.6 -0.6 7.6 3.4 4.2 4.1 11.6 14.3 11.6 15.8 0 0.5 -1.1 0.8 -2.5 0.8 -2.1 0 -2.5 -0.5 -2.5 -3 0 -2.3 -0.4 -3 -2 -3 -1.5 0 -2 -0.7 -2 -2.5 0 -1.8 -0.5 -2.5 -1.9 -2.5 -1 0 -2.4 -0.7 -3.1 -1.5 -1.6 -1.9 -3.3 -1.9 -6.8 -0.1 -2 1 -4.2 4.3 -7.6 11 -6.2 12.4 -8.7 14.6 -17 14.6 -5.2 0 -6.7 -0.4 -8.7 -2.3z"/>
  <path d="M179 142.4 c0 -4.4 1.8 -4.2 3.7 0.4 1.3 3.1 1.2 3.2 -1.2 3.2 -2.2 0 -2.5 -0.4 -2.5 -3.6z"/>
  <path d="M50.5 140 c0.3 -0.5 1.1 -1 1.6 -1 0.6 0 0.7 0.5 0.4 1 -0.3 0.6 -1.1 1 -1.6 1 -0.6 0 -0.7 -0.4 -0.4 -1z"/>
  <path d="M148 117 c0 -0.5 0.5 -1 1.1 -1 0.5 0 0.7 0.5 0.4 1 -0.3 0.6 -0.8 1 -1.1 1 -0.2 0 -0.4 -0.4 -0.4 -1z"/>
  <path d="M106 115.3 c-3.8 -2.7 -5.9 -5.3 -8.8 -11.3 -2.4 -4.9 -2.7 -6.6 -2.7 -16 0 -9.3 0.3 -11.2 2.7 -16.2 1.5 -3.2 3.2 -5.8 3.9 -5.8 0.7 0 0.9 -0.3 0.6 -0.7 -1.1 -1 2.3 -4.2 3.9 -3.6 0.9 0.3 1.4 2 1.4 4.3 0 3 -0.6 4.4 -2.9 6.2 -10.2 8.2 -6.1 34.8 6.1 39.9 3.5 1.4 3.9 4.9 0.5 4.9 -1.2 0 -3.4 -0.8 -4.7 -1.7z"/>
  <path d="M149 112 c0 -0.7 0.3 -1 0.7 -0.7 0.3 0.4 0.3 1 0 1.4 -0.4 0.3 -0.7 0 -0.7 -0.7z"/>
  <path d="M150.8 108.7 c-2.6 -2 -2.3 -2.4 2.6 -2.9 5.7 -0.7 9.5 -3.5 9.6 -7 0 -1.5 0.4 -3 1 -3.3 0.5 -0.3 1.9 -2.7 3 -5.2 1.8 -4.1 1.9 -5.1 0.8 -7.8 -0.7 -1.6 -2.3 -3.8 -3.5 -4.8 -1.3 -1 -2.3 -2.5 -2.3 -3.3 0 -0.9 -1.1 -1.4 -3.5 -1.4 -2.8 0 -3.5 -0.4 -3.5 -2 0 -4.6 10.4 -0.3 14.6 6 3.9 5.9 4.6 10.4 2.4 16.4 -1 2.8 -2.1 6.3 -2.4 7.8 -1.3 5.8 -14.5 11 -18.8 7.5z"/>
  <path d="M123 102.4 c0 -2.4 0.2 -2.5 1.8 -1.3 0.9 0.7 1.9 1.4 2 1.5 0.2 0.1 -0.6 0.7 -1.7 1.4 -1.9 1 -2.1 0.8 -2.1 -1.6z"/>
  <path d="M142 103.8 l-2.5 -0.9 2.5 -1.9 c2.1 -1.6 2.6 -1.7 2.8 -0.5 0.7 3.2 -0.2 4.3 -2.8 3.3z"/>
  <path d="M146.2 91 c0 -5.4 -2 -9.6 -5.3 -10.8 -1.7 -0.7 -1.4 -1.3 3.5 -6 6.5 -6.3 9.6 -6.9 9.6 -1.7 0 1.9 -0.5 3.5 -1.1 3.5 -0.6 0 -2.3 0.9 -3.8 1.9 -2.2 1.6 -2.7 2.6 -2.3 5 0.2 1.8 1 3.1 1.8 3.1 1 0 1.4 1.4 1.4 5 0 4.2 -0.3 5 -1.9 5 -1.6 0 -1.9 -0.8 -1.9 -5z"/>
  <path d="M140.2 84.9 c-0.7 -1.2 -1.1 -2.4 -0.7 -2.7 0.9 -0.9 4 1.3 4.3 3.2 0.5 2.3 -2.1 2 -3.6 -0.5z"/>
  <path d="M126.9 83.6 c-0.7 -1.4 -1 -2.8 -0.7 -3.1 0.9 -0.9 3.8 0.7 3.8 2.1 0 0.8 0 1.7 0.1 2.1 0.2 2 -2.2 1.1 -3.2 -1.1z"/>
  <path d="M130.7 81.5 c-1 -1.4 -2.3 -2.5 -3 -2.5 -0.8 0 -1.1 -1.4 -0.9 -4.5 0.5 -5.3 1.8 -5.8 3.6 -1.2 1.3 3.1 3 10.7 2.4 10.7 -0.2 0 -1.1 -1.2 -2.1 -2.5z"/>
  <path d="M123 65.3 l0.1 -3.8 2.4 2.8 c3.2 3.6 3.1 4.7 0 4.7 -2.2 0 -2.5 -0.4 -2.5 -3.7z"/>
  <path d="M153.5 62 c-2.6 -0.6 -2.2 -0.8 2.3 -0.9 3.3 -0.1 5.1 0.3 4.7 0.9 -0.7 1.1 -2.6 1.1 -7 0z"/>
  <path d="M114 60 c0 -2.2 2 -2.6 5.1 -1 3 1.6 2.3 3 -1.6 3 -2.8 0 -3.5 -0.4 -3.5 -2z"/>
  <path d="M92.5 52.8 c1.7 -7.5 6.5 -15.3 6.5 -10.4 0 2.1 5.2 2.5 41 2.4 l33.5 0 1.2 3.3 c2.4 6.8 3.8 6.4 -22.7 6.2 -21.7 -0.1 -24.3 -0.3 -26.7 -2.1 -7.7 -5.2 -17.1 -5.6 -24.3 -0.8 -2.2 1.5 -5.2 3.1 -6.6 3.6 -2.5 1 -2.5 0.9 -1.9 -2.2z"/>
  <path d="M106.5 52.5 c3.8 -1.8 8.1 -1.8 12 -0.1 2.8 1.2 2.3 1.3 -6 1.4 -8.4 0.1 -8.8 0 -6 -1.3z"/>
  <path d="M167 41.6 c0 -0.8 -0.5 -1.6 -1.1 -1.8 -0.6 -0.2 -0.9 -1.9 -0.7 -3.8 l0.3 -3.5 3.3 4.4 c3.9 5.3 4 6.1 0.7 6.1 -1.5 0 -2.5 -0.6 -2.5 -1.4z"/>
  <path d="M102.5 33.6 c0.9 -1.4 2.7 -3.2 4.1 -4.1 2.3 -1.5 2.4 -1.5 2.4 1.3 0 3.6 -1.6 5.2 -5.2 5.2 -2.8 0 -2.8 -0.1 -1.3 -2.4z"/>
  <path d="M149.6 26.5 c-0.8 -0.8 -2.4 -1.5 -3.5 -1.5 -1.4 0 -2.1 -0.6 -2.1 -2 0 -1.1 0.7 -2 1.6 -2 2.2 0 12.4 5 12.4 6.1 0 1.5 -6.7 1 -8.4 -0.6z"/>
  <path d="M115 24.9 c0 -1.1 6 -3.9 8.5 -3.9 2.4 0 1.8 3.7 -0.7 4.4 -3.6 0.9 -7.8 0.7 -7.8 -0.5z"/>
  <path d="M128 21.6 c0 -0.8 1.4 -1.7 3 -2.1 4 -0.9 9 0.3 9 2.1 0 1 -1.5 1.4 -6 1.4 -4.5 0 -6 -0.4 -6 -1.4z"/>
 </g>
 <g fill="#b5b5b4">
  <path d="M126.5 224 c-10.1 -6.8 -15.4 -8.4 -28.3 -8.6 -6.5 -0.1 -11.8 -0.6 -12.4 -1.2 -0.8 -0.8 -1.9 -0.7 -3.9 0.3 l-2.8 1.5 -1 -5.3 c-0.6 -2.8 -1.3 -9 -1.7 -13.6 -0.8 -9.2 -0.3 -10.1 5.2 -10.1 3.1 0 3.1 0.1 3.7 6.3 0.3 3.4 1.3 8.5 2.1 11.2 l1.6 5 10.7 0.3 c11.9 0.2 20.4 2.3 28.8 7 l5 2.8 5 -2.9 c9.1 -5.4 15 -6.9 28.7 -7.4 l12.7 -0.6 1 -3.1 c1.4 -4.5 3.1 -14.4 3.1 -18.3 0 -3.1 0.2 -3.3 3.7 -3.3 l3.6 0 -0.6 11.8 c-0.8 14 -1.7 17.6 -4.3 18 -1 0.2 -2.6 0.6 -3.4 0.9 -0.8 0.4 -6.2 0.5 -12 0.4 -13 -0.3 -20.8 1.9 -30.4 8.4 -3.6 2.5 -6.9 4.5 -7.3 4.5 -0.4 0 -3.5 -1.9 -6.8 -4z"/>
  <path d="M76 179.8 c0 -3 1.3 -5.8 2.6 -5.8 0.9 0 1.4 1.2 1.4 3.5 0 2.8 -0.4 3.5 -2 3.5 -1.1 0 -2 -0.6 -2 -1.2z"/>
  <path d="M187 175.5 c0 -4 2.4 -4.9 3.4 -1.2 1 3.7 0.7 4.7 -1.4 4.7 -1.6 0 -2 -0.7 -2 -3.5z"/>
  <path d="M77.5 167.8 c0.8 -5.4 3.5 -15.7 4.7 -18 1.4 -2.9 2.8 -2.1 2.8 1.7 0 1.9 -0.4 3.5 -1 3.5 -0.5 0 -1 0.9 -1 2 0 1.1 -0.6 5 -1.2 8.5 -1 5.2 -1.6 6.5 -3.1 6.5 -1.6 0 -1.8 -0.5 -1.2 -4.2z"/>
  <path d="M185.6 167.3 c-0.9 -6 -0.7 -8.3 0.8 -8.3 0.9 0 1.8 1.9 2.5 5 1.4 6.7 1.4 7 -0.8 7 -1.4 0 -2 -1 -2.5 -3.7z"/>
  <path d="M35.5 163.3 c1.4 -2.9 5.9 -8.7 10.6 -13.5 8.3 -8.6 7.5 -7.3 -5.6 8.7 -2.7 3.4 -5.6 7 -6.3 8.1 -0.7 1 -0.1 -0.4 1.3 -3.3z"/>
  <path d="M232.1 165.7 c-1.6 -2.5 -11 -14.5 -15.5 -19.8 -1.7 -1.9 0.3 -0.1 4.5 4.1 6.8 6.8 13.8 16.4 12.7 17.5 -0.2 0.2 -1 -0.6 -1.7 -1.8z"/>
  <path d="M31 163 c0 -0.5 0.5 -1 1 -1 0.6 0 1 0.5 1 1 0 0.6 -0.4 1 -1 1 -0.5 0 -1 -0.4 -1 -1z"/>
  <path d="M183 154.5 c0 -4 2.4 -4.9 3.4 -1.2 1 3.7 0.7 4.7 -1.4 4.7 -1.6 0 -2 -0.7 -2 -3.5z"/>
  <path d="M37 155 c0 -0.5 0.5 -1 1.1 -1 0.5 0 0.7 0.5 0.4 1 -0.3 0.6 -0.8 1 -1.1 1 -0.2 0 -0.4 -0.4 -0.4 -1z"/>
  <path d="M127.1 149.7 c-1.4 -0.6 -5.2 -4.5 -8.4 -8.5 -3.8 -4.6 -8.6 -9.1 -13.3 -12.3 -4.1 -2.7 -7.4 -5.6 -7.4 -6.3 0 -0.7 0.9 -2.1 2 -3.1 1.1 -1 2 -1.3 2 -0.6 0 0.6 3.1 3.1 7 5.6 4.6 2.9 8.6 6.6 11.7 10.7 6.9 9 9.1 10.8 12.9 10.8 4.9 0 8.7 -4 14.3 -15 4.5 -9 5 -9.6 9.7 -11.5 2.7 -1.1 5.2 -2.3 5.5 -2.8 0.8 -1.2 4.2 3 3.6 4.6 -0.3 0.7 -2.3 1.9 -4.6 2.5 -4.5 1.4 -7.3 4.6 -11.6 13.2 -3.7 7.3 -6.5 10.9 -9.7 12.6 -3.3 1.7 -10.5 1.8 -13.7 0.1z"/>
  <path d="M42.5 148 c0.3 -0.5 1.1 -1 1.6 -1 0.6 0 0.7 0.5 0.4 1 -0.3 0.6 -1.1 1 -1.6 1 -0.6 0 -0.7 -0.4 -0.4 -1z"/>
  <path d="M84.3 143.8 c1.9 -4.6 3.7 -4.8 3.7 -0.4 0 3.2 -0.3 3.6 -2.5 3.6 -2.4 0 -2.5 -0.1 -1.2 -3.2z"/>
  <path d="M49.5 140 c0.3 -0.5 1.3 -1 2.1 -1 0.8 0 1.2 0.5 0.9 1 -0.3 0.6 -1.3 1 -2.1 1 -0.8 0 -1.2 -0.4 -0.9 -1z"/>
  <path d="M90 132.1 c0 -0.6 1.1 -2.3 2.5 -3.8 l2.4 -2.8 0.1 3.8 c0 3.3 -0.3 3.7 -2.5 3.7 -1.4 0 -2.5 -0.4 -2.5 -0.9z"/>
  <path d="M107.3 115.2 c-3.8 -2.1 -8.8 -8.2 -10.2 -12.5 -1.7 -5.2 -3.1 -15.9 -2.5 -18.6 1.7 -7.8 3.9 -12.8 6.8 -15.3 2.5 -2.2 2.8 -2.9 1.7 -3.7 -1.3 -0.8 -1.3 -1.2 -0.1 -2.6 1.7 -2 6.3 -4.5 8.5 -4.5 0.8 0 1.5 0.9 1.5 2 0 1.3 -0.7 2 -2 2 -1.6 0 -2 0.7 -2 3.5 0 2.2 -0.8 4.4 -2 5.7 -1.1 1.2 -2 2.8 -2 3.5 0 0.7 -0.7 1.3 -1.5 1.3 -1.9 0 -3.7 7 -3.6 14.3 0.1 7.3 3.2 14.7 8 18.9 l3.6 3.2 0.3 -3.3 c0.3 -2.5 1.1 -3.7 3.7 -5.2 3.3 -2 3.4 -2.2 2.8 -7 -0.5 -3.9 -0.3 -4.9 0.9 -4.9 0.9 0 2 1.6 2.6 3.9 0.7 2.1 1.9 4.4 2.7 5.1 2.2 1.8 1.9 2.6 -1.6 4.1 -5.4 2.2 -8.9 5.8 -8.9 9 0 3.4 -1.8 3.7 -6.7 1.1z"/>
  <path d="M143.1 108.9 c-3 -1.6 -4.8 -2.9 -4.2 -2.9 1.4 0 11.1 4.8 11.1 5.5 0 0.9 -1.5 0.4 -6.9 -2.6z"/>
  <path d="M146.5 106.2 c-2.7 -1.5 -5.2 -2.8 -5.4 -2.9 -0.2 -0.1 0.8 -1.6 2.2 -3.2 4.4 -5.3 4.3 -13.7 -0.3 -18.6 l-2.1 -2.3 3.8 -3.1 c2.1 -1.7 4.3 -3.1 4.9 -3.1 0.7 0 1.1 -0.8 1 -1.7 -0.1 -1.3 0.7 -1.9 2.7 -2.1 2.6 -0.3 2.7 -0.1 2.7 3.7 0 3.3 -0.4 4.1 -1.8 4.1 -1 0 -2.7 0.7 -3.9 1.5 -1.9 1.3 -2 1.9 -1.1 5.3 0.6 2 0.8 6.7 0.5 10.4 -0.6 7.5 0.2 8.9 5.1 9 3.6 0.1 5.2 -0.8 5.2 -2.9 0 -0.9 0.6 -2.4 1.4 -3.2 3.1 -3.6 6.6 -11.8 6.6 -15.4 0 -4.9 1.9 -4.5 3.9 0.7 1.3 3.4 1.2 4.1 -0.9 8.9 -1.3 2.9 -3.1 6 -3.9 7 -1.3 1.6 -1.3 1.9 -0.1 2.8 1.2 0.8 1 1.4 -1.5 3.5 -6.2 5.2 -11.5 5.7 -19 1.6z"/>
  <path d="M118 85.5 c0 -3 0.3 -3.5 2.4 -3.5 2.3 0 2.4 0.2 1.3 3.5 -0.6 1.9 -1.6 3.5 -2.4 3.5 -0.8 0 -1.3 -1.3 -1.3 -3.5z"/>
  <path d="M140.6 85.1 c-1.3 -1.4 -1.4 -2.1 -0.5 -2.7 0.7 -0.4 1.8 0.1 2.6 1.1 2.6 3.6 0.9 4.9 -2.1 1.6z"/>
  <path d="M127 83.5 c-0.7 -1.4 -1 -2.8 -0.7 -3.1 0.9 -0.9 3.7 1.5 3.7 3.2 0 2.4 -1.7 2.4 -3 -0.1z"/>
  <path d="M131 81.2 c0 -0.6 -1.1 -1.4 -2.5 -1.8 -1.4 -0.3 -2.5 -1.1 -2.5 -1.6 0 -1.3 2.6 -3.8 3.9 -3.8 1.1 0 2.7 6.8 1.7 7.7 -0.3 0.4 -0.6 0.1 -0.6 -0.5z"/>
  <path d="M159.3 74.3 c-0.7 -0.2 -1.3 -1.3 -1.3 -2.4 0 -2.7 3.3 -2.4 6.7 0.6 l2.8 2.4 -3.5 0 c-1.9 0 -4.1 -0.3 -4.7 -0.6z"/>
  <path d="M117.8 63.6 c-1 -0.7 -1.8 -2.3 -1.8 -3.4 0 -1.9 0.3 -2 2.9 -1.1 1.6 0.6 3.9 2.1 5.2 3.5 l2.2 2.4 -3.4 0 c-1.9 0 -4.2 -0.7 -5.1 -1.4z"/>
  <path d="M158 61.5 c0 -0.3 0.2 -0.5 0.5 -0.5 0.3 0 0.5 0.2 0.5 0.5 0 0.3 -0.2 0.5 -0.5 0.5 -0.3 0 -0.5 -0.2 -0.5 -0.5z"/>
  <path d="M111.8 51.3 c0.6 -0.2 1.8 -0.2 2.5 0 0.6 0.3 0.1 0.5 -1.3 0.5 -1.4 0 -1.9 -0.2 -1.2 -0.5z"/>
  <path d="M119.8 48.9 c-2 -1.1 -22.9 -1.6 -24.6 -0.5 -0.6 0.4 -1.2 0.4 -1.2 0.1 0 -1.7 5.2 -11.4 7 -13 2 -1.8 2 -1.7 2 1.3 l0 3.2 34 0 33.9 0 1.6 3 c0.8 1.6 1.5 3.3 1.5 3.9 0 0.6 -9.5 1 -25.7 1.1 -14.1 0 -26 0.5 -26.3 0.9 -0.3 0.6 -1.2 0.6 -2.2 0z"/>
  <path d="M157 28.9 l0 -3 3 2.1 c4.4 3.1 4.5 4 0.6 4 -3.3 0 -3.6 -0.2 -3.6 -3.1z"/>
  <path d="M140 22 c0 -2.1 1 -2.4 4.8 -1.4 3.6 1 2.7 3.4 -1.3 3.4 -2.8 0 -3.5 -0.4 -3.5 -2z"/>
 </g>
 <g fill="#a5c0c8">
  <path d="M32.5 188 c0.4 -0.6 6.7 -1 15.6 -1 9.3 0 14.9 0.4 14.9 1 0 0.6 -5.9 1 -15.6 1 -10.1 0 -15.3 -0.3 -14.9 -1z"/>
  <path d="M42.5 179 c0.3 -0.6 4.8 -1 10.1 -1 5.6 0 9.4 0.4 9.4 1 0 0.6 -4 1 -10.1 1 -6.4 0 -9.8 -0.4 -9.4 -1z"/>
  <path d="M14 170.8 c0 -1 2.1 -1.2 8 -1 4.4 0.2 8 0.8 8 1.3 0 0.5 -3.6 0.9 -8 0.9 -5.7 0 -8 -0.4 -8 -1.2z"/>
  <path d="M45 171 c0 -0.6 3.3 -1 8 -1 4.7 0 8 0.4 8 1 0 0.6 -3.3 1 -8 1 -4.7 0 -8 -0.4 -8 -1z"/>
  <path d="M13 163 c0 -0.6 4 -1 10 -1 6 0 10 0.4 10 1 0 0.6 -4 1 -10 1 -6 0 -10 -0.4 -10 -1z"/>
  <path d="M59 163.5 c0 -0.3 0.2 -0.5 0.5 -0.5 0.3 0 0.5 0.2 0.5 0.5 0 0.3 -0.2 0.5 -0.5 0.5 -0.3 0 -0.5 -0.2 -0.5 -0.5z"/>
  <path d="M39.5 157 c1 -1.1 2 -2 2.2 -2 0.2 0 -0.2 0.9 -0.9 2 -0.7 1.1 -1.7 2 -2.2 2 -0.5 0 -0.1 -0.9 0.9 -2z"/>
  <path d="M13 155 c0 -0.6 5 -1 13.1 -1 8.4 0 12.8 0.4 12.4 1 -0.8 1.3 -25.5 1.3 -25.5 0z"/>
  <path d="M44 151.6 c0 -0.2 0.8 -1 1.8 -1.7 1.5 -1.3 1.6 -1.2 0.3 0.4 -1.3 1.6 -2.1 2.1 -2.1 1.3z"/>
  <path d="M13 148 c0 -0.6 6 -1 16.1 -1 10.4 0 15.8 0.3 15.4 1 -0.8 1.3 -31.5 1.3 -31.5 0z"/>
  <path d="M237 147.3 c0 -1 0.6 -1.3 1.6 -0.9 0.9 0.3 3.4 0.6 5.6 0.6 5.4 0 4.6 0.6 -1.9 1.3 -4.4 0.5 -5.3 0.3 -5.3 -1z"/>
  <path d="M13 140 c0 -0.6 7.4 -1 20.1 -1 13.1 0 19.8 0.3 19.4 1 -0.4 0.6 -8.2 1 -20.1 1 -12.3 0 -19.4 -0.4 -19.4 -1z"/>
  <path d="M246.5 140 c0.3 -0.5 1.3 -1 2.1 -1 0.8 0 1.4 0.5 1.4 1 0 0.6 -0.9 1 -2.1 1 -1.1 0 -1.7 -0.4 -1.4 -1z"/>
 </g>
 <g fill="#bfbfbf">
  <path d="M126.5 220.4 c-9 -5.1 -17.3 -7.4 -27.9 -7.6 -5 0 -9.8 0.1 -10.6 0.3 -1.9 0.5 -4.9 -8.3 -5.7 -16.9 -0.3 -3.5 -0.9 -5.8 -1.3 -5.1 -0.4 0.6 -1.3 0.8 -1.9 0.5 -1.2 -0.8 -1.3 -0.4 -1.3 8.9 0 5.2 -0.1 4.7 -1.1 -3.5 -1.1 -10.8 0 -27.1 2.8 -38.2 1.5 -5.8 2.1 -6.8 3.9 -6.8 2.2 0 2.2 0.1 2.2 20.8 -0.1 14.1 0.3 22.7 1.3 27 l1.4 6.2 9.3 0 c6.2 0 13.4 0.9 21.6 2.6 14.4 3.1 14.5 3.1 26.8 0.2 6.8 -1.5 13 -2.2 21.8 -2.2 l12.2 -0.1 1 -3 c2.7 -8.5 4 -46.9 1.6 -48.6 -0.4 -0.4 -1.1 -2.7 -1.3 -5.3 -0.5 -3.6 -0.3 -4.6 0.9 -4.6 1.6 0 3.6 5.9 6.5 18.5 1.7 7.9 2.7 29.8 1.5 35.5 l-1 4.5 -0.2 -6 c-0.1 -3.3 -0.3 -6.8 -0.5 -7.8 -0.6 -3.4 -1.5 -3.1 -1.5 0.5 0 3.9 -1.4 12.1 -3 18.3 l-1.1 4 -12.2 0 c-13.9 0 -18.9 1.3 -29.9 7.6 -3.6 2.2 -7 3.9 -7.5 3.8 -0.4 0 -3.5 -1.6 -6.8 -3.5z"/>
  <path d="M78 208 c0 -0.7 0.3 -1 0.7 -0.7 0.3 0.4 0.3 1 0 1.4 -0.4 0.3 -0.7 0 -0.7 -0.7z"/>
  <path d="M228 159.3 c-1.8 -2.7 -5.1 -6.9 -7.4 -9.4 -2.3 -2.5 -1.4 -1.7 1.9 1.7 5.2 5.3 10.4 12.4 9.2 12.4 -0.2 0 -1.9 -2.1 -3.7 -4.7z"/>
  <path d="M36 162.5 c0 -1.1 7.7 -11 9.8 -12.7 0.9 -0.7 -0.8 1.9 -3.8 5.7 -2.9 3.9 -5.5 7.2 -5.7 7.4 -0.2 0.2 -0.3 0.1 -0.3 -0.4z"/>
  <path d="M126.1 150.6 c-1.3 -0.7 -4.7 -4.2 -7.5 -7.7 -5.7 -7 -20.6 -18.2 -20.6 -15.5 0 1.1 -1 1.6 -3.1 1.6 l-3 0 1.9 -2.7 c2.8 -3.9 7.2 -7.9 7.2 -6.5 0 0.6 3.3 3.4 7.4 6.1 4.7 3.2 9.5 7.7 13.3 12.3 3.2 4 7.1 7.9 8.7 8.6 5.7 2.8 11.3 -1.3 16.8 -12.2 4.4 -8.9 7.3 -12.3 11.5 -13.6 2.1 -0.7 4.3 -1.8 4.9 -2.6 0.9 -1.1 1.5 -0.9 3.3 1 2.7 2.8 2.2 4.2 -1.7 5.1 -5.8 1.2 -9 4.3 -13.9 13.1 -2.6 4.7 -6.3 9.9 -8.1 11.5 -2.8 2.5 -4.1 2.9 -9 2.9 -3.1 -0.1 -6.8 -0.7 -8.1 -1.4z"/>
  <path d="M84.1 144.8 c2.5 -6.3 2.8 -6.8 4 -6.8 0.5 0 0.9 1.6 0.9 3.5 0 1.9 -0.4 3.5 -1 3.5 -0.5 0 -1 1.1 -1 2.5 0 2 -0.5 2.5 -2.5 2.5 l-2.5 0 2.1 -5.2z"/>
  <path d="M178 141 c0 -2 -0.5 -3 -1.5 -3 -0.9 0 -1.5 -0.9 -1.5 -2.5 0 -1.6 -0.6 -2.5 -1.5 -2.5 -1.1 0 -1.5 -1.1 -1.5 -3.6 0 -3.1 0.2 -3.5 1.5 -2.4 1.7 1.4 6.8 10.1 8.4 14.3 1 2.5 0.9 2.7 -1.4 2.7 -2.1 0 -2.5 -0.5 -2.5 -3z"/>
  <path d="M107.5 114.1 c-4.2 -2.5 -6.1 -4.9 -8.6 -10.5 -3.7 -8.5 -2.5 -30.6 1.6 -30.6 0.8 0 1.5 -0.6 1.5 -1.3 0 -0.7 0.9 -2.3 2 -3.4 2 -2.2 2 -2.2 0 -2.8 -2.8 -0.9 -2.5 -2 1.1 -4.6 8 -5.6 18.3 -2 23.2 8.3 3.1 6.4 4.6 13 2.6 11.1 -2.5 -2.4 -5.8 -1.5 -8 2.2 -1.2 1.9 -2.5 3.5 -3 3.5 -0.5 0 -0.9 -1.6 -0.9 -3.5 0 -3.1 0.3 -3.5 2.5 -3.5 1.8 0 2.5 -0.5 2.5 -1.9 0 -1.1 0.5 -2.1 1.1 -2.3 1.4 -0.5 -0.9 -5.8 -3.3 -7.6 -1 -0.7 -1.8 -2.2 -1.8 -3.3 0 -1.8 -0.6 -2 -4.7 -1.7 l-4.8 0.3 -0.3 4.1 c-0.2 2.6 -1.1 4.9 -2.3 5.9 -1 1 -1.9 2.2 -1.9 2.8 0 0.5 -1.1 2.2 -2.5 3.9 -4.7 5.6 -2.7 19.5 3.9 26.5 1.6 1.8 3.8 3.5 4.8 3.9 1.2 0.3 1.8 1.5 1.8 3.5 0 3.5 -2 3.8 -6.5 1z"/>
  <path d="M117 105.1 c0 -1.9 3.1 -8.1 4 -8.1 0.3 0 1.3 1.2 2.2 2.7 1.6 2.7 1.6 2.8 -1.5 5 -3.8 2.8 -4.7 2.9 -4.7 0.4z"/>
  <path d="M150.5 106.3 c-1.1 -0.3 -3.2 -1.4 -4.7 -2.5 -2.5 -1.7 -2.6 -2.1 -1.4 -4.1 0.8 -1.2 1.7 -3.7 2.1 -5.4 0.8 -4.2 3.5 -4.4 3.5 -0.4 0 3.1 1.4 4.1 5.9 4.1 3.3 0 4.9 -1.7 8.5 -8.6 2.2 -4.2 2.5 -5.9 2 -9.3 -0.6 -3.5 -1 -4.1 -3 -4.1 -1.5 0 -2.4 -0.6 -2.4 -1.5 0 -0.8 -0.7 -1.5 -1.5 -1.5 -0.9 0 -1.5 0.9 -1.5 2.4 0 1.8 -0.7 2.5 -2.9 2.9 -1.5 0.3 -4.3 1.8 -6.1 3.3 -3.1 2.7 -3.3 2.7 -4.6 0.9 -0.8 -1 -1.4 -2.2 -1.4 -2.6 0 -1.4 6.2 -5.9 8.1 -5.9 2.4 0 2.4 -0.9 0.2 -2.6 -1.6 -1.1 -1.5 -1.3 1 -1.9 7 -1.8 17.8 5.4 19.2 12.7 0.6 3 0.1 4.9 -2.5 10 -1.8 3.5 -3.8 7 -4.6 7.9 -1 1.2 -1.1 1.8 -0.2 2.7 2.4 2.4 -7.7 5 -13.7 3.5z"/>
  <path d="M140.7 85.3 c-1 -1 -0.8 -3.3 0.3 -3.3 0.5 0 1.4 0.9 2 2 0.8 1.5 0.8 2 -0.3 2 -0.8 0 -1.7 -0.3 -2 -0.7z"/>
  <path d="M127.8 83.9 c-1.8 -1 -2.5 -3.9 -0.9 -3.9 1.2 0 3.3 2.8 2.9 3.9 -0.2 0.6 -0.9 0.6 -2 0z"/>
  <path d="M96 44.5 c0 -0.4 0.9 -2.4 2 -4.4 l2.1 -3.6 31.9 0.3 32 0.4 0 -2.7 c0 -2.3 0.2 -2.5 1.4 -1.5 1.7 1.3 7.6 10.3 7.6 11.4 0 0.4 -0.6 0.4 -1.2 -0.1 -1.9 -1.2 -73 -1.3 -74.5 -0.1 -0.7 0.6 -1.3 0.7 -1.3 0.3z"/>
  <path d="M106 30.6 c0 -1 6.8 -5.6 10.3 -7.1 3.7 -1.5 3.7 -1.5 3.7 1 0 1.8 -0.5 2.5 -2 2.5 -1.1 0 -2 0.5 -2 1 0 0.6 -0.7 1 -1.5 1 -0.8 0 -1.5 0.5 -1.5 1 0 0.6 -1.6 1 -3.5 1 -1.9 0 -3.5 -0.2 -3.5 -0.4z"/>
  <path d="M122 22.6 c0 -1.3 2.8 -2.6 5.8 -2.6 0.6 0 1.2 0.9 1.2 2 0 1.6 -0.7 2 -3.5 2 -2.3 0 -3.5 -0.5 -3.5 -1.4z"/>
 </g>
 <g fill="#71ebee">
  <path d="M398 105.5 c0 -17.7 0.4 -27.5 1 -27.5 0.6 0 1 9.8 1 27.5 0 17.7 -0.4 27.5 -1 27.5 -0.6 0 -1 -9.8 -1 -27.5z"/>
 </g>
 <g fill="#cecece">
  <path d="M128.9 214.6 c-0.3 -0.4 -6.2 -1.8 -13 -3.2 -9.3 -1.9 -14.7 -2.5 -21.3 -2.2 l-9 0.3 -1.3 -5 c-0.7 -2.7 -1.6 -10.3 -2 -16.7 -0.6 -11.6 -0.6 -11.8 1.5 -11.8 1.8 0 2.2 0.6 2.2 3.3 l0 3.2 48.6 0 48.7 0 -0.6 -12.5 c-0.7 -15 -2.7 -28 -4.3 -28 -0.7 0 -1.5 -0.7 -1.8 -1.6 -0.9 -2.4 -0.7 -7.4 0.3 -7.4 2.1 0 11.3 24.2 11 28.9 -0.1 0.9 -0.4 0.5 -0.8 -0.9 -0.5 -1.4 -0.6 2.5 -0.3 8.6 0.5 11.3 -1.1 31.4 -2.8 37 l-1 3 -12.8 0.1 c-9.4 0 -14.9 0.6 -21.5 2.2 -9.8 2.4 -18.9 3.6 -19.8 2.7z"/>
  <path d="M190.3 186.5 c0 -3.3 0.2 -4.5 0.4 -2.7 0.2 1.8 0.2 4.5 0 6 -0.2 1.5 -0.4 0 -0.4 -3.3z"/>
  <path d="M76 185 c0 -0.7 0.3 -1 0.7 -0.7 0.3 0.4 0.3 1 0 1.4 -0.4 0.3 -0.7 0 -0.7 -0.7z"/>
  <path d="M77.2 172.5 c0 -1.6 0.2 -2.2 0.5 -1.2 0.2 0.9 0.2 2.3 0 3 -0.3 0.6 -0.5 -0.1 -0.5 -1.8z"/>
  <path d="M189.2 172.5 c0 -1.6 0.2 -2.2 0.5 -1.2 0.2 0.9 0.2 2.3 0 3 -0.3 0.6 -0.5 -0.1 -0.5 -1.8z"/>
  <path d="M82.2 164 c0.3 -5 0.3 -8.9 0 -8.6 -0.2 0.3 -1.3 3.4 -2.3 6.8 -1.7 5.6 -1.8 5.8 -1.3 1.8 1.2 -8.8 8.4 -28 10.5 -28 1.2 0 1.1 1.8 -1.5 17 -0.8 5.2 -1.6 11.9 -1.6 14.8 0 4.6 -0.2 5.2 -2.1 5.2 -2.1 0 -2.2 -0.3 -1.7 -9z"/>
  <path d="M188.2 166 c0 -1.4 0.2 -1.9 0.5 -1.2 0.2 0.6 0.2 1.8 0 2.5 -0.3 0.6 -0.5 0.1 -0.5 -1.3z"/>
  <path d="M227 157.5 c0 -0.3 0.2 -0.5 0.5 -0.5 0.3 0 0.5 0.2 0.5 0.5 0 0.3 -0.2 0.5 -0.5 0.5 -0.3 0 -0.5 -0.2 -0.5 -0.5z"/>
  <path d="M40 156.5 c0 -0.3 0.2 -0.5 0.5 -0.5 0.3 0 0.5 0.2 0.5 0.5 0 0.3 -0.2 0.5 -0.5 0.5 -0.3 0 -0.5 -0.2 -0.5 -0.5z"/>
  <path d="M126.2 154.3 c-1.8 -1 -5.7 -4.7 -8.5 -8.2 -3.3 -4.1 -7.5 -7.8 -11.7 -10.3 -11.3 -6.8 -12.8 -9.2 -8.9 -13.4 2.1 -2.3 2.2 -2.3 3.8 -0.4 0.9 1.1 4.7 4.1 8.6 6.7 3.8 2.7 9.2 7.6 12.1 11.2 2.8 3.5 6.2 7 7.5 7.7 6.6 3.7 11.9 0.1 19.1 -12.8 5.4 -9.7 6 -10.3 12.5 -12.8 2.8 -1.1 4.7 -2.4 4.5 -3.2 -0.1 -0.7 2.1 1.2 5 4.2 l5.2 5.5 -2.9 0.3 c-1.5 0.2 -3.1 -0.1 -3.5 -0.7 -0.8 -1.4 -7.5 1.2 -10.8 4.2 -1.3 1.2 -3.8 4.8 -5.5 8.1 -1.7 3.2 -5 7.9 -7.2 10.4 -3.9 4.3 -4.5 4.6 -10.1 4.9 -4.4 0.3 -6.7 0 -9.2 -1.4z"/>
  <path d="M222.4 151.8 c-0.4 -0.7 -0.3 -0.8 0.4 -0.4 1.2 0.7 1.6 1.6 0.8 1.6 -0.3 0 -0.8 -0.5 -1.2 -1.2z"/>
  <path d="M89 134.4 c0 -1.2 3.4 -6.4 4.2 -6.4 0.4 0 0.8 1.6 0.8 3.5 0 3.1 -0.3 3.5 -2.5 3.5 -1.4 0 -2.5 -0.3 -2.5 -0.6z"/>
  <path d="M108.5 112.1 c-7.4 -4.6 -10.9 -12.4 -10.7 -24.4 0.1 -5.9 0.6 -8.5 1.9 -10.4 1 -1.4 2.3 -3.4 2.9 -4.4 0.6 -1 1.9 -2.8 2.9 -3.9 2 -2.2 2 -2.2 -1.3 -3.9 -2.9 -1.5 -2 -2.8 3.5 -5.3 5.7 -2.5 10.1 -1.8 14.9 2.4 4 3.5 6.9 8.7 8.3 14.7 0.9 4 0.9 4 -1.4 2.5 -2.1 -1.4 -2.5 -1.3 -5.1 0.9 -2.3 2 -2.8 3.4 -3.2 8.3 -0.3 3.8 0.1 7.2 1 9.4 l1.5 3.5 -4.9 4.7 c-2.6 2.6 -4.8 5.4 -4.8 6.2 0 2.1 -1.8 2 -5.5 -0.3z m10 -30.5 c0.8 -0.8 1.5 -2.2 1.5 -3.1 0 -0.9 1.3 -2.2 3 -2.8 2.1 -0.8 3 -1.8 3 -3.4 0 -1.4 -0.6 -2.3 -1.5 -2.3 -1 0 -1.5 -1 -1.5 -2.9 0 -3.1 0.3 -3 -10.7 -4.7 -3.7 -0.6 -3.8 -0.6 -1.5 1.1 3.3 2.4 3 7.5 -0.7 11.4 -1.6 1.7 -3.1 4.5 -3.3 6.2 l-0.5 3.1 5.4 -0.5 c2.9 -0.3 6 -1.2 6.8 -2.1z"/>
  <path d="M150.3 105 c-1.3 -0.5 -2.3 -1.4 -2.3 -2 0 -0.5 1 -1 2.3 -1.1 1.7 0 1.4 -0.3 -1.5 -1.5 -3.5 -1.5 -3.6 -1.7 -2.6 -4.5 1.2 -3.4 0.4 -9.9 -1.5 -12.9 -1 -1.7 -0.8 -2.3 0.9 -4.1 1.1 -1.1 3.8 -2.6 5.9 -3.3 l3.8 -1.3 -2.8 -1.9 c-2.7 -1.7 -2.7 -1.8 -0.5 -2.6 5.1 -1.9 14.6 2.7 17.6 8.4 1.9 3.7 1.3 7.5 -2.2 14.3 -3.4 6.4 -5.2 8.5 -7.6 8.5 -2 0 -2.5 1.6 -0.5 2.3 0.6 0.2 0.9 0.7 0.6 1.1 -1.1 1.2 -7.3 1.6 -9.6 0.6z m6.7 -2.5 c0 -0.3 -0.2 -0.5 -0.5 -0.5 -0.3 0 -0.5 0.2 -0.5 0.5 0 0.3 0.2 0.5 0.5 0.5 0.3 0 0.5 -0.2 0.5 -0.5z m6 -17.5 c0 -0.5 -1.1 -1 -2.4 -1 -1.3 0 -3.9 -0.3 -5.7 -0.6 -1.9 -0.4 -3.1 -0.3 -2.7 0.1 0.4 0.5 2.5 1.1 4.5 1.5 5.6 1.1 6.3 1.1 6.3 0z m1.2 -6.2 c-0.9 -0.9 -1.2 -0.7 -1.2 1.2 0 1.9 0.3 2.1 1.2 1.2 0.9 -0.9 0.9 -1.5 0 -2.4z"/>
  <path d="M141.3 85.3 c-1.5 -0.6 -1.7 -3.3 -0.3 -3.3 0.5 0 1.4 0.9 2 2 1.1 2 0.6 2.3 -1.7 1.3z"/>
  <path d="M126.7 83.3 c-0.4 -0.3 -0.7 -1.2 -0.7 -2 0 -1.1 0.5 -1.1 2 -0.3 1.1 0.6 2 1.5 2 2 0 1.1 -2.3 1.3 -3.3 0.3z"/>
  <path d="M171 42.5 c0 -0.3 0.2 -0.5 0.5 -0.5 0.3 0 0.5 0.2 0.5 0.5 0 0.3 -0.2 0.5 -0.5 0.5 -0.3 0 -0.5 -0.2 -0.5 -0.5z"/>
  <path d="M98.5 39.2 c1.1 -1.8 3.5 -4.7 5.3 -6.5 l3.3 -3.2 23.5 0.4 23.4 0.3 0 -2.6 c0 -1.4 0.4 -2.6 0.9 -2.6 1.5 0 9.7 6.7 12.2 10.1 3.4 4.6 4.4 6.4 3.2 5.6 -0.6 -0.4 -16.7 -0.7 -35.8 -0.7 -27 -0.1 -35 0.2 -36.3 1.2 -1.2 1 -1.1 0.6 0.3 -2z"/>
  <path d="M111 27.2 c0 -0.7 1.7 -1.8 6.3 -4 0.4 -0.2 0.7 0.8 0.7 2.2 0 2.3 -0.4 2.6 -3.5 2.6 -1.9 0 -3.5 -0.4 -3.5 -0.8z"/>
  <path d="M142.8 24.7 c-2.7 -0.8 -3.8 -1.6 -3.8 -3 0 -1.7 0.5 -1.8 3.8 -1.2 5.1 0.9 10.2 3.2 10.2 4.4 0 1.3 -5.2 1.2 -10.2 -0.2z"/>
  <path d="M123 22.6 c0 -1.3 2.8 -2.6 5.8 -2.6 0.6 0 1.2 0.9 1.2 2 0 1.6 -0.7 2 -3.5 2 -2.3 0 -3.5 -0.5 -3.5 -1.4z"/>
 </g>
 <g fill="#dddddd">
  <path d="M173.2 233 c-2.9 -0.5 -5.6 -1.1 -5.9 -1.4 -1 -1 2.9 -4.6 5 -4.6 4.3 0 12.7 3.3 12.7 5 0 1.9 -3.2 2.2 -11.8 1z"/>
  <path d="M86 231.2 c0 -1.9 2.8 -3.1 10.6 -4.7 4.2 -0.8 8.5 2.4 6.5 4.9 -1 1.2 -3.2 1.6 -9.2 1.6 -7 0 -7.9 -0.2 -7.9 -1.8z"/>
  <path d="M82.6 180.5 c-0.6 -6.1 0.6 -23.2 2.4 -34 0.5 -3.3 1 -6.1 1 -6.2 0 -0.2 0.7 -0.3 1.5 -0.3 1.8 0 1.9 2.6 0.3 13.7 -0.7 4.5 -1 8.5 -0.7 8.8 0.5 0.5 59.9 1 83.2 0.7 l11.8 -0.2 -0.7 -7.5 c-0.6 -6.3 -0.4 -7.5 0.8 -7.5 2.4 0 2.9 3.1 3.5 21.9 0.5 13.7 0.3 17.2 -0.6 16.6 -1.5 -0.9 -76.1 -1.4 -91.2 -0.6 l-10.7 0.6 -0.6 -6z"/>
  <path d="M123.1 156.2 c-2 -2.1 -5.7 -6.3 -8.2 -9.3 -2.9 -3.4 -7 -6.7 -10.7 -8.7 -3.2 -1.7 -6.5 -3.9 -7.2 -4.7 -1.9 -2.3 -4 -1.8 -4 1 0 2 -0.5 2.5 -2.5 2.5 -1.4 0 -2.5 -0.3 -2.5 -0.6 0 -0.9 3.9 -7.2 6.8 -11.2 l2.5 -3.3 1.1 2.3 c1.1 2.2 8.1 7.4 14.4 10.9 1.7 1 5.3 4.6 8.1 8.2 5.7 7.2 10.6 10.2 15.1 9.2 3.6 -0.8 9.6 -7.4 13.8 -15.2 3.7 -7.1 6.3 -9.6 12.2 -11.9 2.5 -0.9 5 -2.3 5.7 -3.1 1 -1.2 1.9 -0.5 5.7 4.7 2.5 3.4 4.6 6.6 4.6 7.1 0 0.5 -1.1 0.9 -2.5 0.9 -1.4 0 -2.5 -0.5 -2.5 -1.1 0 -2.4 -2.7 -3.8 -5.7 -3 -6.7 1.9 -8.8 3.9 -14.7 13.7 -8.8 14.8 -9.4 15.4 -18.4 15.4 -7.3 0 -7.5 -0.1 -11.1 -3.8z"/>
  <path d="M179 143.4 c0 -4.4 1.8 -4.2 3.7 0.4 1.3 3.1 1.2 3.2 -1.2 3.2 -2.2 0 -2.5 -0.4 -2.5 -3.6z"/>
  <path d="M106.3 104.2 c-2.8 -3.5 -7 -14.8 -5.9 -15.9 0.8 -0.8 2.6 0.7 2.6 2.2 0 2.4 5 12.8 7.2 15.2 1.7 1.8 1.8 2.3 0.6 2.3 -0.8 0 -2.8 -1.7 -4.5 -3.8z"/>
  <path d="M119.6 94.4 c-0.3 -0.9 -0.6 -3.1 -0.6 -5 0 -3.7 -0.7 -4.1 -3.4 -2.1 -1.4 1 -2.8 1.1 -5.8 0.3 -3.1 -0.8 -4.1 -0.8 -4.7 0.3 -1.4 2.3 -2.4 -2.4 -1.6 -8 0.5 -3.4 1.6 -5.8 3.6 -8 3.2 -3.5 3.1 -4.2 -1.3 -6.5 -2.9 -1.5 -2.9 -1.6 -1.2 -3.5 3.3 -3.6 12.4 -4.6 12.4 -1.3 0 0.8 -1.1 1.4 -2.6 1.4 -3.2 0 -3 0.5 3.2 7.3 l5.2 5.6 0.6 -3.7 c0.9 -5.9 0.8 -6.2 -2.4 -6.2 -2.5 0 -3 -0.4 -3 -2.5 0 -3.2 1.1 -3.1 4.8 0 5.7 4.8 9.8 17 5.3 15.8 -4.2 -1.1 -8.8 7.9 -7.5 14.6 0.7 3.3 0 4.2 -1 1.5z"/>
  <path d="M146.7 89.5 c-0.5 -4.7 -0.3 -6.3 1 -7.7 2.1 -2.3 7.5 -3.3 10.2 -1.9 3.2 1.8 2.6 -0.3 -1.4 -4.8 l-3.6 -3.9 3 -0.7 c3.5 -0.7 8 1.3 10.9 5 2 2.5 2 4.6 0.2 9 -0.4 1.1 -1.1 2.8 -1.4 3.8 -0.3 1 -1 1.6 -1.6 1.2 -0.5 -0.3 -3.4 -0.6 -6.5 -0.6 -3 -0.1 -5.8 -0.5 -6.1 -1 -0.9 -1.5 -3.7 -1 -3.1 0.5 0.3 0.8 0.2 2.7 -0.2 4.3 -0.6 2.4 -0.8 1.9 -1.4 -3.2z"/>
  <path d="M141 84 c-0.8 -0.5 -1.2 -1.2 -0.9 -1.5 0.4 -0.3 1.2 0.1 1.9 1 1.4 1.7 1.1 1.9 -1 0.5z"/>
  <path d="M126.5 82 c-0.3 -0.5 0.1 -1 0.9 -1 0.9 0 1.6 0.5 1.6 1 0 0.6 -0.4 1 -0.9 1 -0.6 0 -1.3 -0.4 -1.6 -1z"/>
  <path d="M164.8 34.4 c-1.3 -1.4 -5.4 -1.6 -30.6 -1.6 -16 0 -29.7 0.3 -30.4 0.8 -0.7 0.4 -0.2 -0.5 1.2 -2 3.2 -3.6 8.7 -6.9 10 -6.1 0.5 0.3 1 0.1 1 -0.5 0 -1.2 5.9 -4 8.5 -4 2.1 0 1.9 3.7 -0.2 4.3 -1 0.3 4.8 0.5 12.9 0.6 10.9 0.1 14.7 -0.2 15.1 -1.1 0.5 -1.6 10.9 5.3 13.2 8.8 1.8 2.8 1.6 3.1 -0.7 0.8z"/>
 </g>
 <g fill="#e9e9e9">
  <path d="M177.7 232 c-3.2 -1 -7.1 -1.6 -8.5 -1.4 -2.7 0.4 -2.7 0.4 0.7 -2.5 7.5 -6.5 20.5 -6.2 28.4 0.7 3.1 2.8 2 3.9 -3.8 4 -3 0 -6.7 0.3 -8.2 0.6 -1.6 0.3 -5.4 -0.3 -8.6 -1.4z"/>
  <path d="M73 231.1 c0 -4.3 10.8 -8.7 18.5 -7.6 2.3 0.4 5.8 1.6 7.6 2.7 3.1 1.9 3.2 2.2 1.4 2.8 -7 2.6 -14.1 4 -20.3 4 -6.4 0 -7.2 -0.2 -7.2 -1.9z"/>
  <path d="M83.1 166.1 c-0.1 -4 2.6 -23.5 3.9 -27.3 0.4 -1.4 2.5 -5.2 4.4 -8.3 l3.6 -5.6 3.1 3.6 c1.7 1.9 5.8 4.9 9.1 6.7 3.7 2 7.8 5.3 10.7 8.7 10.2 12.1 11.5 13.1 16.3 13.1 5.5 0 7.4 -1.9 15.4 -15.4 5.2 -8.7 6.4 -10.1 10.4 -11.8 8.6 -3.8 9.5 -4.4 9.2 -6.1 -0.5 -2.7 0.3 -2.1 4.7 4.3 6 8.5 9.7 17.4 10.5 25 0.4 3.6 0.9 8.8 1.2 11.5 0.4 3.6 0.3 4.6 -0.5 3.5 -0.9 -1.3 -7.7 -1.5 -51 -1.5 -43.6 0 -50.1 0.2 -50.5 1.5 -0.2 0.8 -0.4 0 -0.5 -1.9z"/>
  <path d="M145.4 116.7 c-4.3 -2.5 -12.4 -8.9 -12.4 -9.8 0 -1.8 7.2 -0.9 11.9 1.6 5.3 2.6 6.6 4.6 5.1 7.6 -1.2 2.2 -1.8 2.3 -4.6 0.6z"/>
  <path d="M147 91 c0 -0.7 0.3 -1 0.7 -0.7 0.3 0.4 0.3 1 0 1.4 -0.4 0.3 -0.7 0 -0.7 -0.7z"/>
  <path d="M120.7 81.2 c-0.8 -3.7 -10.2 -14.1 -14.4 -15.9 -1.8 -0.7 -3.3 -1.6 -3.3 -1.8 0 -1.5 7 -4.5 10.5 -4.5 7.6 0 16 8.3 13.4 13.1 -0.6 1.2 -0.9 3 -0.6 4 0.3 1 0.1 1.9 -0.4 1.9 -0.5 0 -1.8 1.4 -2.8 3 l-1.8 3.1 -0.6 -2.9z"/>
  <path d="M140.3 83.3 c0.4 -0.3 1 -0.3 1.4 0 0.3 0.4 0 0.7 -0.7 0.7 -0.7 0 -1 -0.3 -0.7 -0.7z"/>
  <path d="M126.5 82 c-0.3 -0.5 -0.1 -1 0.4 -1 0.6 0 1.1 0.5 1.1 1 0 0.6 -0.2 1 -0.4 1 -0.3 0 -0.8 -0.4 -1.1 -1z"/>
  <path d="M160 78.9 c-1.4 -2.2 -4.1 -5 -6 -6.2 -3.3 -2.1 -3.4 -2.2 -1.1 -2.5 3.8 -0.6 8.7 0.7 10.5 2.7 1.3 1.4 1.5 2.8 1 6 -0.4 2.2 -0.9 4.1 -1.3 4.1 -0.3 0 -1.7 -1.8 -3.1 -4.1z"/>
  <path d="M159.4 29.7 c-1.4 -0.9 -9.1 -1.1 -26.8 -0.7 l-24.7 0.5 2.8 -2.3 c7.7 -6.1 24 -8.9 34.9 -5.8 5.1 1.5 16.4 7.7 16.4 9.1 0 0.6 0 0.6 -2.6 -0.8z"/>
 </g>
</svg>